<svg width="23" height="40" viewBox="0 0 23 40" fill="none" xmlns="http://www.w3.org/2000/svg">
<path d="M9.64497 37.078C7.4459 36.0788 5.38238 34.4772 4.48368 32.1577C4.36318 31.8514 4.26276 31.5351 4.18745 31.2138C4.1975 31.2238 4.20252 31.2288 4.21256 31.2389C4.2477 31.274 4.28285 31.3041 4.31799 31.3393C4.38326 31.5351 4.45857 31.7259 4.5389 31.9116C5.19662 33.4179 6.47188 34.6027 7.87266 35.4261C11.1913 37.3792 15.2631 37.1231 18.8981 35.8981L16.8346 34.422C14.0883 35.4763 11.0156 35.8579 8.27933 34.6379C8.09859 34.5626 7.92286 34.4722 7.74714 34.3818C6.89362 33.8597 6.0903 33.1568 5.45267 32.3635C5.39243 32.2932 5.3372 32.2179 5.28197 32.1426C5.17151 31.992 5.06106 31.8363 4.96064 31.6757C5.22674 31.9669 5.5079 32.2279 5.80412 32.4539C5.92462 32.5493 6.05014 32.6346 6.17064 32.715C8.76634 34.4471 12.3461 34.1509 15.3535 33.3576L13.6113 32.1125C12.2909 32.5744 10.9152 32.8756 9.52949 32.9158C7.71199 32.9811 5.80914 32.3133 4.56903 30.9577C4.37824 30.541 4.23264 30.1042 4.14729 29.6423C3.67032 26.9311 5.46272 24.5161 7.32038 22.7187C10.3228 19.7916 14.1636 17.7984 18.2354 16.8395L18.7325 14.3392C14.0331 15.6496 9.63493 18.19 6.43171 21.8803C4.6594 23.8835 3.03269 26.5596 3.53476 29.3159C2.39004 26.901 2.6461 24.3103 4.37824 21.6292C4.89538 20.8259 5.49786 20.0577 6.15557 19.3599C9.81065 15.4035 14.3544 12.9534 19.4253 10.8397L20.1734 7.06414C18.1049 8.00803 16.1016 9.10255 14.1937 10.3376C10.6642 12.6371 7.49108 15.4789 4.89537 18.7925C4.35314 19.5155 3.84103 20.2686 3.41929 21.0619C1.87291 23.8986 1.6771 26.6198 2.85697 29.0498C1.90805 27.6742 1.23528 26.1579 1.15495 24.3454C0.9742 20.5146 3.37912 17.211 5.93968 14.5751C10.1219 10.2222 15.218 6.78298 20.7759 4.02159L21.5792 -0.0200825C15.1778 3.40404 9.31862 7.84235 4.64434 13.4153C2.91721 15.4487 1.36079 17.7733 0.612708 20.374C-0.592262 24.5412 0.83362 28.0557 3.84605 30.8924C3.88119 31.3644 3.96654 31.8313 4.08704 32.2882C5.14641 36.1391 9.05252 38.8151 12.813 39.6636C16.1167 40.3866 19.6111 39.8946 22.8444 38.7197L20.3391 36.9273C16.8999 38.2729 13.0691 38.6645 9.64497 37.083V37.078Z" fill="black"/>
</svg>
