<svg width="23" height="41" viewBox="0 0 23 41" fill="none" xmlns="http://www.w3.org/2000/svg">
<path d="M9.45966 38.0779C7.26059 37.0788 5.19708 35.4772 4.29837 33.1576C4.17788 32.8513 4.07746 32.535 4.00215 32.2137C4.01219 32.2237 4.01721 32.2288 4.02726 32.2388C4.0624 32.274 4.09755 32.3041 4.13269 32.3392C4.19796 32.535 4.27327 32.7258 4.3536 32.9116C5.01131 34.4178 6.28658 35.6027 7.68735 36.4261C11.006 38.3791 15.0778 38.1231 18.7128 36.898L16.6493 35.4219C13.903 36.4763 10.8303 36.8579 8.09403 35.6378C7.91329 35.5625 7.73756 35.4721 7.56184 35.3818C6.70832 34.8596 5.905 34.1567 5.26737 33.3634C5.20712 33.2932 5.15189 33.2178 5.09667 33.1425C4.98621 32.9919 4.87576 32.8363 4.77534 32.6756C5.04144 32.9668 5.3226 33.2279 5.61882 33.4538C5.73932 33.5492 5.86484 33.6346 5.98533 33.7149C8.58104 35.447 12.1608 35.1508 15.1682 34.3575L13.426 33.1124C12.1056 33.5743 10.7299 33.8756 9.34419 33.9157C7.52669 33.981 5.62384 33.3132 4.38373 31.9576C4.19294 31.5409 4.04734 31.1041 3.96199 30.6422C3.48502 27.931 5.27741 25.5161 7.13508 23.7187C10.1375 20.7916 13.9783 18.7984 18.0501 17.8394L18.5471 15.3391C13.8478 16.6495 9.44962 19.19 6.24641 22.8802C4.4741 24.8835 2.84739 27.5595 3.34946 30.3159C2.20474 27.9009 2.46079 25.3102 4.19294 22.6292C4.71007 21.8259 5.31256 21.0577 5.97027 20.3598C9.62535 16.4035 14.1691 13.9534 19.24 11.8397L19.9881 8.06408C17.9196 9.00798 15.9163 10.1025 14.0084 11.3376C10.4789 13.6371 7.30578 16.4788 4.71007 19.7925C4.16784 20.5154 3.65572 21.2686 3.23398 22.0618C1.6876 24.8985 1.4918 27.6198 2.67166 30.0498C1.72275 28.6741 1.04997 27.1578 0.969642 25.3454C0.788897 21.5146 3.19382 18.2109 5.75438 15.5751C9.93663 11.2221 15.0327 7.78292 20.5906 5.02153L21.3939 0.979858C14.9925 4.40398 9.13332 8.84229 4.45904 14.4153C2.73191 16.4487 1.17549 18.7733 0.427406 21.374C-0.777565 25.5412 0.648317 29.0557 3.66074 31.8924C3.69589 32.3643 3.78124 32.8313 3.90174 33.2881C4.96111 37.139 8.86722 39.8151 12.6277 40.6636C15.9314 41.3865 19.4258 40.8945 22.6591 39.7197L20.1538 37.9273C16.7146 39.2728 12.8838 39.6644 9.45966 38.0829V38.0779Z" fill="black"/>
</svg>
