<svg width="162" height="48" viewBox="0 0 162 48" fill="none" xmlns="http://www.w3.org/2000/svg">
<g clip-path="url(#clip0_5443_2785)">
<path d="M11.3585 44.4929C8.71615 43.2953 6.24285 41.3717 5.16378 38.5865C5.01976 38.2193 4.9008 37.8396 4.80687 37.4516C4.81731 37.4599 4.82774 37.4703 4.83818 37.4787C4.87992 37.5183 4.92375 37.558 4.96759 37.5997C5.04481 37.8334 5.13456 38.0649 5.23474 38.2882C6.02369 40.0949 7.55359 41.5136 9.23794 42.5067C13.2182 44.8517 18.1126 44.5409 22.4727 43.0721L19.9973 41.2987C16.6975 42.5651 13.0115 43.0241 9.72634 41.5595C9.51136 41.4656 9.30055 41.3634 9.08975 41.2549C8.06286 40.629 7.10068 39.7841 6.3326 38.8348C6.26163 38.7492 6.19693 38.6595 6.13014 38.5698C5.99447 38.3883 5.86716 38.2026 5.7461 38.0128C6.06335 38.3612 6.40147 38.6721 6.75838 38.9474C6.90239 39.058 7.05058 39.1623 7.20086 39.2625C10.3191 41.3405 14.6124 40.9879 18.2274 40.0323L16.1381 38.5364C14.5561 39.0893 12.9009 39.4502 11.2374 39.5003C9.05427 39.5796 6.76881 38.7764 5.28066 37.1532C5.04899 36.6525 4.87366 36.1267 4.77348 35.578C4.19742 32.3255 6.35556 29.4255 8.58257 27.2682C12.1892 23.7549 16.7977 21.366 21.6879 20.2144L22.2848 17.2142C16.6453 18.7852 11.3606 21.8375 7.51811 26.2626C5.39128 28.6681 3.43769 31.8769 4.04297 35.1858C2.66544 32.29 2.97851 29.1793 5.05733 25.9643C5.67931 24.9983 6.39939 24.0782 7.19042 23.2437C11.5756 18.4952 17.0335 15.5577 23.1197 13.0207L24.0193 8.48924C21.5356 9.6242 19.1332 10.9323 16.8436 12.4178C12.6087 15.178 8.79755 18.587 5.68349 22.5657C5.03229 23.4315 4.42075 24.3369 3.90939 25.2925C2.05181 28.6973 1.81804 31.9624 3.23315 34.8791C2.09355 33.2288 1.28999 31.4054 1.18772 29.2356C0.972739 24.6353 3.8593 20.6754 6.93161 17.5126C11.9513 12.2884 18.0667 8.16378 24.7435 4.8507L25.7015 0C17.9978 4.08293 10.9661 9.41348 5.35162 16.1001C3.28115 18.537 1.40687 21.3305 0.513561 24.4496C-0.932849 29.4484 0.780719 33.6691 4.39153 37.0718C4.43536 37.6372 4.53345 38.1985 4.67956 38.7451C5.95273 43.3642 10.6384 46.5771 15.1572 47.5932C19.1228 48.4611 23.3201 47.8706 27.2022 46.4582L24.1946 44.3051C20.0683 45.9199 15.464 46.3894 11.3585 44.4929Z" fill="white"/>
<path d="M41.6433 22.2068C41.2321 22.8202 40.6895 23.298 40.032 23.6276L40.0111 23.638C39.3391 23.9719 38.5856 24.1408 37.7737 24.1408C36.9138 24.1408 36.1165 23.9218 35.4048 23.4878C34.6889 23.0518 34.1107 22.4551 33.6912 21.7165C33.2717 20.978 33.0588 20.156 33.0588 19.2714C33.0588 18.3868 33.2717 17.5919 33.6912 16.8721C34.1107 16.1523 34.6868 15.5765 35.4006 15.1634C36.1144 14.7503 36.9138 14.5396 37.7758 14.5396C38.4854 14.5396 39.1658 14.694 39.8003 15.0007C40.4327 15.3074 40.965 15.733 41.3824 16.2671L41.587 16.5279L43.2212 15.1405L43.0208 14.8984C42.3822 14.1286 41.5995 13.5152 40.6916 13.0771C39.7816 12.6369 38.8006 12.4136 37.7758 12.4136C36.5256 12.4136 35.363 12.7182 34.3215 13.3212C33.28 13.9241 32.441 14.7587 31.8273 15.806C31.2137 16.8533 30.9006 18.0196 30.9006 19.2693C30.9006 20.519 31.2116 21.7103 31.8253 22.7743C32.4389 23.8383 33.28 24.6937 34.3257 25.3175C35.3734 25.9434 36.536 26.2626 37.7758 26.2626C38.9154 26.2626 39.9861 26.0185 40.9545 25.5387C41.9272 25.0547 42.7349 24.3557 43.3506 23.4628L43.5218 23.2145L41.8353 21.9252L41.6475 22.2068H41.6433Z" fill="white"/>
<path d="M57.222 13.3066L57.1948 13.292C56.1533 12.6994 55.0096 12.4011 53.7928 12.4011C52.5759 12.4011 51.3946 12.7099 50.3448 13.317C49.297 13.9241 48.4559 14.7628 47.8422 15.8101C47.2286 16.8575 46.9155 18.0237 46.9155 19.2734C46.9155 20.5231 47.2265 21.7123 47.8401 22.7701C48.4538 23.8279 49.2949 24.6812 50.3406 25.305C51.3883 25.9309 52.5509 26.2501 53.7907 26.2501C55.0305 26.2501 56.1888 25.9351 57.2324 25.3154C58.2718 24.6958 59.1109 23.8467 59.7245 22.7889C60.3381 21.7311 60.6491 20.5482 60.6491 19.2734C60.6491 17.9987 60.3381 16.8408 59.7224 15.7914C59.1088 14.7461 58.2677 13.9095 57.2199 13.3066H57.222ZM58.491 19.2714C58.491 20.1685 58.2781 20.9967 57.8586 21.7332C57.439 22.4718 56.863 23.0643 56.145 23.4941C55.4312 23.9238 54.6401 24.1408 53.7907 24.1408C52.9412 24.1408 52.1335 23.9238 51.4196 23.4941C50.7037 23.0643 50.1235 22.4697 49.6977 21.7311C49.2719 20.9947 49.057 20.1664 49.057 19.2693C49.057 18.3721 49.2699 17.5898 49.6894 16.87C50.1089 16.1481 50.685 15.566 51.4029 15.1425C52.1168 14.719 52.9203 14.5041 53.7928 14.5041C54.6652 14.5041 55.45 14.719 56.1638 15.1425C56.8797 15.5681 57.4516 16.1481 57.8669 16.87C58.2802 17.5898 58.491 18.3993 58.491 19.2714Z" fill="white"/>
<path d="M75.1173 22.3341L67.8059 12.8622C67.6932 12.7015 67.5492 12.5805 67.3843 12.5054C67.2277 12.4345 67.0566 12.399 66.8729 12.399C66.5557 12.399 66.2823 12.5117 66.0589 12.7349C65.8356 12.9582 65.7229 13.2315 65.7229 13.5486V26.0769H67.8643V16.4298L75.184 25.8141C75.2926 25.9538 75.422 26.0644 75.5723 26.1416C75.7267 26.223 75.902 26.2647 76.092 26.2647C76.4092 26.2647 76.6826 26.152 76.906 25.9288C77.1293 25.7056 77.242 25.4323 77.242 25.1151V12.6389H75.1173V22.3299V22.3341Z" fill="white"/>
<path d="M89.2308 22.4864L85.0877 12.8351L85.0042 12.6431H82.6687L88.1872 25.5387C88.2811 25.7577 88.4251 25.933 88.6151 26.0582C88.805 26.1854 89.0158 26.2501 89.2412 26.2501C89.4666 26.2501 89.6774 26.1834 89.8653 26.054C90.0469 25.9267 90.1867 25.7536 90.2785 25.5366L95.7615 12.6431H93.4093L89.2308 22.4864Z" fill="white"/>
<path d="M100.833 12.9769C100.61 13.2002 100.497 13.4735 100.497 13.7906V24.9274C100.497 25.2445 100.61 25.5178 100.833 25.7411C101.055 25.9643 101.334 26.077 101.664 26.077H110.927V23.9364H102.639V20.423H110.407V18.2991H102.639V14.7837H110.927V12.6431H101.664C101.334 12.6431 101.057 12.7558 100.833 12.979V12.9769Z" fill="white"/>
<path d="M125.823 20.8486C126.497 20.4773 127.04 19.9619 127.436 19.3194C127.835 18.6726 128.038 17.9403 128.038 17.1475C128.038 16.3547 127.837 15.5911 127.441 14.9047C127.046 14.2204 126.506 13.6675 125.834 13.2607C125.157 12.8518 124.406 12.6431 123.602 12.6431H118.378C118.048 12.6431 117.771 12.7558 117.547 12.979C117.324 13.2023 117.211 13.4756 117.211 13.7927V26.079H119.353V21.4099H122.634L125.84 26.029L125.875 26.079H128.382L124.984 21.2075C125.276 21.1178 125.558 20.9988 125.825 20.8528L125.823 20.8486ZM125.585 18.2386C125.391 18.5725 125.116 18.8416 124.769 19.0377C124.421 19.2338 124.028 19.334 123.602 19.334H119.353V14.7816H123.602C124.014 14.7816 124.398 14.888 124.744 15.0987C125.093 15.3115 125.372 15.6036 125.575 15.9666C125.777 16.3317 125.882 16.7281 125.882 17.1433C125.882 17.5335 125.783 17.9027 125.587 18.2366L125.585 18.2386Z" fill="white"/>
<path d="M162 14.7816V12.641H152.737C152.408 12.641 152.128 12.7537 151.907 12.9769C151.683 13.2002 151.571 13.4735 151.571 13.7906V24.9274C151.571 25.2445 151.683 25.5178 151.907 25.741C152.128 25.9643 152.408 26.0769 152.737 26.0769H162V23.9364H153.712V20.423H161.48V18.2991H153.712V14.7837H162V14.7816Z" fill="white"/>
<path d="M140.761 21.074H143.838V22.4593C143.439 22.9767 142.936 23.3814 142.341 23.6631C141.673 23.9802 140.932 24.1429 140.141 24.1429C139.281 24.1429 138.484 23.9239 137.772 23.4899C137.054 23.0539 136.474 22.4572 136.048 21.7186C135.622 20.9822 135.407 20.1601 135.407 19.2755C135.407 18.3909 135.622 17.5961 136.046 16.8784C136.472 16.1565 137.05 15.5807 137.766 15.1676C138.48 14.7545 139.279 14.5438 140.141 14.5438C140.851 14.5438 141.519 14.694 142.13 14.9882C142.744 15.2844 143.278 15.7017 143.721 16.2295L143.936 16.4861L145.497 15.0487L145.296 14.815C144.658 14.0702 143.883 13.4777 142.994 13.0562C142.101 12.6348 141.141 12.4199 140.141 12.4199C138.903 12.4199 137.743 12.7245 136.695 13.3274C135.647 13.9283 134.806 14.7649 134.191 15.8123C133.577 16.8596 133.264 18.0258 133.264 19.2755C133.264 20.5253 133.575 21.7165 134.189 22.7806C134.802 23.8446 135.643 24.7 136.689 25.3238C137.737 25.9497 138.899 26.2689 140.139 26.2689C141.316 26.2689 142.418 26.006 143.416 25.4907C144.418 24.9712 145.234 24.2368 145.841 23.3021C145.931 23.1582 145.977 23.0038 145.977 22.839V21.0781H145.981V18.9584H140.759V21.0781L140.761 21.074Z" fill="white"/>
<path d="M33.0295 39.0455C32.418 38.6804 31.9317 38.1859 31.5727 37.5621C31.2137 36.9404 31.0342 36.2582 31.0342 35.5196C31.0342 34.7811 31.2137 34.1155 31.5727 33.5042C31.9317 32.8929 32.418 32.411 33.0295 32.0584C33.6411 31.7058 34.311 31.5306 35.0353 31.5306C35.6197 31.5306 36.1728 31.6537 36.6925 31.8999C37.2143 32.146 37.6609 32.4882 38.0325 32.9242L37.3667 33.5355C37.0786 33.1913 36.7322 32.9222 36.3314 32.7281C35.9307 32.5341 35.4966 32.4381 35.0332 32.4381C34.4697 32.4381 33.9541 32.5737 33.4866 32.845C33.0191 33.1162 32.6455 33.4875 32.3679 33.9591C32.0903 34.4306 31.9504 34.9501 31.9504 35.5217C31.9504 36.0934 32.0903 36.6275 32.3679 37.1094C32.6455 37.5913 33.0191 37.9752 33.4866 38.259C33.9541 38.5448 34.4697 38.6867 35.0332 38.6867C35.5466 38.6867 36.0225 38.5823 36.4587 38.3758C36.895 38.1693 37.2498 37.8667 37.5253 37.4724L38.2746 37.7791L38.3476 37.8751C37.9949 38.4175 37.5274 38.839 36.943 39.1415C36.3586 39.444 35.722 39.5942 35.0311 39.5942C34.3069 39.5942 33.6369 39.4106 33.0253 39.0455H33.0295ZM37.4856 35.868H38.404V37.6936L37.4856 38.1359V35.866V35.868ZM38.0867 37.6936H38.404C38.404 37.7562 38.3873 37.8167 38.3518 37.873L38.0888 37.6936H38.0867Z" fill="white"/>
<path d="M41.2969 39.3313C41.1988 39.2333 41.1487 39.1144 41.1487 38.9725V31.6683H42.067V38.8244L41.8041 38.5594H46.9573V39.4774H41.6684C41.5202 39.4774 41.3971 39.4273 41.299 39.3292L41.2969 39.3313Z" fill="white"/>
<path d="M50.7475 39.0351C50.136 38.67 49.6497 38.1755 49.2907 37.5579C48.9317 36.9383 48.7522 36.2603 48.7522 35.5217C48.7522 34.7831 48.9317 34.1176 49.2907 33.5063C49.6497 32.895 50.136 32.411 50.7475 32.0542C51.3591 31.6975 52.0291 31.5222 52.7533 31.5222C53.4776 31.5222 54.1371 31.6975 54.7486 32.0501C55.3602 32.4026 55.8465 32.8846 56.2055 33.4959C56.5645 34.1072 56.744 34.7831 56.744 35.5217C56.744 36.2603 56.5645 36.9508 56.2055 37.5684C55.8465 38.188 55.3623 38.6783 54.7528 39.0413C54.1434 39.4043 53.4776 39.5838 52.7512 39.5838C52.0249 39.5838 51.357 39.4002 50.7454 39.0351H50.7475ZM54.2895 38.2652C54.757 37.9836 55.1285 37.6018 55.404 37.1198C55.6774 36.6379 55.8152 36.1038 55.8152 35.5217C55.8152 34.9396 55.6795 34.4306 55.4082 33.959C55.1369 33.4875 54.7674 33.112 54.2999 32.8345C53.8324 32.557 53.3168 32.4173 52.7533 32.4173C52.1898 32.4173 51.6638 32.557 51.1963 32.8345C50.7287 33.112 50.3572 33.4875 50.0817 33.959C49.8062 34.4306 49.6706 34.95 49.6706 35.5217C49.6706 36.0933 49.8104 36.6379 50.088 37.1198C50.3656 37.6018 50.7392 37.9836 51.2067 38.2652C51.6742 38.5469 52.1898 38.6866 52.7533 38.6866C53.3168 38.6866 53.8219 38.5469 54.2895 38.2652Z" fill="white"/>
<path d="M59.3196 39.3313C59.2215 39.2333 59.1714 39.1144 59.1714 38.9725V32.1753C59.1714 32.0355 59.2215 31.9145 59.3196 31.8164C59.4177 31.7183 59.5408 31.6683 59.689 31.6683H62.9513C63.3457 31.6683 63.7089 31.7642 64.0449 31.9583C64.3789 32.1523 64.644 32.4152 64.836 32.749C65.0301 33.0828 65.1261 33.4479 65.1261 33.8422C65.1261 34.2365 65.0301 34.5891 64.836 34.9021C64.6419 35.215 64.381 35.457 64.0491 35.6302C63.7172 35.8034 63.352 35.8889 62.9513 35.8889V35.1191C63.1767 35.1191 63.3854 35.0606 63.5795 34.9438C63.7736 34.827 63.9281 34.6726 64.0449 34.4806C64.1618 34.2887 64.2182 34.0738 64.2182 33.8422C64.2182 33.6106 64.1597 33.4083 64.0449 33.2142C63.9301 33.0202 63.7736 32.8679 63.5795 32.7552C63.3854 32.6426 63.1767 32.5863 62.9513 32.5863H59.8268L60.0897 32.3213V38.8223L59.8268 38.5573H63.2372C63.4626 38.5573 63.6713 38.4989 63.8654 38.3841C64.0595 38.2673 64.214 38.1108 64.3309 37.9147C64.4478 37.7186 64.5041 37.5037 64.5041 37.27C64.5041 37.0364 64.4457 36.8382 64.3309 36.6483C64.214 36.4585 64.0595 36.3083 63.8654 36.1956C63.6713 36.0829 63.4626 36.0266 63.2372 36.0266H62.0433V35.2567H63.2372C63.6379 35.2567 64.0053 35.3402 64.3413 35.5092C64.6753 35.6782 64.9403 35.9181 65.1323 36.2269C65.3265 36.5357 65.4225 36.8841 65.4225 37.2721C65.4225 37.6602 65.3244 38.042 65.1261 38.38C64.9299 38.718 64.6627 38.985 64.3288 39.1811C63.9948 39.3793 63.6296 39.4774 63.2351 39.4774H59.6869C59.5387 39.4774 59.4156 39.4273 59.3175 39.3292L59.3196 39.3313ZM59.9332 35.1191H62.9533V36.0266H59.9332V35.1191Z" fill="white"/>
<path d="M70.9764 31.6266C71.0599 31.5702 71.1517 31.541 71.2519 31.541C71.3521 31.541 71.4398 31.5702 71.5212 31.6266C71.6026 31.6829 71.6631 31.7559 71.7069 31.8477L74.9379 39.4774H73.9026L71.0933 32.8283H71.4105L68.5595 39.4774H67.5347L70.7865 31.8477C70.8282 31.7559 70.8929 31.6829 70.9764 31.6266Z" fill="white"/>
<path d="M77.407 39.3313C77.3089 39.2333 77.2588 39.1144 77.2588 38.9725V31.6683H78.1771V38.8244L77.9142 38.5594H83.0674V39.4774H77.7785C77.6303 39.4774 77.5072 39.4273 77.4091 39.3292L77.407 39.3313Z" fill="white"/>
<path d="M89.9717 39.3313C89.8736 39.2333 89.8235 39.1144 89.8235 38.9725V32.1753C89.8235 32.0355 89.8736 31.9145 89.9717 31.8164C90.0698 31.7183 90.1929 31.6683 90.3411 31.6683H93.6034C93.9978 31.6683 94.361 31.7642 94.697 31.9583C95.031 32.1523 95.2961 32.4152 95.4881 32.749C95.6822 33.0828 95.7782 33.4479 95.7782 33.8422C95.7782 34.2365 95.6822 34.5891 95.4881 34.9021C95.294 35.215 95.0331 35.457 94.7012 35.6302C94.3694 35.8034 94.0041 35.8889 93.6034 35.8889V35.1191C93.8288 35.1191 94.0375 35.0606 94.2316 34.9438C94.4257 34.827 94.5802 34.6726 94.697 34.4806C94.8139 34.2887 94.8703 34.0738 94.8703 33.8422C94.8703 33.6106 94.8118 33.4083 94.697 33.2142C94.5822 33.0202 94.4257 32.8679 94.2316 32.7552C94.0375 32.6426 93.8288 32.5863 93.6034 32.5863H90.4789L90.7418 32.3213V38.8223L90.4789 38.5573H93.8893C94.1147 38.5573 94.3234 38.4989 94.5175 38.3841C94.7116 38.2673 94.8661 38.1108 94.9809 37.9147C95.0978 37.7186 95.1562 37.5037 95.1562 37.27C95.1562 37.0364 95.0978 36.8382 94.9809 36.6483C94.864 36.4585 94.7096 36.3083 94.5175 36.1956C94.3234 36.0829 94.1147 36.0266 93.8893 36.0266H92.6954V35.2567H93.8893C94.29 35.2567 94.6574 35.3402 94.9934 35.5092C95.3294 35.6782 95.5924 35.9181 95.7845 36.2269C95.9786 36.5357 96.0746 36.8841 96.0746 37.2721C96.0746 37.6602 95.9765 38.042 95.7782 38.38C95.5799 38.718 95.3148 38.985 94.9809 39.1811C94.6469 39.3793 94.2817 39.4774 93.8872 39.4774H90.339C90.1908 39.4774 90.0677 39.4273 89.9696 39.3292L89.9717 39.3313ZM90.5832 35.1191H93.6034V36.0266H90.5832V35.1191Z" fill="white"/>
<path d="M100.708 39.0726C100.195 38.7743 99.7857 38.3695 99.4831 37.8584C99.1804 37.3472 99.0281 36.7881 99.0281 36.1747V31.6683H99.9464V36.1747C99.9464 36.6108 100.055 37.0155 100.274 37.389C100.491 37.7624 100.788 38.0587 101.161 38.2757C101.535 38.4926 101.942 38.6032 102.386 38.6032C102.831 38.6032 103.238 38.4947 103.612 38.2757C103.985 38.0587 104.279 37.7624 104.499 37.389C104.716 37.0155 104.826 36.6108 104.826 36.1747V31.6683H105.745V36.1747C105.745 36.786 105.594 37.3472 105.296 37.8584C104.997 38.3695 104.59 38.7722 104.077 39.0726C103.564 39.371 103 39.5212 102.388 39.5212C101.777 39.5212 101.224 39.371 100.71 39.0726H100.708Z" fill="white"/>
<path d="M110.015 39.3459C109.462 39.2082 108.929 39.0038 108.416 38.7284L108.817 37.9043C109.274 38.1442 109.746 38.3257 110.232 38.453C110.718 38.5802 111.227 38.647 111.764 38.6533C112.306 38.6679 112.776 38.622 113.173 38.5156C113.569 38.4092 113.878 38.2569 114.097 38.0566C114.314 37.8563 114.427 37.6184 114.435 37.3451C114.442 37.0009 114.337 36.7318 114.118 36.5377C113.899 36.3437 113.619 36.2039 113.279 36.1163C112.937 36.0287 112.488 35.9452 111.933 35.868C111.2 35.7762 110.624 35.6782 110.201 35.5718C109.779 35.4654 109.412 35.2693 109.103 34.9813C108.794 34.6934 108.646 34.2782 108.66 33.7358C108.666 33.2789 108.821 32.8804 109.119 32.5424C109.418 32.2044 109.831 31.952 110.355 31.783C110.879 31.614 111.472 31.5368 112.133 31.5514C112.661 31.5577 113.183 31.6203 113.701 31.7371C114.218 31.8539 114.698 32.0125 115.143 32.217L114.774 33.0306C113.943 32.6572 113.06 32.4611 112.123 32.4402C111.609 32.4256 111.167 32.4652 110.797 32.557C110.428 32.6488 110.138 32.7949 109.927 32.9952C109.716 33.1954 109.606 33.4479 109.599 33.7504C109.585 34.0675 109.687 34.3075 109.906 34.4723C110.123 34.6371 110.378 34.7498 110.666 34.8103C110.954 34.8708 111.39 34.9396 111.975 35.0168C112.672 35.1003 113.256 35.2087 113.728 35.3381C114.2 35.4675 114.596 35.6949 114.915 36.0182C115.235 36.3416 115.389 36.7881 115.375 37.3577C115.366 37.8146 115.208 38.2151 114.895 38.5552C114.582 38.8974 114.152 39.1561 113.607 39.3313C113.062 39.5066 112.444 39.5879 111.753 39.5733C111.148 39.5587 110.57 39.4836 110.017 39.3459H110.015Z" fill="white"/>
<path d="M118.372 31.6683H124.147V32.5863H118.372V31.6683ZM118.372 38.5594H124.147V39.4774H118.372V38.5594ZM120.801 31.9854H121.72V39.1936H120.801V31.9854Z" fill="white"/>
<path d="M133.011 39.542C132.944 39.5066 132.886 39.4586 132.838 39.3939L127.833 32.9764L128.023 32.9138V39.4774H127.104V32.0271C127.104 31.8873 127.155 31.7663 127.253 31.6683C127.351 31.5702 127.47 31.5201 127.612 31.5201C127.695 31.5201 127.774 31.5368 127.843 31.5681C127.914 31.5994 127.973 31.6516 128.023 31.7204L133.017 38.1901L132.838 38.2423V31.6662H133.746V39.0851C133.746 39.227 133.696 39.3459 133.598 39.444C133.5 39.542 133.379 39.5921 133.239 39.5921C133.153 39.5921 133.078 39.5754 133.011 39.54V39.542Z" fill="white"/>
<path d="M137.271 39.3313C137.173 39.2333 137.123 39.1144 137.123 38.9725V32.1753C137.123 32.0355 137.173 31.9145 137.271 31.8164C137.369 31.7183 137.492 31.6683 137.641 31.6683H143.099V32.5863H137.776L138.039 32.3213V38.8223L137.776 38.5573H143.099V39.4753H137.641C137.492 39.4753 137.369 39.4252 137.271 39.3272V39.3313ZM137.851 35.1191H142.781V36.0266H137.851V35.1191Z" fill="white"/>
<path d="M147.054 39.3459C146.501 39.2082 145.969 39.0038 145.455 38.7284L145.856 37.9043C146.313 38.1442 146.785 38.3257 147.271 38.453C147.757 38.5802 148.266 38.647 148.801 38.6533C149.343 38.6679 149.813 38.622 150.21 38.5156C150.606 38.4092 150.915 38.2569 151.134 38.0566C151.353 37.8563 151.466 37.6184 151.472 37.3451C151.479 37.0009 151.374 36.7318 151.155 36.5377C150.938 36.3437 150.656 36.2039 150.316 36.1163C149.974 36.0287 149.525 35.9452 148.97 35.868C148.237 35.7762 147.661 35.6782 147.238 35.5718C146.814 35.4654 146.449 35.2693 146.14 34.9813C145.831 34.6934 145.683 34.2782 145.697 33.7358C145.703 33.2789 145.858 32.8804 146.156 32.5424C146.455 32.2044 146.868 31.952 147.392 31.783C147.916 31.614 148.509 31.5368 149.17 31.5514C149.698 31.5577 150.22 31.6203 150.738 31.7371C151.255 31.8539 151.735 32.0125 152.18 32.217L151.811 33.0306C150.98 32.6572 150.097 32.4611 149.16 32.4402C148.646 32.4256 148.204 32.4652 147.834 32.557C147.465 32.6488 147.175 32.7949 146.964 32.9952C146.753 33.1954 146.643 33.4479 146.636 33.7504C146.622 34.0675 146.724 34.3075 146.943 34.4723C147.16 34.6371 147.415 34.7498 147.703 34.8103C147.991 34.8708 148.427 34.9396 149.012 35.0168C149.709 35.1003 150.293 35.2087 150.765 35.3381C151.237 35.4675 151.633 35.6949 151.952 36.0182C152.272 36.3416 152.426 36.7881 152.412 37.3577C152.405 37.8146 152.245 38.2151 151.932 38.5552C151.618 38.8974 151.189 39.1561 150.644 39.3313C150.099 39.5066 149.481 39.5879 148.79 39.5733C148.185 39.5587 147.607 39.4836 147.054 39.3459Z" fill="white"/>
<path d="M156.302 39.3459C155.749 39.2082 155.217 39.0038 154.703 38.7284L155.104 37.9043C155.561 38.1442 156.033 38.3257 156.519 38.453C157.006 38.5802 157.515 38.647 158.051 38.6533C158.594 38.6679 159.063 38.622 159.46 38.5156C159.857 38.4092 160.165 38.2569 160.385 38.0566C160.602 37.8563 160.714 37.6184 160.723 37.3451C160.729 37.0009 160.625 36.7318 160.406 36.5377C160.186 36.3437 159.907 36.2039 159.566 36.1163C159.224 36.0287 158.775 35.9452 158.22 35.868C157.488 35.7762 156.912 35.6782 156.488 35.5718C156.066 35.4654 155.699 35.2693 155.39 34.9813C155.081 34.6934 154.933 34.2782 154.948 33.7358C154.954 33.2789 155.108 32.8804 155.407 32.5424C155.705 32.2044 156.118 31.952 156.642 31.783C157.166 31.614 157.759 31.5368 158.421 31.5514C158.949 31.5577 159.47 31.6203 159.988 31.7371C160.506 31.8539 160.986 32.0125 161.43 32.217L161.061 33.0306C160.23 32.6572 159.347 32.4611 158.41 32.4402C157.897 32.4256 157.454 32.4652 157.085 32.557C156.715 32.6488 156.425 32.7949 156.214 32.9952C156.004 33.1954 155.893 33.4479 155.887 33.7504C155.872 34.0675 155.974 34.3075 156.194 34.4723C156.411 34.6371 156.665 34.7498 156.953 34.8103C157.241 34.8708 157.678 34.9396 158.262 35.0168C158.959 35.1003 159.544 35.2087 160.015 35.3381C160.487 35.4675 160.883 35.6949 161.203 36.0182C161.522 36.3416 161.677 36.7881 161.662 37.3577C161.654 37.8146 161.495 38.2151 161.182 38.5552C160.869 38.8974 160.439 39.1561 159.894 39.3313C159.349 39.5066 158.732 39.5879 158.041 39.5733C157.435 39.5587 156.857 39.4836 156.304 39.3459H156.302Z" fill="white"/>
<path d="M73.1805 35.989H69.3547V36.8966H73.1805V35.989Z" fill="white"/>
<path d="M38.4062 35.4111H35.72V36.3187H38.4062V35.4111Z" fill="white"/>
</g>
<defs>
<clipPath id="clip0_5443_2785">
<rect width="162" height="48" fill="white"/>
</clipPath>
</defs>
</svg>
