<?xml version="1.0" encoding="UTF-8"?>
<svg id="Layer_2" data-name="Layer 2" xmlns="http://www.w3.org/2000/svg" viewBox="0 0 1518.4 237.16">
  <defs>
    <style>
      .cls-1 {
        fill: #727781;
      }
    </style>
  </defs>
  <g id="Layer_1-2" data-name="Layer 1">
    <g>
      <path class="cls-1" d="M531.86,140.33c50.52,0,75.78-35.08,75.78-70.16S582.38,1.41,529.05,1.41c-39.29-1.41-183.84-1.41-183.84-1.41v237.16h44.9V37.89h141.74c25.26,0,37.89,8.42,37.89,32.28,0,19.64-12.63,30.87-36.49,30.87h-117.87l140.33,134.72h54.73l-101.04-98.23c9.83,2.81,21.05,2.81,22.45,2.81Z"/>
      <rect class="cls-1" x="653.95" y="0" width="43.5" height="237.16"/>
      <polygon class="cls-1" points="1248.96 36.49 1248.96 0 1156.34 0 1112.84 0 1035.65 0 1010.39 36.49 1112.84 36.49 1112.84 237.16 1156.34 237.16 1156.34 36.49 1248.96 36.49"/>
      <path class="cls-1" d="M924.79,98.23h-110.86c-22.45,0-35.08-9.82-35.08-29.47,0-22.45,15.44-32.27,35.08-32.27h151.56L985.13,0h-172.61c-39.3,0-71.57,29.47-71.57,70.17,0,36.48,30.87,65.95,72.97,65.95h110.86c25.26,0,39.3,11.23,39.3,32.28,0,18.24-15.44,30.87-39.3,30.87h-152.96l-22.45,37.89h181.02c46.31,0,71.57-33.67,71.57-71.56,0-35.09-29.47-67.37-77.18-67.37Z"/>
      <path class="cls-1" d="M140.33,15.44C130.51,30.87,0,237.16,0,237.16h46.31l43.51-70.17h92.62l23.86-37.89h-92.62l50.52-81.39,117.88,188.04h46.31S199.27,32.28,188.04,14.03c-12.63-18.24-35.08-16.84-47.71,1.41Z"/>
      <path class="cls-1" d="M1472.08,237.16h46.31s-129.1-203.48-140.34-221.73c-12.62-21.05-35.08-19.64-47.71-1.4-9.83,15.43-140.33,221.72-140.33,221.72h46.31l43.5-70.16h94.03l23.85-37.89h-92.62l50.52-81.4,116.48,190.86Z"/>
    </g>
  </g>
</svg>