<?xml version="1.0" encoding="UTF-8"?>
<svg id="Layer_2" data-name="Layer 2" xmlns="http://www.w3.org/2000/svg" viewBox="0 0 1157.04 335.58">
  <defs>
    <style>
      .cls-1 {
        fill: #727781;
      }
    </style>
  </defs>
  <g id="Layer_1-2" data-name="Layer 1">
    <g>
      <polygon class="cls-1" points="722.4 .55 797.35 191.99 887.76 .55 938.22 .55 776.85 335.58 730.39 335.58 772.9 245.86 773.35 242.45 671.44 .55 722.4 .55"/>
      <path class="cls-1" d="M891.26,246.83L1006.27,2.15c.71-1.56,1.89-1.49,3.33-1.66,9.28-1.08,20.55.97,30.07-.02l117.36,246.36h-47.96l-83.94-183.47-51.95,111.68h77.44l17.49,34.9h-112.41l-17.99,36.89h-46.46Z"/>
      <path class="cls-1" d="M708.41,246.83h-47.96l-85.43-183.46-50.45,111.67h77.44l17.49,34.9h-112.41l-17.99,36.89h-47.46L557.64,2.15c.71-1.56,1.9-1.49,3.34-1.66,6.06-.7,20.93-.62,27.09,0,1.41.14,2.85-.13,4.02.98l116.33,245.36Z"/>
      <path class="cls-1" d="M266.78,246.83h-47.46L133.39,63.39l-51.46,111.65h78.93l15.99,34.9H63.95l-15.99,36.89H0L116.9,1.05c1.84-.88,26.98-.97,30.54-.55,1.44.17,2.62.1,3.34,1.66l116.01,244.68Z"/>
      <path class="cls-1" d="M269.28.55l86.93,188.46L441.63.55h46.96l-116.36,246.36c-9.84-1.02-21.49,1.1-31.07-.02-1.44-.17-2.61-.11-3.34-1.65L222.81.55h46.46Z"/>
    </g>
  </g>
</svg>