<?xml version="1.0" encoding="UTF-8"?>
<svg id="Layer_2" data-name="Layer 2" xmlns="http://www.w3.org/2000/svg" viewBox="0 0 1305.77 667.78">
  <defs>
    <style>
      .cls-1 {
        fill: #727781;
      }

      .cls-2 {
        fill: #a3a6ae;
      }
    </style>
  </defs>
  <g id="Layer_1-2" data-name="Layer 1">
    <g>
      <g>
        <path class="cls-2" d="M1093.39,22.62l13.67-22.62c-11.97,5.84-24.35,11.74-35.48,19.1-19.33,12.79-32.93,35.24-50.23,50.58-10.97,1.84-22.03,3.22-32.98,5.15-68,12.01-131.94,38.58-195.82,63.55l.76,1.05,47.3,11.47c-16.16.08-32.2,2.21-48.17,4.34-36.17,13.09-70.82,30.49-106.12,45.9-166,72.44-338.47,136.48-519.99,157.03-53.8,6.09-107.76,8.39-161.92,7.88l-4.42,1.06c4.43,1.81,8.62,2.11,13.32,2.61,48.11,5.13,95.02,4.05,143.17,1.59,129.72-6.63,248.14-29.65,370.4-72.08,98.34-34.13,189.92-78.34,285.15-119.17,5.6-2.4,12.39-5.91,18.12-7.47,8.58-2.33,26.3-.1,35.78.78,21.59,2.01,42.97,6.05,64.52,8.35-.29-.8-1.83-1.41-2.6-1.83-20.37-11.25-43.91-19.21-65.14-28.88-.79-.36-2.5-.86-2.78-1.65,64.27-30.34,132.08-55.63,203.64-61.74,8.23-22.41,18.15-44.18,29.8-65Z"/>
        <path class="cls-2" d="M1263.78,97.93c-14-5.6-28.43-10.6-43.52-12.25l-36.39,7.79,11.23-14.1c.25-.37.43-1.32.26-1.56-.6-.88-18.21-4.06-20.8-4.54-18.61-3.49-37.86-5.82-56.79-6.95-6.71-.4-15.9-1.2-22.38-.87-1.99.1-3.77,1.27-5.29,2.44l-22.22,19.31c24.43-2.09,48.99-1.99,73.4,0,11.27.92,22.51,2.72,33.7,4.18-.04.65-.75.85-1.2,1.14-8.25,5.21-17.92,9.57-26.44,14.83-6.64,4.09-13.31,8.4-19.37,13.27,9.36-.14,19.75.1,28.84-2.24,11.1-2.86,14.54-11.62,21.82-18.92,1.03-1.03,1.27-1.63,2.86-1.84,3.87-.52,12.42.29,16.74.56,30.36,1.86,60.24,8.55,90.13,13.57-5.71-7.12-16.18-10.46-24.57-13.82Z"/>
      </g>
      <g>
        <path class="cls-1" d="M974.36,667.4c-46.91-4.33-63.15-63.47-39.3-99.08,19.54-29.17,62.51-32.81,86.32-6.93-.61-10.34-.46-20.69-.54-31.1-.05-7.39,1.07-18.32-.76-25.3-2.66-10.13-13.81-12.57-20.11-19.84l51.2-.53v179.65l-25.11.3-3.36-16.49c-6.26,8.5-14.76,14.38-24.94,17.37-2.12.62-6.19,1.75-8.23,1.95-3.79.38-11.33.35-15.15,0ZM983.14,571.47c-37.78,3.87-38.64,65.67.87,68.8,51.11,4.04,50.27-74.04-.87-68.8Z"/>
        <path class="cls-1" d="M367.28,667.4c-45.44-4.59-61.6-60.03-40.84-95.92,18.31-31.65,62.61-36.99,87.86-10.62v-57.18c0-6.47-14.67-12.43-18.55-17.49-.4-.53-1.01-.66-.78-1.57h49.63v179.65l-25.1.3-3.37-16.48c-4.02,5-8.44,9.4-14.02,12.62-6.35,3.67-13.89,6.16-21.25,6.7-3.65.27-10.01.36-13.58,0ZM376.57,571.47c-35.51,3.64-39.88,59.72-3.55,68,52.69,12.01,58.13-73.59,3.55-68Z"/>
        <path class="cls-1" d="M1122.74,667.4c-26.87-2.55-49.66-21.8-54.7-48.46-8.95-47.31,29.13-84.08,76.13-72.96,33.21,7.86,45.09,39.37,41.79,70.77h-89.34c3.34,16.64,19.21,25.66,35.24,26.66,18.09,1.12,33.39-5.54,49.92-11.51-4.56,10.69-10.97,20.49-17.4,30.13-2.51.88-4.99,1.91-7.57,2.62-3.41.94-9.29,2.44-12.65,2.76-5.34.51-16.08.51-21.42,0ZM1156.18,593.77c-.63-19.07-17.1-29.61-35.13-26.5-14.31,2.46-21.62,12.96-24.43,26.5h59.56Z"/>
        <path class="cls-1" d="M521.92,667.4c-41.14-2.3-68.06-34.35-59.84-75.74,11.71-58.98,97.95-65.48,114.55-7.41,3.02,10.58,3.66,21.52,3.28,32.49h-89.34c7.39,29.06,40.74,30.11,64.66,22.59,6.93-2.18,13.35-5.93,20.5-7.45-4.38,10.59-11.35,19.85-16.96,29.78-1.25,1.12-5.16,1.94-6.96,2.45-3.95,1.12-10.82,2.87-14.74,3.28-4.08.43-10.94.23-15.15,0ZM550.13,593.77c-.87-11.97-6.54-21.54-18.31-25.31-20.15-6.46-38.1,4.6-41.25,25.31h59.56Z"/>
        <path class="cls-1" d="M1305.6,496.11c.22,1.94.24,6.44,0,8.36-2.91,22.87-42.14,21.46-41.3-4.98.83-26.01,38.7-26.35,41.3-3.37ZM1281.04,500.81v11.49h-3.13v-24.54h10.19c.22,0,3.4.76,3.79.92,3.64,1.49,3.15,7.32,1.61,10.23-.54,1.03-3.14,3.26-3.07,3.71.08.55,5.09,9.2,5.52,9.67.93,1.01,1.08.57,1.74-.32,5.77-7.75,6.11-19.3-2.16-25.37-15.01-11.03-33.01,5.15-25.15,21.48,4.45,9.23,15.99,11.07,24.51,6.32.49-.62-2.26-2.18-2.88-2.88-3.27-3.71-5.39-10.11-10.98-10.7ZM1281.04,498.72c13.86,1.24,13.85-8.92,0-7.83v7.83Z"/>
        <path class="cls-1" d="M119.64,573.4c27.13,4.06,41.1,30.15,33.81,56-6.79,24.08-29.99,32.74-52.86,34.9l-72.91-.02c.02-13.68-.58-27.33-.54-41.02.07-25.74.42-51.48,0-77.24-.14-8.62,1.08-20.62-.02-28.7-1.41-10.27-17.25-16.76-22.42-24.85l14.35-1.07c31.89,3.6,85.88-8.67,112.78,10.55,21.19,15.14,21.98,50.41-.1,65l-12.08,6.45ZM58.51,561.39c6.01.05,12.03-.05,18.05-.02,10.93.06,22.84,1.66,32.28-5.29,12.57-9.25,9.24-29.3-5.12-34.91-7.89-3.08-15.45-2.05-23.5-2.06l-21.7-.02v42.3ZM58.51,637.63c19.82-1.31,61.87,6.9,65.16-21.82,1.18-10.26-2.67-19.81-12.64-23.63-15.92-6.1-35.77-2.72-52.52-3.64v49.09Z"/>
        <path class="cls-1" d="M778.44,616.22h-89.34c2.76,14.45,15.74,23.67,29.68,25.95,19.36,3.16,37.2-3.48,54.73-10.77.71-.2.95.04.74.74-.88,2.9-4.99,9.63-6.69,12.63-1.66,2.92-8.68,15.06-10.56,16.6-1.57,1.27-8.26,3.08-10.51,3.59-38.45,8.67-80.51-7.16-86.49-49.66-6.53-46.39,31.03-80.52,76.66-69.84,33.13,7.76,45.15,39.5,41.79,70.76ZM748.67,593.25c-.57-18.79-16.82-29.36-34.6-26.49-14.1,2.28-22.84,12.53-24.44,26.49h59.04Z"/>
        <path class="cls-1" d="M908.53,664.27h-29.78c-.69-20.62.93-41.85,0-62.4-.91-19.94-8.18-35.95-31.75-29.66-8.5,2.27-17.88,12.29-17.88,21.3v70.76h-30.3v-94.26c0-10.7-13.31-15.6-20.23-21.52-.38-.32-.99.02-.66-1.19l49.11-.52v17.23c5.08-5.39,9.97-10.88,16.56-14.52,17.54-9.68,43.16-6.25,55.53,10.09,12.95,17.11,8.96,40,8.87,60.02-.07,14.93.06,29.81.55,44.68Z"/>
        <path class="cls-1" d="M601.33,576.27c-1.24-7.93-19.43-19.23-25.61-25.06-.57-.53-4.26-3.9-3.65-4.44l29.26-.52c.22-16.8-1.87-35.38,8.44-49.79,9.99-13.95,27.84-16.95,44.05-16.01,2.15.12,11.94,1.13,13.33,1.82.75.37.92,1.24,1.2,1.94,1.9,4.8,5.36,18.07,6.06,23.19.07.51.3,1.79-.21,1.78-13.08-4.26-33.61-9.11-40.58,6.95-.49,1.14-2,5.42-2,6.36v23.76h27.17v26.11h-27.17v91.65c0,.06-.73.78-.78.78h-28.73c-.06,0-.78-.73-.78-.78v-87.73Z"/>
        <path class="cls-1" d="M274.28,513.35v33.42h31.09c.06,0,.78.73.78.78v24.54c0,.06-.73.78-.78.78h-31.09v52.48c0,.66.49,4.13.65,5.09,3.28,18.83,22.17,12.85,35.39,9.8.14.75-.13,1.28-.41,1.94-3.1,7.28-10.05,14.7-13.45,22.07-1.27,1.42-7.78,2.45-9.92,2.62-26.2,2.08-40.61-10.7-42.07-36.79-1.05-18.68,1.18-37.49-.73-56.19-7.99-10.22-19.59-16.55-28.5-25.83-.22-1.25.57-.65,1.32-.75,9.34-1.29,18.99-.12,28.41-.6l10.76-33.37h18.55Z"/>
        <path class="cls-1" d="M1280,574.97c-14.03-3.81-30.51-3.72-39.62,9.23-2.02,2.88-5.84,10.67-5.84,14.01v65.8c0,.06-.73.78-.78.78h-28.73c-.06,0-.78-.73-.78-.78v-94c0-3.28-1.79-7.17-3.91-9.67-4.66-5.48-12.43-7.54-16.98-13.05l51.2-.53v16.71c8.85-13.51,23.02-20.79,39.38-19.26,1.01.1,6.08.9,6.08,1.76v28.98Z"/>
        <path class="cls-1" d="M208.98,546.77v117.5h-29.78v-96.35c0-7.78-11.79-13.66-15.94-19.06-.4-.52-1.01-.66-.78-1.57l46.5-.52Z"/>
        <path class="cls-1" d="M190.56,489.98c26.96-3.7,30.48,33.23,6.08,35.84-25.97,2.78-29.12-32.68-6.08-35.84Z"/>
      </g>
    </g>
  </g>
</svg>