<?xml version="1.0" encoding="UTF-8"?>
<svg id="Layer_2" data-name="Layer 2" xmlns="http://www.w3.org/2000/svg" viewBox="0 0 927.79 488.83">
  <defs>
    <style>
      .cls-1 {
        fill: #727781;
      }
    </style>
  </defs>
  <g id="Layer_1-2" data-name="Layer 1">
    <g>
      <g>
        <path class="cls-1" d="M749.23,322.33c125.77-11.13,125.07,175.24,2.46,166.18-102.3-7.56-102.36-157.34-2.46-166.18ZM754.66,363.04c-57.52,5.85-44.5,96.98,14.7,83.45,48.86-11.17,38.69-88.88-14.7-83.45Z"/>
        <path class="cls-1" d="M457.85,326.58v34.38c-12.87-2.81-48.59-10.19-56.02,4.18-8.31,16.06,25.08,21.4,34.28,25.23,45.05,18.76,43.74,75.25-.65,92.5-20.05,7.79-54.02,6.97-74.89,1.98-.99-.24-1.74-.32-2.31-1.31v-35.73c17.33,2.69,34.92,7.89,52.56,4.12,14.98-3.2,22.59-16.54,7.49-25.67-10.81-6.53-25.98-8.16-38.02-15.39-34.17-20.48-27.98-70.07,8.52-84.07,22.09-8.47,46.51-4.46,69.05-.22Z"/>
        <path class="cls-1" d="M631.7,327.49v43.42c-3.71-1.54-7.21-3.53-11.06-4.78-39.35-12.81-81.52,12.19-64.78,55.68,11.93,31,50.23,30.96,75.84,17.86v43.42c-27.96,7.89-57.17,8.42-83-6.18-59.26-33.49-51.95-125.7,12.15-149.2,22.9-8.4,47.73-7.04,70.85-.23Z"/>
        <path class="cls-1" d="M207.04,327.49v42.52c-5.02-1.08-9.51-3.63-14.49-4.97-29.95-8.05-62.69,3.16-64.32,37.95-2.05,43.69,46.55,54.94,78.81,36.68v43.42c-29.4,8.48-61.95,8.33-87.95-9.38-48.64-33.14-46.6-110.07,4.37-139.71,25.69-14.94,55.66-14.76,83.58-6.51Z"/>
        <path class="cls-1" d="M303.93,324.78v161.03h-40.29c-.1,0-1.36-1.26-1.36-1.36v-159.67h41.65Z"/>
      </g>
      <g>
        <path class="cls-1" d="M245.98,0c10.24,3.23,16.16,9.45,17.19,20.37l.05,213.52c-2.25,26.01-36.6,27.89-40.81,2.72l.03-218.97c1.2-8.8,8.12-15.14,16.3-17.64h7.24Z"/>
        <path class="cls-1" d="M689.65,0c8.18,2.5,15.11,8.84,16.3,17.64l.03,218.97c-4.22,25.17-38.57,23.29-40.81-2.72l.05-213.52c1.03-10.92,6.95-17.14,17.19-20.37h7.24Z"/>
        <path class="cls-1" d="M927.79,147.46v51.57c-5.75,18.69-32.87,20.84-39.38,1.81-2.38-6.96-2.24-41.68-1.26-50.11,2.77-23.9,34.03-25.93,40.65-3.26Z"/>
        <path class="cls-1" d="M128.96,76.23c11.28-1.46,21.87,6.85,22.89,18.27,2.93,32.74-2.2,69.89-.12,103.09-6.64,24.32-38.66,21.54-40.7-4.41-2.46-31.34,1.81-65.94.15-97.62.74-9.6,8.06-18.07,17.78-19.33Z"/>
        <path class="cls-1" d="M793.54,76.21c13.53-2.05,22.81,8.21,23.81,21.01,2.46,31.34-1.81,65.94-.15,97.62-2.84,26.31-38.54,24.79-40.67,1.05-2.93-32.74,2.2-69.89.12-103.09,1.06-7.79,9.24-15.44,16.89-16.6Z"/>
        <path class="cls-1" d="M350.79,76.23c11.96-1.62,21.88,7.55,22.89,19.18,2.79,32.27-2.09,68.58-.11,101.28-5.08,24.44-38.48,23.12-40.7-2.6-2.74-31.68,2.03-67.35.13-99.44,1.32-9.51,8.03-17.08,17.79-18.41Z"/>
        <path class="cls-1" d="M571.71,76.21c12.88-1.95,22.73,7.66,23.81,20.1,2.74,31.68-2.03,67.35-.13,99.45-3.96,25.01-37.76,24.3-40.68-.77,2.8-31.93-3.66-70.07.14-101.26,1.03-8.43,8.4-16.24,16.87-17.52Z"/>
        <path class="cls-1" d="M462.18,131.39c7.87-.83,17.35,4.19,20.59,11.54,3.41,7.74,3.04,39.7,2.28,49.35-2.33,29.77-39.28,29.26-41.72.9-.81-9.4-1.09-40.34,1.57-48.25,2.43-7.23,9.66-12.74,17.28-13.54Z"/>
        <path class="cls-1" d="M19.44,131.38c12.66-.69,20.92,9.14,21.94,21.02.76,8.87,1.07,41.21-1.39,48.43-6.88,20.1-37.5,16.51-39.42-4.94-.76-8.52-1.07-44.78,1.18-51.36,2.37-6.92,10.45-12.75,17.7-13.15Z"/>
      </g>
    </g>
  </g>
</svg>