<?xml version="1.0" encoding="UTF-8"?>
<svg id="Layer_2" data-name="Layer 2" xmlns="http://www.w3.org/2000/svg" viewBox="0 0 1166.49 345.98">
  <defs>
    <style>
      .cls-1 {
        fill: #727781;
      }

      .cls-2 {
        fill: #a3a6ae;
      }
    </style>
  </defs>
  <g id="Layer_1-2" data-name="Layer 1">
    <g>
      <path class="cls-2" d="M266.28,308.63c-18.65,10.17-37.5,19.18-57.89,25.49-78.67,24.36-184.95,8.55-205.18-84.56C-18.7,148.77,75.59,49.48,163.28,15.91c71.24-27.27,172.79-25.04,211.64,51.23.96,1.88,6.38,13.37,5.85,13.99-.27.32-1.54-.22-1.41.52,2.6,1.27,2.78,2.55,3.56,5.12,1.85,6.07,1.79,9.56,1.96,15.35.01.45,1.35.35,1.55,1.04.52,1.83,1.39,6.67,1.59,8.63.17,1.65-1.84,4.56.42,4.21L425.62,6.25h69.19l-60.33,188.07c-19.76,52.29-62.47,74.29-117.23,67.76-1.19-.14-1.96-.03-2.72-1.21,30.1-25.07,52.26-59.34,59.85-98.13C396.37,50.38,298.9.17,200.82,27.34,131.13,46.64,62.03,105.95,44.75,177.84c-11.9,49.5,2.4,98.61,46.84,125.59,46.53,28.25,107.94,21.43,156.25.6,6.26-2.7,12.27-5.97,18.44-8.82v13.42Z"/>
      <path class="cls-1" d="M602.36,5.46l-28.46,95.53c3.37-.19,5.16-3.63,7.53-5.5,41.06-32.38,122.1-39.01,109.11,33.93l-43.1,134.21h-70.38l.36-3.2,37.55-116.53c-4.69-35.65-50.04-12.86-58.61,8.65l-35.44,111.07h-70.38L532.77,5.46h69.59Z"/>
      <path class="cls-1" d="M286.84,258.89h-66.82c-.55,0-3.56-6.08-3.56-6.71v-13.82l-25.93,14.77c-36.92,19.36-121.16,17.34-102.58-44.78,14.43-48.24,76.01-50.66,116.66-59.59,6.92-1.52,38.91-8.4,42.27-12.28,2.38-2.75,4.09-14.28,1.77-17.12-2.03-2.48-14.93-6.07-18.45-6.44-14.38-1.52-29.48,3.71-39.45,14.1-2.14,2.23-4.06,6.91-7.09,7.2l-63.67-7.19c-.87-1.03,4.15-7.96,5.21-9.4,35.36-47.97,95.69-52.54,150.85-44.17,34.43,5.23,53.26,30.52,44.21,65.23-8.99,34.47-25.74,70.01-33.82,104.4-1.38,5.88-1.5,9.96.4,15.8ZM234.65,172.84c-18.05,5.12-37.47,8.26-54.97,14.98-6.64,2.55-11.73,4.84-16.2,10.67-4.5,5.87-6.74,12.95-2.25,19.61,8.5,12.6,36.09,3.59,46.77-2.79,14.59-8.72,24.16-26.01,26.64-42.47Z"/>
      <path class="cls-1" d="M1130.58,258.89h-67.21c-3.2-6.66-3.78-13.27-2.78-20.53-12.28,6.97-23.39,14.58-36.94,19.17-21.31,7.22-62.57,11.34-80.48-4.55-16.26-14.42-16.33-36.66-6.73-54.9,20.18-38.32,70.67-40.34,108.11-48.39,11.7-2.52,33.14-6.43,43.35-11.19,4.27-1.99,6.26-9.11,6.34-13.47.1-5.68-3.13-7.03-7.72-8.85-21-8.33-44.81-.9-56.91,17.98l-65.86-7.13c8.93-16.95,25.42-32,42.17-41.18,32.27-17.7,84.45-18.57,120.08-11.46,29.45,5.89,45.72,31.19,39.01,60.55-8.24,36.06-25.62,73.5-34.84,109.69-1.11,4.78.11,9.51.44,14.25ZM1079.97,172.05c-14.62,4.19-29.72,7.01-44.28,11.45-14.99,4.56-35.49,10.72-32.37,30.74,2.16,13.89,22.59,11.05,32.18,8.55,25.2-6.57,39.34-25.99,44.47-50.73Z"/>
      <path class="cls-1" d="M811.91,72.57c.09,2.4-.75,4.65-1.37,6.92-10.37,37.4-25.39,73.73-35.72,111.18-.18,26.25,25.92,22.48,41.78,11.71,7.96-5.4,13.92-13.16,17.48-22.02,11.91-29.63,20.45-64.98,30.61-95.76,1.31-3.98,2.41-8.44,4.56-12.03h69.98l-61.28,186.32h-68.4l6.32-23.68c-1.17-1.23-9.06,6.52-10.34,7.43-19.49,13.89-43.24,22.49-67.58,21.02-31.51-1.91-47.67-28.07-38.74-57.69l43.12-133.4h69.59Z"/>
      <path class="cls-1" d="M505.88,298.76c.49-1.59,5.05-1.47,6.56-1.02,2.46.73,17.12,24.35,20.33,28.43.58.74,2.31,2.34,3.16,2.98v-30.4c0-1.73,8.86-2.28,8.68,1.6-1.15,13.16,1.6,29.05.06,41.86-.52,4.33-5.22,2.76-8.73,2.33-6.4-8.08-11.67-18.22-18.21-26.03-.56-.67-3.94-4.33-3.94-1.6v28.03h-7.91v-46.19Z"/>
      <path class="cls-1" d="M650.08,339.93c-14.71-14.14-6.22-42.76,15.18-43.17,24.26-.46,32.94,32.8,13.27,45.68-8.26,5.41-21.29,4.36-28.45-2.52ZM663.83,304.86c-16.1,2.57-15.1,29.98-1.6,32.8,23.49,4.9,23.13-36.24,1.6-32.8Z"/>
      <path class="cls-1" d="M575.31,296.98c34.16-2.68,34.38,53.91-2.41,48.55-25.54-3.73-24.4-46.45,2.41-48.55ZM575.26,304.87c-17.88,2.89-15.3,37.84,6.77,32.81,3.49-.8,6.93-5.3,8.06-8.54,3.87-11.14-.73-26.55-14.82-24.27Z"/>
      <path class="cls-1" d="M720.97,320.47h19.77v24.08c0,1.75-5.02,1.3-6.58.4-.49-.28-.47-1.56-1.04-1.62-1.59-.18-6.25,2.04-8.68,2.33-20.17,2.37-31.08-15.68-25.2-33.84,5.86-18.11,34.35-21,40.7-2.02-8.06,6.08-8.02-3.3-14.17-4.76-15.65-3.73-22.13,9.24-18.83,22.75,2.36,9.67,12.42,12.4,21.16,9.69.89-.28,4.8-2.21,5.14-2.77,1.41-2.31,1.11-6.74-2.34-7.15-6.64-.8-11.22,3.17-9.92-7.07Z"/>
      <path class="cls-1" d="M369.48,305.47c-1.79.55-1.66,9.86-.45,10.71,2.34,1.63,17.74-.84,21.69.45,2.01.66,2.29,7.78-.68,7.78h-21.75v12.63c6.43,2.62,19.09-.97,24.8.9,2.2.72,1.06,5.06,1.3,7h-34.79v-46.19c0-.08,1.1-1.18,1.19-1.18h31.63c1.72,0,1.72,7.9,0,7.9-4.48,0-20.03-.9-22.93,0Z"/>
      <path class="cls-1" d="M462.39,298.37v16.18c0,3.67,10.02,1.06,12.96,2.69,2.38-1.54,9.97.82,9.97-2.69v-16.18h7.91v46.58h-7.91v-18.55c0-.26-1.05-1.2-.79-1.97h-21.35c.26.78-.79,1.71-.79,1.97v18.55h-7.91v-46.58h7.91Z"/>
      <path class="cls-1" d="M443.35,330.8c-2.83,17.81-28.39,20.05-38.24,6.2-14.39-20.23,5.25-49.28,29.63-37.48,2.49,1.2,10.27,8.27,8.32,10.72-.38.47-7.36,2.33-7.88,2.21-1.12-.27-3.08-5.89-7.72-7.24-21.68-6.27-23.85,32.55-4.79,33.21,2.1.07,5.92-1.04,7.58-2.27,4.96-3.67,2-10.24,13.1-5.35Z"/>
      <path class="cls-1" d="M761.3,326.39c-1.05-6.27-12.97-19.03-15.37-25.71-.38-1.07-.63-1.97-.44-3.11,2.69.23,7.12-.75,9.27,1.02,2.35,1.93,6.41,12.62,8.88,15.79.57.73,1.1,1,2.02,1.02.88-.02,1.49-.29,2.03-1.01,2.73-3.65,6.54-15.63,10.79-16.65,1.41-.34,7.03-.68,7.35,1.03.28,1.47-14.26,22.02-15.45,25.61-1.11,4.2.58,17.96-.71,19.81-1.04,1.5-6.4.45-8.35.74-.66-5.65.9-13.17,0-18.55Z"/>
      <path class="cls-1" d="M349.31,298.37c0,1.32.46,7.11-1.19,7.11h-12.26c.43,1.01-.79,2.34-.79,2.76v36.71h-7.91v-36.71c0-.42-1.22-1.76-.79-2.76h-12.26c-1.65,0-1.19-5.79-1.19-7.11h36.37Z"/>
      <path class="cls-1" d="M609.47,344.95v-46.58c2.05.35,7.82-1.06,8.59,1.29,1.2,11.21-1.22,24.51.07,35.46.09.8.36,2.72,1.23,2.72h18.98c1.69,0,1.69,7.11,0,7.11h-28.86Z"/>
    </g>
  </g>
</svg>