<?xml version="1.0" encoding="UTF-8"?>
<svg id="Layer_2" data-name="Layer 2" xmlns="http://www.w3.org/2000/svg" viewBox="0 0 898.52 279.39">
  <defs>
    <style>
      .cls-1 {
        fill: #727781;
      }
    </style>
  </defs>
  <g id="Layer_1-2" data-name="Layer 1">
    <g>
      <path class="cls-1" d="M626.75,14.67h-89.79v85.48l-121.51,76.87-1.37.15c-5.71-3.85-12.89-6.95-18.35-11.01-.65-.49-1.7-1.06-.65-1.76l118.54-78.89-51.68-34.28-122.48,76.73c-5.12-4.41-13.06-7.69-17.96-12-.68-.6-.83-.5-.04-1.17l119.73-76.82L385.56,0l-155.33,98.92c-.91-.21-5.89-14.58-7.02-16.93-21.11-43.86-61.88-65.57-109.75-67.35l-113.46.02v249.28l118.85.02c46.94-2.48,87.31-27.43,106.34-70.75,2.35-5.36,3.68-11.54,5.82-16.92.24-.61-.32-1.03.94-.82l153.76,103.91,151.25-96.74v81.3h169.41v-79.5h-79.62V14.67ZM151.89,148.72c-2.91,17.43-19.94,35.72-38.46,35.72h-27.84v-92.06c9.46.19,19.02-.5,28.43.6,28.53,3.33,42.38,28.64,37.86,55.73Z"/>
      <polygon class="cls-1" points="819.5 184.44 819.5 14.67 729.11 14.67 729.11 263.95 898.52 263.95 898.52 184.44 819.5 184.44"/>
    </g>
  </g>
</svg>