<?xml version="1.0" encoding="UTF-8"?>
<svg id="Layer_2" data-name="Layer 2" xmlns="http://www.w3.org/2000/svg" viewBox="0 0 1348.85 207.36">
  <defs>
    <style>
      .cls-1 {
        fill: #727781;
      }

      .cls-2 {
        fill: #e3534f;
      }

      .cls-3 {
        fill: #a3a6ae;
      }
    </style>
  </defs>
  <g id="Layer_1-2" data-name="Layer 1">
    <g>
      <path class="cls-1" d="M1348.85,184.69v.53l-38.95-.07-16.66-41.01-66.75.28-15.8,40.8h-36.38l69.07-165.49,36.16-.28,1.57.54,67.74,164.71ZM1237.06,116.29h45.88l-22.42-57.88-23.46,57.88Z"/>
      <polygon class="cls-2" points="129.19 .53 129.19 127.33 128.67 127.33 128.14 1.58 128.67 0 129.19 0 129.19 .53"/>
      <path class="cls-1" d="M360.68,185.21V19.99c41.27,1.87,91.4-7.85,126.28,19.48,39.84,31.21,37.88,101.47-4.52,129.65-35.54,23.63-81.41,14.13-121.76,16.1ZM398.12,156.27c21.97-.1,46.95,2.63,64.58-13.17,21.24-19.04,20.48-66.17-2.93-83.34-17.99-13.19-40.55-10.7-61.65-10.83v107.34Z"/>
      <path class="cls-1" d="M720.83,19.99v28.15c0,.06-.74.79-.79.79h-78.83v35.78h70.13v28.94h-70.13v43.15h82.26v28.41h-119.7V19.99h117.06Z"/>
      <path class="cls-1" d="M1133.71,19.99v28.94h-55.37v136.28h-37.44V48.93h-55.1c-.06,0-.79-.73-.79-.79v-28.15h148.7Z"/>
      <polygon class="cls-1" points="862.67 19.99 862.67 156.8 933.86 156.8 933.86 185.21 825.24 185.21 825.24 19.99 862.67 19.99"/>
      <polygon class="cls-1" points="129.19 .53 248.9 184.42 244.48 183.04 129.19 127.33 129.19 .53"/>
      <path class="cls-1" d="M129.72,153.12l128.67,53.93c-43.04.48-86.14.26-129.19.26l.53-54.2Z"/>
      <path class="cls-3" d="M128.67,153.12v54.2c-42.88,0-85.8.22-128.67-.26l127.09-53.68c.5-.24,1.05-.17,1.57-.25Z"/>
      <path class="cls-1" d="M267.74,169.56c12.97-2.22,14.39,15.98,2.98,17.2-10.86,1.16-13.19-15.45-2.98-17.2ZM264.36,182.93c4.52,4.62,12.38,1.71,12.52-4.82.22-10.5-16.63-9.31-14.05,1.88.18.8.96,2.36,1.53,2.94Z"/>
      <path class="cls-3" d="M129.72,153.12l-.53,54.2h-.53v-54.2c.11-.02.3-.5.64-.39l.41.39Z"/>
      <path class="cls-3" d="M128.67,127.33c-39.64,19.66-79.69,38.66-119.69,57.62L128.14,1.58l.53,125.76Z"/>
      <path class="cls-1" d="M266.82,173.11c2.81-.11,8.09-.69,6.65,3.71-.42,1.28-1.92,1.54-1.94,1.85-.08,1.13,2.13,2.85,2.15,4.17-1.84.65-2.38-3.03-3.69-3.68-.47-.23-1.92-.45-2.11-.26-.51.49,1.07,4.79-1.06,4.21v-10ZM267.87,177.32c5.85.95,5.88-4.11,0-3.16v3.16Z"/>
    </g>
  </g>
</svg>