<?xml version="1.0" encoding="UTF-8"?>
<svg id="Layer_2" data-name="Layer 2" xmlns="http://www.w3.org/2000/svg" viewBox="0 0 1349.4 320.83">
  <defs>
    <style>
      .cls-1 {
        fill: #727781;
      }
    </style>
  </defs>
  <g id="Layer_1-2" data-name="Layer 1">
    <g>
      <path class="cls-1" d="M0,244.05L36.02,0c52.72,2.59,112.68-1.02,156.59,33.36,66.85,52.34,30.51,152.9-34.67,189.47-9.39,5.27-47.2,21.22-56.15,21.22H0ZM73.85,188.43c99.12,8.48,132.19-123.68,18.02-129.22l-18.02,129.22Z"/>
      <path class="cls-1" d="M495.4,244.05l1.79-10.75c-15.05,6.81-24.83,13.52-42.25,14.41-112.82,5.73-84.32-178.51,25.21-170.59,7.04.51,20.21,3.11,26.58,5.82,6.08,2.59,8.04,7.3,13.88,8.59l1.81-14.35h61.25l-25.22,166.88h-63.05ZM473.35,126.09c-55.73,2.07-44.1,87,10.91,73.66,45.1-10.93,34.9-75.37-10.91-73.66Z"/>
      <polygon class="cls-1" points="810.66 77.17 644.56 320.83 580.07 319.39 648.35 218.07 596.29 77.19 662.69 75.62 689.84 155.35 694.45 159.71 745.81 77.17 810.66 77.17"/>
      <path class="cls-1" d="M1172.76,247.64l44.94-219.94c.45-3.74-.05-2.14-2.61-2.53-7.32-1.1-15.12-1.72-22.53-1.83l.8-9.08,78.46-8.86-28.8,136.36c3.89.38,6.49.31,10-1.68,9.05-5.15,33.41-30.52,43.22-39.49,6.04-5.53,17.16-21.62,26.94-21.62h26.12c1.82,17.4-21.06,21.03-33.64,28.4-15.82,9.27-33.1,21.68-43.24,37.11,9.5,15.18,19.9,29.98,30.37,44.51,7.95,11.03,29.63,34.92,34.04,45.05,1.84,4.24,2.12,7.26,1.66,11.81h-40.53c-.57,0-1.93,1.84-3.34,1.49-4.51-.53-43.48-65.38-51.2-74.57-1.36-1.62-1.93-4.66-4.89-4.07l-17.14,78.94h-48.64Z"/>
      <path class="cls-1" d="M1055.66,17.95l-8.4,52.11-13.22-.06c1.6-9.85-5.48-30.72-15.67-33.74-3.96-1.17-46.25-1.3-47.58.67l-35.97,181.11c-.52,15.99,15.51,13.46,27.17,13.46l-1.8,14.34h-111.69l2.06-12.3c15.44-3.81,26.34,1.2,33.03-16.45l38.77-181.19h-47.74c-.84,0-12.12,8.42-13.5,9.88-8.83,9.32-10.03,27.85-25.22,24.21l10.8-52.03h208.97Z"/>
      <path class="cls-1" d="M324.26,77.17l-5.39,23.33c15.34-19.24,39.61-22.43,63.04-23.33l-7.22,57.42c-73.34-32.25-71.5,63.78-79.25,109.47h-59.45l32.43-166.88h55.85Z"/>
      <path class="cls-1" d="M1064.76,163.4c-8.68,52.25,11.47,67.8,59.33,47.43,5.15-2.19,16.8-13.7,18.13-1.67.62,5.58-16.5,14.97-21.67,17.88-29.96,16.83-76.44,29.16-96.96-7.56-32.43-58.04,54.91-168.36,115.04-136.12,20.57,11.03,23.22,32.97,9.66,51.07-19.98,26.68-52.57,28.69-83.52,28.96ZM1068.27,150.72c20.73,1.42,38.35-3.32,48.98-22.07,5.59-9.85,14.38-37.26-3.03-37.3-21.85-.05-42.21,40.72-45.95,59.37Z"/>
    </g>
  </g>
</svg>