<svg version="1.2" xmlns="http://www.w3.org/2000/svg" viewBox="0 0 1538 353" width="1538" height="353"><defs><clipPath clipPathUnits="userSpaceOnUse" id="cp1"><path d="m-271-8168h15630v8792h-15630z"/></clipPath></defs><style>.a{fill:#727781}.b{fill:#727781}.c{fill:none}</style><g clip-path="url(#cp1)"><path fill-rule="evenodd" class="a" d="m425.4 175.8v-61.8c0-32 16.5-57.6 45-69.4 27.9-11.7 55.7-5.4 79.7 17.6 14 13.5 21.2 30.1 21.7 49.3 0.4 21.5 0 43 0.2 64.5 0.2 8.5-3.8 11.7-12 11.7-29.4-0.3-58.8 0.2-88.2-0.3-7.2 0-9.1 2.1-8.8 9 0.4 15.2 0 30.5 0.2 45.9 0.2 19.7 14.7 34.3 34.4 35.2 19.4 0.9 34.8-13 36.6-32.7 0.3-3.2 0.3-6.3 0.5-9.4 0.4-11.5 7.9-19.3 18.8-19.5 10.8-0.2 19.6 7.6 20.1 19.2 0.9 28.9-10 52.5-35.5 67.9-24 14.6-49.6 15-74 1.6-25.1-13.7-38.5-35.4-38.2-64.3-0.3-21.5-0.5-43-0.5-64.5zm74.7-25.8h29.4c3.8 0 6.8-0.2 6.5-5.3-0.2-12.8 0.5-25.6-0.4-38.3-1.1-16.6-19-30.5-36.7-29.8-17.6 0.4-34.3 15-34.8 31.1-0.5 12.1 0.7 24.2 0.5 36.3 0 5.4 2.4 6 7 6 9.5-0.2 19 0 28.5 0zm539.1-39.8c0.2-39 32.8-70.3 73.3-70.3 40.7 0 74.2 31.3 74.2 70.5 0.2 44.3 0.2 88.5 0 132.8 0 38.5-33.2 70.3-73.3 70.6-40.9 0-74-31.4-74.2-70.6zm37.3 64.3c0.3 23.1-1.8 46.1 0.5 69 1.3 14.3 8.4 25.5 22.8 30.2 26.1 8.7 48.5-8.5 48.7-37.6q0.3-59.8 0-119.6c0-7.2-0.7-14.4-4.3-20.8-7.7-14.2-23.3-21.5-39.2-18.4-15.8 3.1-28 15.4-28.5 31.8-0.6 21.7 0 43.4 0 65.4zm-471.7 3.6v-117.8c0-9.9 5.7-18.2 14.1-20 8.5-2 16.2-0.6 21.9 7 3.4 4.2 3.4 9.2 3.4 14.3v79.5c0 2.5-0.2 4.9 0 7.4 0.4 5.8 3.2 10.3 9.3 11.4 5.8 0.9 9.5-2.2 12-6.9 13.3-24.4 22.6-50.6 35-75.5 4.1-8.3 7.3-17.2 11.8-25.5 4.5-8.1 11.1-13.5 21.5-12.1 12 1.8 19 13.6 13.8 25.5-15.9 35.6-31.9 71.2-48.4 106.4-2.1 4.5-1.8 7.6 0 11.9 15.8 34.5 31.6 69.2 47 103.9 5 11 1.6 20.8-7.4 24.8-10.9 5-21.5 1.6-27.4-8.9-1.6-2.9-3.2-6.1-4.5-9.2-12.9-28-25.6-56.2-38.5-84.2-3.4-7.2-5.9-16.8-16.7-14.3-10.5 2.4-8.2 11.8-8.2 19.4-0.2 26.9 0.2 53.6-0.2 80.4-0.2 15.3-12.7 24.2-26.3 19.3-9.7-3.6-12.6-11.2-12.6-20.8 0.4-38.5 0.4-77.3 0.4-116zm358.6 24.6v-87.8c0-22.4-14.7-37.8-35.5-38.1-21-0.2-36.9 15.5-36.9 37.9-0.2 59.8 0 119.6 0 179.6 0 10.8-5.4 17.9-14.7 19.9-8.4 2.1-17.4-2.2-21.5-9.8-1.8-3.2-2-6.5-2-10.1 0-62.3-1.4-124.7 0.7-187 2-57.1 63.8-83.1 109-59.1 27.2 14.5 39.6 37.6 39.8 67.4 0.3 58.7 0 117.1 0 175.8 0 6.9-1.1 13.9-6.8 18.6-6.1 4.9-13.1 6.3-20.3 2.9-7.5-3.4-11.6-9.2-11.6-17.7-0.2-30.9-0.2-61.6-0.2-92.5zm260.6-25.5c0-35.9 0.3-71.7-0.2-107.5-0.2-20.6 2.7-31.8 30.1-30 17.7 1.1 35.5-1.8 53 2 41.1 8.9 69.9 46.3 68.3 89.3-1.6 40.8-34.2 75.7-75.6 81.6-7.9 1.1-15.8 1.1-23.7 1.1-12.9 0-13.2 0.2-13.2 13.4v64.5c0 14.4-7 22.9-18.7 23.1-11.8 0.2-19.7-8.1-20-22.4-0.2-34.3 0-68.5 0-102.8zm38.7-51.5v23.3c0 28.9 0 29.3 29.2 25.7 20.2-2.4 34.6-13 41.4-32.2 6.8-19.1 2.5-36.1-11.3-51.1-14.9-16.3-34.6-15.9-54.5-14.5-5.2 0.4-5 4.7-5 8.5 0.5 13.6 0.5 27.1 0.2 40.3zm205.9 189.5c-35.5-0.5-64-27.6-66.3-63-0.9-12.3 6.4-21.3 17.7-22.4 11.3-1.1 19.7 6.3 21 19.1 1.1 13.4 6.8 23 20.6 27.1 12.2 3.5 22.9 0.4 30.8-9 8.6-10.1 8.8-21.7 2.9-33.4-7.9-15.6-21.3-26.8-34.4-38.3-14.5-12.5-29.6-24.6-41.2-39.8-17.8-23.5-25.3-49.1-11.9-77.7 12.2-26.3 44.5-42.4 74.2-36.8 31.4 6.1 53.6 30.5 54.9 60.5 0.5 13.2-5.8 21.7-16.9 22.6-12.5 0.9-19.7-5.8-21.3-19.5-1.6-12.7-7.2-22.4-20.6-26.2-11.5-3.3-21.5-0.6-29.4 7.9-9 9.8-9.5 21.5-3.8 33.1 9.2 19 25.1 32.5 41.1 45.7 12.7 10.5 24.7 21.3 34.2 34.7 9.5 13.7 16.1 28.2 17 44.8 2 38.5-29.9 71.2-68.6 70.6zm-645.9-138.7c0 39.2 0.2 78.4 0 117.6 0 15.5-13.6 24.9-26.9 18.6-7.5-3.4-11.3-9.4-11.3-17.9v-236.3c0-12.1 8.1-19.3 19.6-19 11.4 0.2 18.4 7.3 18.6 19.2 0.2 39.4 0 78.6 0 117.8zm-644.6 175.8c-0.9-1.3-2.5-0.9-3.6-1.3-10.2-2.7-16.7-12.3-15.4-22.2 1.6-10.5 10.7-18.1 21.1-17.9 10.6 0.2 19.4 8.3 20.6 18.6 1.1 9.8-5.9 19.2-16.1 21.7-1.1 0.2-2.7-0.4-3.6 1.1zm2.9-351.6c1.4 1.4 3.4 0.9 5.2 1.4 10.4 2.9 16.5 12.5 14.7 23.2-1.6 9.9-11.3 17.5-21.2 16.8-10.9-0.6-19.5-8.7-20-19-0.6-10.5 6.8-19.7 17.5-21.5 0.9-0.2 2 0.5 2.5-0.7 0.4-0.2 0.9-0.2 1.3-0.2z"/><path class="b" d="m359.8 181.2c-1.1 0.4-0.9 1.5-1.4 2.4-3.8 9.2-11.9 13.9-22.1 13-8.6-0.9-16.1-7.6-17.7-16.3-2-10.6 4.8-20.9 15.4-23.5 10.9-2.7 22 3.5 25.4 13.8 0.2 0.7-0.3 1.6 0.9 1.8-0.5 2.9-0.5 5.9-0.5 8.8z"/><path fill-rule="evenodd" class="a" d="m194 186.1c14.9 14.8 30.1 29.6 45 44.3 10.2 10.1 20.6 20.2 30.8 30.3 1.3 1.1 2.7 2.7 0.9 4.2-1.8 1.8-3.4 0.7-5-0.9-10-9.6-19.7-19.2-29.7-28.9-14.7-14.3-29.4-28.8-44.1-43.2-0.9-0.9-1.6-2.4-3.4-1.8 5.2 12.6 10.4 25.1 15.6 37.9 0.3 0.7 0.7 1.3 1 2 0.4 1.6 0.6 3.1-1.4 4-2 0.7-2.9-0.2-3.6-2q-4.1-9.7-8.2-19.5c-2.9-7.1-5.9-14.3-9.5-21.3v108.4c0 1.6-1.1 2.5-2.7 2.5-1.6 0-2.5-0.9-2.5-2.5v-107.9c-1.6 0.9-1.6 2.2-2 3.4-5 11.8-10 23.7-14.7 35.6-0.2 0.6-0.5 1.1-0.7 1.5-0.7 1.6-1.8 2.7-3.8 1.8-1.9-0.6-1.9-2.2-1.4-3.6 0.9-2.4 2-4.9 2.9-7.3q6.2-14.8 12.3-29.6c0.4-0.9 1.1-1.8 0.6-3.6-2.9 2.9-5.8 5.6-8.8 8.3-22.2 21.5-44.3 43.2-66.5 64.7-0.7 0.7-1.1 1.1-1.8 1.8-1.4 1.4-3 2-4.5 0.7-1.6-1.6-0.7-3.2 0.6-4.5 6.8-6.7 13.6-13.2 20.4-19.9 18.3-17.9 36.7-35.6 55-53.6 0.4-0.4 0.9-0.9 1.3-1.5-1.5-0.7-2.7 0.2-3.8 0.6-12.2 5-24.4 9.9-36.7 15.1-1.5 0.6-2.9 1.3-4.3 0-1.5-1.6-0.6-3.6 2.3-4.8 12.4-5.1 25.1-10.3 37.6-15.2 1.1-0.4 2.2-1.1 3.4-2.2h-111.8c-1.6-0.2-2.5-1.1-2.5-2.7 0-1.4 0.9-2.2 2.3-2.5 1.1-0.2 2.5-0.2 3.6-0.2h106.1c-0.5-1.6-1.6-1.6-2.5-2-12-4.7-23.8-9.6-35.7-14.3-0.7-0.3-1.2-0.5-1.9-0.7-1.8-0.7-3.1-1.8-2.2-3.8 0.9-2 2.7-1.8 4.3-1.1 7.2 2.9 14.2 5.8 21.5 8.5 6.3 2.4 12.6 4.9 19 7.6h0.9c-0.2-0.2-0.2-0.5-0.5-0.7l-33.9-33.6c-12.9-14.3-27.2-28.2-41.4-42.1-1.4-1.3-2.5-2.9-0.9-4.7 1.6-1.6 3.2-0.4 4.7 0.9 13.6 13.4 27.4 26.9 41 40.1 11.5 11.4 23.1 22.6 34.8 34 0.5 0.5 1.2 0.9 1.6 1.6 0.9-1.6-0.2-2.7-0.7-3.8-4.9-12.3-9.9-24.4-15.1-36.7-0.9-2.1-1.6-4.1 1.6-5 2.2-0.4 2.9 1.4 3.6 2.9 5 11.9 9.7 23.8 14.7 35.7 0.4 1.1 0.7 2.4 2.3 3.5v-107.5c0-1.5 1.1-2.4 2.4-2.6 1.4 0 2.5 0.8 2.8 2.4v108.4c0.2 0 0.4 0 0.6 0.2 2.7-6.2 5.5-12.5 8-18.8 2.9-6.7 5.6-13.6 8.5-20.4 1-2 1.6-4.2 4.3-3.3 3 1.1 1.6 3.3 0.7 5.1q-7.8 18.8-15.6 37.7c-0.2 0.6-0.9 1.1-0.4 2 1.1 0.4 1.5-0.7 2.2-1.1 19.5-19.1 38.9-37.9 58.6-56.9 5.7-5.6 11.3-11 17-16.6 1.3-1.3 2.9-3.1 5-1.1 2.2 2.2 0.2 3.6-1.4 5.1-25.3 24.7-50.9 49.5-76.2 74.2 1.8 0.9 3.1-0.3 4.5-0.9 11.8-4.7 23.3-9.4 34.8-14.4 0.7-0.2 1.4-0.4 2.1-0.9 1.6-0.6 2.9-0.2 3.6 1.2 0.9 1.7-0.2 3.1-1.8 3.8-3.9 1.5-7.9 3.1-11.8 4.9-9.9 4-19.9 8.3-29.6 12.3-2.5 0.9-5 2-7.9 2.9 2.4 1.4 4.5 2.3 6.7 2.7 12.5 5.2 24.9 10.1 37.1 15.2 1.6 0.7 3.4 1.4 5 2.1 1.6 0.6 3 1.5 2.3 3.5-0.7 2.1-2.5 2.1-4.3 1.4-8.4-3.2-17-6.5-25.3-9.9-4.8-2-9.8-3.8-14.8-5.6-0.4-0.4-0.9-0.6-1.5-0.2 0.4 0.2 0.6 0.5 0.9 0.9zm-99.9-23.7c-11.6 0-20.9-9.1-20.9-20.3 0-11.2 9.3-20.3 20.9-20.3 11.6 0 20.9 9.1 20.9 20.3 0 11.2-9.3 20.3-20.9 20.3zm-25.9-75.3c-11.5 0-20.8-9.1-20.8-20.4 0-11.2 9.3-20.4 20.8-20.4 11.5 0 20.8 9.2 20.8 20.4 0 11.3-9.3 20.4-20.8 20.4zm76.7 194c-11.5 0-20.8-9.2-20.8-20.4 0-11.3 9.3-20.4 20.8-20.4 11.5 0 20.8 9.1 20.8 20.4 0 11.2-9.3 20.4-20.8 20.4zm71.5 0c-11.5 0-20.8-9.2-20.8-20.4 0-11.3 9.3-20.4 20.8-20.4 11.5 0 20.8 9.1 20.8 20.4 0 11.2-9.3 20.4-20.8 20.4zm49.7-119.4c-11.5 0-20.8-9.1-20.8-20.4 0-11.3 9.3-20.4 20.8-20.4 11.5 0 20.9 9.1 20.9 20.4 0 11.3-9.4 20.4-20.9 20.4zm-245.2 34.9c-11.5 0-20.8-9.1-20.8-20.4 0-11.2 9.3-20.3 20.8-20.3 11.5 0 20.8 9.1 20.8 20.3 0 11.3-9.3 20.4-20.8 20.4zm271.8-109.3c-11.6 0-20.9-9.1-20.9-20.3 0-11.3 9.3-20.4 20.9-20.4 11.6 0 20.9 9.1 20.9 20.4 0 11.2-9.3 20.3-20.9 20.3zm-225 219.1c-11.5 0-20.8-9.1-20.8-20.4 0-11.3 9.3-20.4 20.8-20.4 11.5 0 20.8 9.1 20.8 20.4 0 11.3-9.3 20.4-20.8 20.4zm224.6 0.2c-11.6 0-21-9.1-21-20.4 0-11.3 9.4-20.4 21-20.4 11.5 0 20.9 9.1 20.9 20.4 0 11.3-9.4 20.4-20.9 20.4zm-148.1-193.7c-11.5 0-20.8-9.1-20.8-20.4 0-11.3 9.3-20.4 20.8-20.4 11.5 0 20.8 9.1 20.8 20.4 0 11.3-9.3 20.4-20.8 20.4zm71.3-0.3c-11.6 0-20.9-9.1-20.9-20.3 0-11.3 9.3-20.4 20.9-20.4 11.5 0 20.8 9.1 20.8 20.4 0 11.2-9.3 20.3-20.8 20.3zm51.1 118.7c-11.5 0-20.8-9.1-20.8-20.3 0-11.3 9.3-20.4 20.8-20.4 11.5 0 20.8 9.1 20.8 20.4 0 11.2-9.3 20.3-20.8 20.3zm-172.5 0.9c-11.6 0-20.9-9.1-20.9-20.5 0-11.3 9.3-20.5 20.9-20.5 11.6 0 20.9 9.2 20.9 20.5 0 11.4-9.3 20.5-20.9 20.5z"/><path class="b" d="m194.4 179.2c-2.2-0.5-4.3-1.4-6.8-2.7 3-1.2 5.5-2 8-2.9 1.8 0 3.6 0.2 5.4 0.2h102.2c2.3 0 5.7-0.9 5.7 2.9 0 3.4-3.4 2.5-5.4 2.5h-104.1c-1.8-0.3-3.4-0.3-5 0z"/><path class="c" d="m194 186.1c-0.3-0.2-0.5-0.7-0.7-0.9 0.7-0.4 1.1-0.2 1.6 0.2-0.5 0-0.7 0.5-0.9 0.7zm-27.4-18.8c0.2 0.2 0.2 0.4 0.4 0.7h-0.9c0-0.3 0.3-0.5 0.5-0.7z"/></g></svg>
