<?xml version="1.0" encoding="UTF-8"?>
<svg id="Layer_2" data-name="Layer 2" xmlns="http://www.w3.org/2000/svg" viewBox="0 0 1756.61 201.06">
  <defs>
    <style>
      .cls-1 {
        fill: #727781;
      }

      .cls-2 {
        fill: #a3a6ae;
      }
    </style>
  </defs>
  <g id="Layer_1-2" data-name="Layer 1">
    <g>
      <g>
        <rect class="cls-2" x="440.54" y="74.36" width="80.79" height="52.33"/>
        <rect class="cls-2" x="238.91" y="74.36" width="80.1" height="52.33"/>
        <rect class="cls-2" x="340.41" width="78.72" height="52.33"/>
        <rect class="cls-2" x="340.41" y="148.73" width="78.72" height="52.33"/>
        <path class="cls-2" d="M238.91,53.02c-.78-17.99,8.86-40.75,25.09-49.69,1.16-.64,6.96-3.33,7.71-3.33h46.26c.07,0,1.04.96,1.04,1.03v50.95c0,.07-.96,1.03-1.04,1.03h-79.06Z"/>
        <path class="cls-2" d="M521.32,148.73c-.24,18.21-8.98,40.73-25.6,49.86-.92.51-4.51,2.47-5.12,2.47h-50.06v-52.33h80.79Z"/>
        <path class="cls-2" d="M319.01,148.73v52.33h-50.06c-.95,0-9.37-5.44-10.71-6.53-12.53-10.24-19.97-29.81-19.33-45.8h80.1Z"/>
        <path class="cls-2" d="M521.32,52.33h-80.79V1.03c0-.07.96-1.03,1.04-1.03h46.95c.37,0,5.95,2.43,6.78,2.87,16.44,8.7,25.74,31.62,26.01,49.46Z"/>
      </g>
      <g>
        <path class="cls-1" d="M556.54,2.07l150.21-.03c26.58.82,56.64,3.86,66.44,32.9,4.35,12.9,5.46,42.17,1.73,55.1-2.64,9.14-7.84,15.54-14,22.54,5.66,2.14,9.84,7.41,11.77,13.06.52,1.53,2.05,7.06,2.05,8.29v65.07h-46.95v-69.2c0-.92-2.54-4.73-3.48-5.48-1.22-.96-5.82-2.44-7.22-2.44h-112.21v77.12h-48.33V2.07ZM604.87,79.18h113.59c4.18,0,8.65-3.5,9.69-7.55.92-3.59.8-16.62-.91-19.78-1.65-3.04-6.08-5.71-9.46-5.71h-112.9v33.05Z"/>
        <path class="cls-1" d="M1538.43,2.07v44.07h-145.69v33.05h100.47c.07,0,1.04.96,1.04,1.03v41.66h-101.5v33.05h146.39v44.07h-194.72V2.07h194.03Z"/>
        <path class="cls-1" d="M1310.56,198.99h-48.33V59.56c0-1.56-2.58-7.23-3.78-8.63-1.3-1.52-6.58-4.8-8.31-4.8h-111.52v152.86h-48.33V2.07h157.08c37.84,2.13,59.49,22.53,63.18,60.26v136.67Z"/>
        <polygon class="cls-1" points="217.51 2.07 217.51 46.13 48.33 46.13 48.33 79.18 194.03 79.18 194.03 121.87 48.33 121.87 48.33 198.99 0 198.99 0 2.07 217.51 2.07"/>
        <polygon class="cls-1" points="982.58 2.07 982.58 46.13 895.57 46.13 895.57 198.99 847.24 198.99 847.24 46.13 801.67 46.13 801.67 2.07 982.58 2.07"/>
        <path class="cls-1" d="M1742.81,2.07v44.07h-87v152.86h-48.33V46.13h-45.57V3.1c0-.07.96-1.03,1.04-1.03h179.87Z"/>
        <path class="cls-1" d="M1054.39,198.99h-48.33V2.07h47.3c.07,0,1.04.96,1.04,1.03v195.89Z"/>
        <path class="cls-1" d="M1749.47,191.86c-21.83,22.12-56.23-10.31-34.99-33.17,21.87-23.53,57.38,10.48,34.99,33.17ZM1717.51,159.99c-18.61,18.11,6.87,47.88,27.7,31.41,23.03-18.2-7.13-51.44-27.7-31.41Z"/>
        <path class="cls-1" d="M1738.32,161.12c6.41,1.13,6.68,10.3,1.73,13.76,4.59,1.48,2.71,8.58,4.14,12.4-.9-.16-3.77.3-4.11-.03-1.18-1.14.51-10.98-3.14-10.98h-10.01v11.02h-3.45v-26.16c4.48.55,10.6-.75,14.85,0ZM1726.93,172.82h10.7c2.53,0,2.91-8.26,0-8.26h-10.7v8.26Z"/>
      </g>
    </g>
  </g>
</svg>