<?xml version="1.0" encoding="UTF-8"?>
<svg id="Layer_2" data-name="Layer 2" xmlns="http://www.w3.org/2000/svg" viewBox="0 0 2312.31 371.99">
  <defs>
    <style>
      .cls-1 {
        fill: #727781;
      }

      .cls-2 {
        fill: #a3a6ae;
      }
    </style>
  </defs>
  <g id="Layer_1-2" data-name="Layer 1">
    <g>
      <path class="cls-1" d="M20.31,15.19l66.17,70.88c-5.07,3-27.7,22.47-26.79,27.77.87,5.08,42.89,44.36,50.14,50.37,47.61,39.48,100.41,66.19,162.92,73.39,26.15,3.01,47.54,1.34,73.53-2.44-27.49,31.26-155.35,118.4-194.8,132.02-23.89,8.25-28.17,6.72-45.45-10.98C45.48,294.13,4.85,140.55.72,55.49-.6,28.32-2.62,26.88,20.31,15.19Z"/>
      <path class="cls-2" d="M20.31,15.19c57.63-29.37,136.78-10.61,194.89,9.73,26.78,9.37,55.15,21.31,79.6,35.5-56.63-1.47-119.13-3.95-174.03,12.18-8.99,2.64-26.63,8.93-34.29,13.47L20.31,15.19Z"/>
      <path class="cls-1" d="M544.8,149.61h-90.68v85.54h93.13c-5.66-6.86,2.07-34.22-3.68-34.22h-45.34v-17.11h67.4c.26,0,3.68,3.41,3.68,3.67v36.66c0,.84-2.57,15.28-2.97,16.59-3.08,10.25-18.49,13.09-27.71,13.91-18.03,1.61-81.95,2.2-96.12-4.27-3.98-1.82-8.04-6.06-9.35-10.23-2.94-9.36-2.61-76.96-1.15-89.39,1.32-11.22,6.99-17,18.38-18.33,18.82-2.19,82.48-2.65,100.4.19,4.84.77,12.79,5.26,14.78,9.7.8,1.79,3.64,17.19,3.43,18.08-1.75,7.42-31.82,7.3-24.2-10.81Z"/>
      <path class="cls-1" d="M732.29,132.5c1.56.33,7.3,4.53,8.63,6.06,7.23,8.34,9.71,57.13-4.02,64.52l-25.42,8.82c10.85,12.51,26.33,21.67,38.03,32.97,2.86,2.76,6.82,5.27,6.05,9.82-8.63-1.12-21.59,2.26-29.35-1.25-6.4-2.9-44.09-45.17-47.84-45.17h-35.54v46.44c-4.08,0-22.06,1.43-22.06-3.67v-118.53h111.52ZM642.84,188.72h77.2c5.56,0,5.56-39.1,0-39.1h-77.2v39.1Z"/>
      <path class="cls-1" d="M2159.95,133.73c1.56-5.01,14.49-5.07,18.56-1.39,6.7,5.46,55.8,78.62,59.83,75.93l48.97-72.19c3.47-6.39,17.11-8.52,22.31-4.94,5.52,3.8.56,103.02,2.29,117.46-1.54,9.93-14.5,5.21-22.06,6.11v-92.87l-52.73,73.54-6.32-1.81-51.24-71.73v89.2c0,4.72-15.64,3.88-19.61,3.67v-120.98Z"/>
      <path class="cls-1" d="M1359.73,200.94c-20.53-3.59-19.88-33.33-17.28-49,2.19-13.22,5.51-18.28,19.58-19.6,17.95-1.69,68.94-2.32,85.79.31,14.94,2.33,17.56,16.06,16.09,29.19-14.19-.41-19.55,4.7-17.17-12.23h-85.78v31.77h89.46c1.47,0,9.64,6.5,11.09,8.5,7.67,10.59,8.5,52.53-3.99,59.68-12.75,7.29-75.68,6.6-92.57,4.84-26.18-2.72-25.61-9.48-28.48-33.9,16.9.96,25.27-6.54,22.05,14.65h88.23v-34.22c-26-3.2-62.34,4.31-87.01,0Z"/>
      <path class="cls-1" d="M1766.58,132.5c17.32,3.69,15.95,45.99,12.96,59.36-3.16,14.11-17.11,13.33-28.04,16.07-2.44.61-7.8-.93-5.73,3.97,2.58,6.13,30.95,26.13,38.03,32.97,2.86,2.76,6.82,5.27,6.05,9.82-8.63-1.12-21.59,2.26-29.35-1.25-6.3-2.85-44.54-45.17-47.84-45.17h-35.54v46.44c-4.08,0-22.06,1.43-22.06-3.67v-118.53h111.52ZM1677.12,191.16h72.3c12.67,0,12.66-43.99,0-43.99h-72.3v43.99Z"/>
      <path class="cls-2" d="M346.28,235.15c-25.99,3.78-47.37,5.45-73.53,2.44-8.57-26.57-26.81-52.6-44.19-74.47-6.97-8.78-17.89-18.2-24.47-26.92-1.46-1.93-4.93-4.23-1.16-6.18,36.89,5.04,143.4,46.42,154.57,83.07,4,13.13-5.23,15.24-11.22,22.06Z"/>
      <path class="cls-1" d="M1157.53,254.7v-122.2h91.91c1.28,0,15.74,5.14,18.15,6.34,40.27,20.09,38.21,93.19-4.7,109.72-5.84,2.25-27.39,6.14-33.06,6.14h-72.3ZM1177.13,235.15h62.5c.98,0,16.29-5.22,18.2-6.29,18.58-10.39,21.42-44.96,11.11-62.05-4.11-6.81-19.17-17.2-26.86-17.2h-64.95v85.54Z"/>
      <polygon class="cls-1" points="1949.17 132.5 1949.17 149.61 1853.58 149.61 1853.58 181.38 1912.41 181.38 1912.41 198.49 1853.58 198.49 1853.58 235.15 1949.17 235.15 1949.17 254.7 1831.53 254.7 1831.53 132.5 1949.17 132.5"/>
      <path class="cls-1" d="M1079.1,222.93v-90.43h19.61v118.53c0,3.19-9.25,5.33-12.23,2.44l-102.96-91.64v92.87h-19.61v-122.2c6.19.27,13.19-1.64,18.52,2.31l96.68,88.12Z"/>
      <path class="cls-1" d="M862.92,133.02l62.86,112.04,1.37,9.63c-27.03,5.95-25.54-15.28-38.32-31.44-12.27,1.81-72.96-3.66-78.94.08-2.05,1.29-10.37,24.98-16.16,29.09-5.44,3.85-12.29,2.07-18.55,2.27l61.15-118.65c5.91-6.02,18.52-3.53,26.59-3.02ZM880.57,208.27c-1.14-8.06-27.3-58.66-30.64-58.61-11.71,18.56-23.04,37.92-30.64,58.61h61.27Z"/>
      <path class="cls-1" d="M2123.19,254.69c-29.33,8.21-24.81-19.81-35.51-29.35-7.29-6.5-66.7-.04-80.5-2.51-3.24.78-11.26,26.9-15.53,29.62-2.86,1.82-21.69,5.84-20.45-1.4l62.49-116.14c4.33-3.86,23.8-4.78,27.97,1.51l59.61,106.74,1.92,11.53ZM2015.34,208.27h61.27c-4.47-21.2-20.36-38.53-28.21-58.68-4.01-.59-4.88,3.09-6.58,5.66-2.9,4.39-28.7,51.06-26.48,53.02Z"/>
      <path class="cls-1" d="M1625.65,132.5v17.11h-53.92v101.42c0,5.23-22.06,5.23-22.06,0v-101.42h-56.37v-17.11h132.35Z"/>
    </g>
  </g>
</svg>