<?xml version="1.0" encoding="UTF-8"?>
<svg id="Layer_2" data-name="Layer 2" xmlns="http://www.w3.org/2000/svg" viewBox="0 0 987.69 246.68">
  <defs>
    <style>
      .cls-1 {
        fill: #727781;
      }
    </style>
  </defs>
  <g id="Layer_1-2" data-name="Layer 1">
    <g>
      <polygon class="cls-1" points="84.49 .17 84.49 102.23 230.74 102.23 230.74 .17 315.73 .17 315.73 246.68 230.74 246.68 230.74 131.81 84.49 131.81 84.49 246.68 0 246.68 0 .17 84.49 .17"/>
      <path class="cls-1" d="M487.18.17c31.79.71,82.78,2.46,112.41,12.81,37.39,13.06,49.9,52.99,16.21,78.31-16.56,12.45-37.03,18.03-56.98,22.51l30.74,6.8c32.49,8.9,60.62,22.43,55.1,62.09-6.25,44.81-51.97,54.83-89.6,59.48-57.61,7.12-116.13,3.86-173.88,1.56l-36.79-2.49v-33.03c17.4,1.26,34.74,3.5,52.13,4.93,20.4,1.67,40.82,2.91,61.28,3.43,30.5.77,99.35,1.12,95.58-44.59-3.16-38.35-63.4-39.8-91.67-40.66-1.32-.04-2.56-.63-3.91-.54l-79.33.02v-28.59l87.72-.47c29.65-1.56,80.47-3.39,75.77-45.57-2.92-26.18-48.49-25.67-67.91-26.41-29.03-1.11-58.45.27-87.43,2.94-12.47,1.15-24.88,3.01-37.31,4.43V4.12l44.2-2.49c18.22,0,36.55-1.22,54.62-1.46,12.93-.17,26.11-.29,39.03,0Z"/>
      <path class="cls-1" d="M918.02.17l69.67,2.96v37.96c-8.48-1.51-16.99-3.13-25.53-4.36-49.63-7.14-128.24-11.27-170.09,20.42-21.96,16.63-27.51,42.52-26.75,69s7.96,46.46,30.01,62.25c39,27.92,94.51,25.61,140.23,22.27,17.45-1.27,34.79-3.77,52.13-5.91v36.98c-57.58,4.64-115.58,7.33-173.18,1.48-30.7-3.12-72.68-9.63-99.03-25.92-69.47-42.98-66.98-158.66,8.18-193.89C763.47,4.76,820.76,1.77,864.45.69l1.2-.51h52.37Z"/>
    </g>
  </g>
</svg>