<?xml version="1.0" encoding="UTF-8"?>
<svg id="Layer_2" data-name="Layer 2" xmlns="http://www.w3.org/2000/svg" viewBox="0 0 1324.06 169.09">
  <defs>
    <style>
      .cls-1 {
        fill: #727781;
      }

      .cls-2 {
        fill: #a3a6ae;
      }
    </style>
  </defs>
  <g id="Layer_1-2" data-name="Layer 1">
    <g>
      <g>
        <path class="cls-2" d="M109.95,2.01l-22.93,63.41h58.1L168.84,2.01h49.5l-57.22,155.26c-1.68,4.32-8.22,9.52-12.87,9.52h-39.86l28.66-79.01h-58.88l-29.44,79.01H0L60.45,2.01h49.5Z"/>
        <path class="cls-2" d="M381.97,2.01l-21.88,61.33L440.07,2.01h36.74l-81.77,63.24,51.55,101.54h-41.43c-5.46,0-11.38-2.96-14.24-7.63l-33.74-64.61-11.43,8.31c-8.02,18.26-14.11,37.56-21.24,56.27-.98,2.57-1.81,5.3-3.26,7.67h-48.72L333.24,2.01h48.72Z"/>
        <polygon class="cls-2" points="299.11 2.01 238.66 166.79 189.16 166.79 249.61 2.01 299.11 2.01"/>
      </g>
      <g>
        <path class="cls-1" d="M1027.5.61c10.58-.7,25.28-.84,35.82-.17,26.01,1.65,44.6,24.19,40.21,50.03-4.3,25.27-22.49,71.81-40.22,90.34-25.83,26.99-59.54,30.18-95.36,27.53-20.43-1.51-38.39-18.01-39.89-38.7-1.27-17.55,13.55-55.19,21.46-71.68,15.5-32.32,40.64-54.89,77.98-57.36ZM1037.93,17.76c-15.82,1.4-28.29,10.99-34.54,25.32-12.13,27.8-20.28,59-31.93,87.18-1.78,35.9,49.45,20.06,56.77-3.15l32.74-89.49c.87-15.09-8.9-21.11-23.04-19.86Z"/>
        <path class="cls-1" d="M1087.01,166.79L1147.96,2.25l30.51.28,44.02,110.2,40.65-110.71h23.97l-60.96,164.52c-10.97-.41-27.62,3.88-34.31-7.38-11.96-31.62-23.96-63.26-35.53-95.02-1.2-3.3-2.69-6.67-3.12-10.15l-42.2,112.79h-23.97Z"/>
        <path class="cls-1" d="M538.82,2.01l8.86,112.79L623.23,2.01h27.1l-.51,1.83-106.63,158.21c-2.88,2.6-6.56,4.27-10.43,4.67-8.57.89-18.66-.34-27.33-.16l-.49-1.07L492.44,2.01h46.38Z"/>
        <path class="cls-1" d="M863.98,2.02l-7.64,20.81h-68.69c-13.8,2.51-17.47,13.94-9.76,25.3,11.49,16.93,30.48,28.02,41.18,46.25,18.68,31.8-2.41,70.28-38.73,72.4h-94.57s7.34-20.73,7.34-20.73l73.16-.06c9.75-.4,16.15-8.23,14.81-17.88-1.48-10.62-31.12-38.27-39.02-48.4-24.17-31-4.03-75.8,35.16-77.69h86.76Z"/>
        <polygon class="cls-1" points="715.99 2.01 655.28 166.79 609.17 166.79 669.61 2.01 715.99 2.01"/>
        <polygon class="cls-1" points="942.67 2.01 881.96 166.79 835.84 166.79 896.29 2.01 942.67 2.01"/>
        <path class="cls-1" d="M1295.12,5.32c14.39-14.35,38,4.9,25.34,21.38-14.18,18.46-41.44-5.31-25.34-21.38ZM1304.18,4.22c-12.17,2.05-12.89,22.76.63,25.11,19.3,3.36,19.94-28.58-.63-25.11Z"/>
        <path class="cls-1" d="M1300.66,9.55c.48-1.53,9.15-1.16,10.96-.54,2.65.91,3.65,4.88,1.57,6.82-.56.52-1.54.67-1.59.74-.39.58,1.4,2.16,1.83,3.1.52,1.15,1.23,3.71,1.3,4.95.06,1.09,0,.66-.77.78-6.33.97-1.83-8.38-9.14-6.77-.26,1.44.48,5.27-.23,6.27-.69.98-3.94.53-3.94-.29,0-2.94-.59-13.18,0-15.07ZM1304.83,16.05c7.16.8,7.18-5.78,0-4.68v4.68Z"/>
      </g>
    </g>
  </g>
</svg>