<?xml version="1.0" encoding="UTF-8"?>
<svg id="Layer_2" data-name="Layer 2" xmlns="http://www.w3.org/2000/svg" viewBox="0 0 1495.32 338.82">
  <defs>
    <style>
      .cls-1 {
        fill: #727781;
      }

      .cls-2 {
        fill: #a3a6ae;
      }
    </style>
  </defs>
  <g id="Layer_1-2" data-name="Layer 1">
    <g>
      <g>
        <path class="cls-2" d="M1494.71,110.12v75.99c-8.16-1.43-17.37-3.74-23.88-9.11-1.05-.87-5.02-5.47-5.47-5.48-33.39,24.44-80.96,17.21-104.83-16.67-22.85-32.43-14.54-76.6,17.52-99.26,46.49-32.86,112.47-3.04,116.24,53.8l.42.72ZM1417.24,74.31c-28.68,2.54-46.03,33.52-31.55,59.03,15.42,27.17,55.46,27.05,70.86-.16,16.12-28.47-7.49-61.69-39.31-58.87Z"/>
        <path class="cls-2" d="M1192.49,0c10.4,3.44,20.82,11.14,26.59,20.52,6.28,10.21,7.17,21.39,6.64,33.18,9.58-5.96,20.8-10.11,32.09-11.37,79.44-8.86,114,98.22,42.56,135.38-24.93,12.97-54.49,10.39-77.55-5.17-7.74,8.85-19.05,12.17-30.33,14.04V0ZM1261.12,74.31c-31.04,3.16-47.11,40.33-26.75,64.7,17.77,21.26,51.49,19.22,66.17-4.35,18.04-28.97-6.35-63.72-39.43-60.35Z"/>
        <path class="cls-2" d="M909.39,186.12c-10.82-1.92-22.1-5.37-28.96-14.5-9.89,6.6-20.53,11.58-32.39,13.46-73.85,11.7-117.1-80.34-58.11-127.27,45.97-36.57,115.69-6.41,119.48,52.07l-.02,76.24ZM831.92,74.31c-28.79,2.55-45.76,34.18-31.1,59.48,15.29,26.39,54.83,26.43,70.24.13,16.85-28.75-6.76-62.48-39.15-59.62Z"/>
        <path class="cls-2" d="M1177.92,35.5l.02,83.52c-2.25,29.29-22.28,55.72-50.65,64.03-44.93,13.17-87.33-20.54-90.03-65.86l.02-64.86c17.71,4.92,31.1,19.15,33.63,37.59,1.78,12.99-1.74,26.55,3.3,39.02,11.71,28.95,49.21,32.31,64.64,4.69,12.31-22.03-1.27-51.77,10-74.19,5.82-11.58,17.33-19.26,29.06-23.95Z"/>
        <path class="cls-2" d="M1023.63,84.64l-10.16-5.99c-21.9-9.75-48.84,2.3-55.05,25.66-.29,1.08-1.24,4.79-1.24,5.59v76.22h-33.45s-.68-.63-.68-.68V55.52c8.02.16,16.01,2.52,23,6.36,2.56-1.81,4.8-4.01,7.36-5.83,20.3-14.45,46.98-18.54,70.24-8.96v37.54Z"/>
      </g>
      <g>
        <path class="cls-1" d="M1494.71,306.71c-1.22,13.97-9.48,24.85-22.65,29.46-12.51,4.38-30.66,3.47-41.99-3.75v-19.34c2.81,1,4.96,3.41,7.72,4.8,13.6,6.85,38.11,5.58,36.21-14.81-3.77,3.24-8.62,5.9-13.66,6.36-48.23,4.44-48.49-76.64-.43-72.82,5.27.42,10.16,2.98,14.1,6.38l.22-5.01h20.48c-1.44,22.19,1.92,46.82,0,68.72ZM1459.11,253.6c-13.65,1.5-17.31,17.28-13.22,28.43,4.51,12.3,21.19,14.43,28.23,3.41l-.14-25.12c-3.05-4.75-9.31-7.33-14.87-6.72Z"/>
        <path class="cls-1" d="M71.46,37.77v102.84h104.23V37.77h71v271.21h-71v-107.39h-104.23v106.71s-.63.68-.68.68H.68s-.68-.63-.68-.68V37.77h71.46Z"/>
        <polygon class="cls-1" points="709.12 39.59 709.12 100.57 585.32 100.57 585.32 142.89 698.65 142.89 698.65 202.5 585.32 202.5 585.32 248.92 709.12 248.92 709.12 310.35 515.23 310.35 515.23 39.59 709.12 39.59"/>
        <path class="cls-1" d="M348.19,310.35h-70.09V39.59l125.41-.02c47.66,2.15,84.35,28.27,90.72,77.22,6.14,47.19-12.62,90.23-60.12,104.49-27.17,8.15-56.31,3.8-84.35,4.86-.47-.1-1.57.33-1.57.71v83.5ZM348.19,167.01h45.74c22.72-1.81,33.57-15.51,32.11-38.02-2.54-39.29-49.77-28.08-76.28-29.81-.47-.1-1.57.33-1.57.71v67.12Z"/>
        <polygon class="cls-1" points="991.54 237.99 1004.74 283.5 1016.39 238.04 1031.84 238.2 1043.88 283.5 1057.08 237.99 1075.97 237.99 1054.54 310.3 1035.51 310.3 1023.64 267.57 1012.69 310.33 994.26 310.38 971.74 237.99 991.54 237.99"/>
        <path class="cls-1" d="M1246.65,205.23v60.52c.91.11,1.51-.77,2.05-1.36,7.87-8.5,14.87-17.89,22.75-26.4h23.9l-29.43,33.44,29.89,38.91h-23.67c-.03-.41-.16-.82-.45-1.13-8.03-8.68-15.19-19.85-22.79-29.12-.59-.72-1.28-2.18-2.26-2.07v32.31h-20.03v-105.12h20.03Z"/>
        <path class="cls-1" d="M827.46,310.35h-20.03v-44.82c0-.58-1.14-4.14-1.49-4.88-3.6-7.73-15.56-7.35-20.55-1.22-.58.72-2.54,4.07-2.54,4.74v46.19h-20.48v-72.35h19.8c1.12,0,.56,4.89.69,5.92,12.27-11.5,35.85-9.97,42.54,6.83.5,1.26,2.06,6,2.06,7.05v52.56Z"/>
        <path class="cls-1" d="M1410.51,310.35h-20.03v-44.37c0-1.88-1.69-6-2.95-7.52-4.59-5.56-15.13-4.36-19.35,1.15-.35.46-2.28,3.86-2.28,4.09v46.64h-20.48v-72.35h19.8c1.12,0,.56,4.89.69,5.92,13.38-12.23,37.66-9.56,43.36,9.2.3,1,1.24,4.37,1.24,5.13v52.1Z"/>
        <path class="cls-1" d="M1113.66,236.76c27.39-2.79,43.83,18.46,40.09,44.63-3.29,23.06-24.46,35.93-46.72,29.07-34.66-10.69-31.03-69.87,6.62-73.7ZM1115.45,254.03c-16.88,2.62-17.49,43.41,5.3,40.8,18.66-2.14,18.85-44.54-5.3-40.8Z"/>
        <path class="cls-1" d="M907.11,278.95h-46.43c2.04,17.83,21.87,19.29,35.49,13.41,2.08-.9,3.76-2.39,5.93-2.94v16.15c-8.86,7.01-23.45,7.87-34.14,5.47-42.85-9.65-32.56-82.91,15.12-73.82,19.91,3.8,25.35,23.91,24.03,41.73ZM888,265.75c-.7-18.39-23.78-16.32-26.85,0h26.85Z"/>
        <path class="cls-1" d="M949.44,218.43v19.57h15.48v16.38h-15.48v55.97h-20.03v-55.29s-.63-.68-.68-.68h-12.97v-16.38h13.65v-19.57h20.03Z"/>
        <path class="cls-1" d="M1212.06,237.54v20.48c-6.97-3.66-17.51-3.65-21.93,3.78-.31.52-1.73,3.46-1.73,3.73v44.82h-20.03v-72.35h20.03c.08,1.58-.12,3.21,0,4.78.04.5-.25,1.52.68,1.13.75-.31,2.84-3.05,3.91-3.83,5.38-3.99,12.81-4.22,19.09-2.53Z"/>
        <path class="cls-1" d="M1326.76,310.35h-20.48v-72.35h19.8s.68.63.68.68v71.67Z"/>
        <path class="cls-1" d="M1315.28,205.81c17.44-1.59,17.77,25.76-1.38,22.97-13-1.9-12.58-21.69,1.38-22.97Z"/>
      </g>
    </g>
  </g>
</svg>