<?xml version="1.0" encoding="UTF-8"?>
<svg id="Layer_2" data-name="Layer 2" xmlns="http://www.w3.org/2000/svg" viewBox="0 0 1628.7 356.21">
  <defs>
    <style>
      .cls-1 {
        fill: #727781;
      }

      .cls-2 {
        fill: #a3a6ae;
      }
    </style>
  </defs>
  <g id="Layer_1-2" data-name="Layer 1">
    <g>
      <g>
        <path class="cls-1" d="M1155.15,117.17l40.2,120.27,40.18-118.69c3.08-3.69,24.4-.46,30.4-1.68l40.37,120.34,39.4-120.24h38.59l-61.26,179.41c-6.02-.66-29.86,2.15-32.83-1.41l-40.96-113.86-40.96,115.55-29.65-.27-61.26-179.41h37.79Z"/>
        <polygon class="cls-1" points="599.58 117.17 599.58 189.31 679.98 189.31 679.98 117.17 716.97 117.17 716.97 296.74 679.98 296.74 679.98 224.59 599.58 224.59 599.58 296.74 560.99 296.74 560.99 117.17 599.58 117.17"/>
        <path class="cls-1" d="M1546.69,150.84h-96.48v35.27h65.93v33.67h-65.93v43.29h97.28c.17,0,2.41,2.23,2.41,2.4v31.26h-136.68V117.17h131.05c.17,0,2.41,2.23,2.41,2.4v31.26Z"/>
        <path class="cls-1" d="M940.48,296.74l77.98-177.98c3.11-3.76,26.03-.42,32.24-1.7l79.53,179.68h-38.59l-14.65-36.69c-27.76.17-56.24-1.3-83.62.76l-14.29,35.93h-38.59ZM1009.62,226.19h51.46l-24.94-60.94-26.52,60.94Z"/>
        <path class="cls-1" d="M803.8,117.17v105.02c0,1.76,2.05,12.54,2.7,14.94,9.02,33.18,58.53,36.64,73.76,8.39,1.86-3.45,5.55-15.2,5.55-18.52v-109.83h36.98v114.64c0,2.81-3.32,14.42-4.41,18.05-23.24,77.21-151.57,61.76-151.57-19.65v-113.03h36.98Z"/>
        <rect class="cls-1" x="1591.72" y="117.17" width="36.98" height="179.57"/>
      </g>
      <g>
        <path class="cls-2" d="M249.05,266.27l-6.51-82.5c.81-61.3-.6-128.23,28.4-183.77,32.87,3.62,64.9,19.55,72.57,54.24,10.05,45.49-31.87,116.94-55.2,155.78-9.16,15.24-23.63,40.77-34.71,53.58-1.43,1.65-1.55,3.37-4.55,2.67Z"/>
        <path class="cls-2" d="M223.29,266.27c-2.53,2.3-2.9-1.07-3.65-2.02-7.06-8.94-14.78-21.92-21.11-31.78-31.86-49.58-107.88-165.3-46.49-214.44C162.58,9.59,187.11-.06,200.39.46c3.52.14,7.23,9.54,8.74,13,25.31,58.08,23.4,166.46,17.38,229.55-.34,3.56-2.36,22.46-3.23,23.26Z"/>
        <path class="cls-2" d="M204.01,277.49c-1.79,1.66-30.46-13.45-34.84-15.75-33.91-17.79-109.78-60.08-127.25-92.77-16.78-31.41-4.83-62.18,15.11-88.54,3.33-4.4,12.51-18.11,17.6-14.67,4.77,3.23,19.33,24.5,23.9,30.74,40.84,55.76,77.96,117.73,105.49,180.99Z"/>
        <path class="cls-2" d="M268.34,277.49c34.23-76.14,78.93-148.21,131.22-213.17,26.26,20.98,47.11,59.42,36.09,93.81-12.43,38.78-94.49,83.8-130.3,102.56-4.52,2.37-35.26,18.43-37.01,16.79Z"/>
        <path class="cls-2" d="M192.75,295.13l-97.26,1.6c-23.83-1.48-43.6-3.93-62.69-19.26C4.42,254.69-5.67,219.64,3.03,184.5c1.65-1.59,13.1,4.91,15.54,6.14,33.99,17.17,69.99,38.3,102.91,57.72,18.78,11.08,53.27,29.01,68.6,42.23,1.66,1.43,3.38,1.54,2.67,4.53Z"/>
        <path class="cls-2" d="M281.2,295.13c-2.98-2.62,14.8-13.09,16.85-14.46,19.82-13.26,42.37-26,63.07-38.13,35.01-20.51,70.71-40.81,107.37-58.08,14.36,40.87-8.88,89.42-49.02,105.04-2.57,1-17.07,5.63-18.47,5.63h-119.8Z"/>
        <path class="cls-2" d="M429.13,311.18c1.35,1.17-11.22,18.06-12.9,19.99-11.96,13.71-30,26.08-49.05,24.99-17.33-.99-58.85-27.73-73.62-38.86-1.74-1.31-13.19-8.76-10.74-10.92l146.31,4.81Z"/>
        <path class="cls-2" d="M189.54,306.37c.46,3.41-2.74,5.21-4.95,7.07-14.33,11.99-63.48,42.41-81.07,42.75-15.68.3-34.61-11.54-45.03-22.55-3.34-3.52-13.06-15.75-13.68-20.05-.47-3.3.31-2.11,2.42-2.4,47.32-2.3,94.88-4.27,142.32-4.81Z"/>
      </g>
    </g>
  </g>
</svg>