<?xml version="1.0" encoding="UTF-8"?>
<svg id="Layer_2" data-name="Layer 2" xmlns="http://www.w3.org/2000/svg" viewBox="0 0 1702.29 362.54">
  <defs>
    <style>
      .cls-1 {
        fill: #727781;
      }

      .cls-2 {
        fill: #a3a6ae;
      }
    </style>
  </defs>
  <g id="Layer_1-2" data-name="Layer 1">
    <g>
      <rect class="cls-2" width="172.22" height="171.98"/>
      <rect class="cls-1" x="0" y="190.57" width="172.23" height="171.98"/>
      <rect class="cls-2" x="190.84" y="190.57" width="172.22" height="171.98"/>
      <rect class="cls-2" x="190.84" width="172.22" height="171.98"/>
      <path class="cls-1" d="M527.31,72.38l62.18,161.36,66.82-161.36h51.87v217.79h-37.9V119.52l-67.9,170.57-24.89.12-70.13-170.69v170.65h-34.25c-.07,0-1-.93-1-1V73.37c0-.07.93-1,1-1h54.19Z"/>
      <path class="cls-1" d="M1613.85,58.43v31.87c-13.24-5.95-33.09-5.85-38.59,10.27-.5,1.47-1.97,6.81-1.97,7.99v24.9h54.53v-35.19l37.24-10.62v45.82h37.24v30.54h-37.24v79.35c0,1.57,2.55,9.48,3.44,11.17,4.33,8.2,16.18,9.46,24.34,7.28,3.13-.84,5.73-2.6,8.79-3.51v29.55c0,2.09-17.73,4.84-20.25,5.01-21.81,1.44-42.2-3.13-50.25-25.58-1.09-3.05-3.31-11.04-3.31-13.96v-89.31h-54.53v126.16h-37.24v-126.16h-26.6v-29.88h26.6v-29.55c0-5.66,4.72-17.16,7.7-22.19,14.68-24.78,43.62-29.7,70.1-23.96Z"/>
      <path class="cls-1" d="M1423.53,130.34c39.13-1.61,70.5,17.06,79.48,56.37,10.19,44.6-7.55,94.87-56.04,105.15-51.71,10.96-97.69-14.41-101.12-69.72-3.2-51.64,24.32-89.61,77.69-91.8ZM1421.54,160.88c-47.5,4.88-51,91.24-6.52,101.07,32.12,7.1,51.11-11.38,53.2-42.51,2.14-31.82-9.31-62.4-46.68-58.56Z"/>
      <path class="cls-1" d="M1125.63,130.34c57.56-2.8,88.15,38.85,81.92,93.75-5.67,49.98-45.4,75.24-94,69.32-52.03-6.34-72.46-52.54-63.39-100.32,7.49-39.45,36.1-60.83,75.47-62.75ZM1124.3,160.88c-48.59,4.97-51.01,91.49-6.65,101.2,29.57,6.47,48.96-8.89,52.58-38.07,4.03-32.41-6.76-67.14-45.94-63.13Z"/>
      <path class="cls-1" d="M1321.27,135.46v35.19c-6.77-2.41-12.92-6.79-19.94-8.97-11.66-3.62-36.25-5.65-37.94,11.26-1.38,13.77,7.09,17.19,17.75,22.18,16.29,7.63,35.91,12.82,44.67,30.43,7.07,14.2,5.5,34.5-4.55,47.01-21.87,27.24-66.13,23.74-95.74,12.96v-36.52c14.54,9.58,31.77,16.09,49.53,14.6,11.79-.99,19.69-7,16.51-19.79-3.31-13.33-33.87-21.21-45.51-28.92-29.55-19.57-26.4-60.79,4.06-77.79,21.72-12.12,48.46-9.32,71.16-1.65Z"/>
      <path class="cls-1" d="M927.61,138.78v35.19c-4.48-2.01-8.37-5.38-12.84-7.43-27.46-12.6-60.3-2.65-68.76,27.87-12.85,46.37,21.4,83.09,67.42,63.34l14.18-8.08v33.53c0,2.99-21.1,8.21-24.46,8.77-31.08,5.15-60.05-.41-80.94-25.03-24.87-29.31-21.41-80.26,2.36-109.22,24.3-29.61,69.32-34.16,103.05-18.94Z"/>
      <path class="cls-1" d="M1046.64,133.46v37.18c-2.62-1-4.71-2.56-7.46-3.51-21.36-7.32-38.86,2.03-44.74,23.43-.67,2.44-2.33,8.8-2.33,10.95v88.64h-37.24v-156.04h37.24v23.9l3.71-6.59c9.85-18.03,31.86-23.83,50.82-17.98Z"/>
      <rect class="cls-1" x="743.42" y="134.13" width="36.57" height="156.04"/>
      <path class="cls-1" d="M759.23,67.91c29.33-2.82,34.03,38.94,5.73,42.24-30.74,3.58-35.06-39.42-5.73-42.24Z"/>
    </g>
  </g>
</svg>