<?xml version="1.0" encoding="UTF-8"?>
<svg id="Layer_2" data-name="Layer 2" xmlns="http://www.w3.org/2000/svg" viewBox="0 0 1813.14 195.77">
  <defs>
    <style>
      .cls-1 {
        fill: #727781;
      }

      .cls-2 {
        fill: #a3a6ae;
      }
    </style>
  </defs>
  <g id="Layer_1-2" data-name="Layer 1">
    <g>
      <path class="cls-2" d="M180.46,94.32V1.9h74.67v191.01c-21.92-2.86-54.84,5.68-74.56-3.19-29.55-13.29-76.16-92.24-105.9-113.87v117.07H0V1.9h102.68c6.08,0,64.03,83.72,77.79,92.42Z"/>
      <path class="cls-1" d="M1012.7,179.01c-8.1,8.54-32.41,13.12-44.72,14.22-34.63,3.1-109.72,3.72-143.58-.19-17.75-2.05-34.51-9.27-41.85-26.34-7.6-17.66-7.44-96.48-4.82-118.73,3.38-28.63,18.1-42.89,46.67-46.21,26.23-3.05,164.19-2.96,179.96,6.93,23.27,14.59,22.45,155.43,8.34,170.32ZM852.54,149.77h90.23c14.16,0,14.16-104.75,0-104.75h-90.23v104.75Z"/>
      <path class="cls-1" d="M1798.41,1.9v43.13h-155.57v30.81h146.24c33.51,0,32.55,117.07-6.22,117.07h-214.69v-43.13h174.24v-30.81h-146.24c-36.45,0-44.42-117.07,6.22-117.07h196.02Z"/>
      <path class="cls-2" d="M504.05,1.9v43.13h-155.57v30.81h146.24c31.66,0,33.65,117.07-6.22,117.07h-214.69v-43.13h174.24v-30.81h-146.24c-36.45,0-44.42-117.07,6.22-117.07h196.02Z"/>
      <path class="cls-1" d="M1375.26,1.9v147.88h99.57V1.9h74.67v163.28c0,1.74-21.82,23.1-25.01,24.53-12.71,5.71-168.02,6.18-189.33,2.84-9.13-1.43-34.58-14.41-34.58-21.21V1.9h74.67Z"/>
      <path class="cls-1" d="M1281.92,1.9v43.13h-161.8v104.75h161.8v43.13h-202.24c-4.86,0-23.79-16.14-27.32-22.25-14.28-24.74-17.74-168.76,27.32-168.76h202.24Z"/>
      <polygon class="cls-1" points="759.19 1.9 759.19 45.03 616.07 45.03 616.07 82 759.19 82 759.19 118.96 616.07 118.96 616.1 192.93 541.39 192.9 541.39 1.9 759.19 1.9"/>
    </g>
  </g>
</svg>