<?xml version="1.0" encoding="UTF-8"?>
<svg id="Layer_2" data-name="Layer 2" xmlns="http://www.w3.org/2000/svg" viewBox="0 0 1605.92 346.89">
  <defs>
    <style>
      .cls-1 {
        fill: #727781;
      }

      .cls-2 {
        fill: #a3a6ae;
      }
    </style>
  </defs>
  <g id="Layer_1-2" data-name="Layer 1">
    <g>
      <path class="cls-2" d="M1330.98,94.06c.5-.89.58-1.38,1.74-1.74-.49.71-.74,1.53-1.74,1.74Z"/>
      <path class="cls-1" d="M34.87,193.22v53.06c0,15.19-31.57,21.64-34.69,1.64l-.18-175.69c1.5-20.95,30.21-19.44,35.74-.82,49.3-43.63,110.96.4,110.63,60.05-.28,50.16-43.51,92.77-94.07,71.31-6.44-2.73-10.96-7.63-17.42-9.54ZM65.77,85.82c-47.79,6.81-43.25,93.39,7.98,91.62,54.12-1.87,51.72-100.13-7.98-91.62Z"/>
      <path class="cls-1" d="M967.39,142.77c2.52,2.55,3.01-.7,3.86-2.23,6.9-12.44,15.73-53.31,25.83-59.4,6.22-3.75,15.45-3.73,20.81,1.53,7.69,7.55,15.44,43.98,22.15,56.13,1.09,1.98-.11,2.96,3.86,2.22l28.77-78.24c17.39-13.17,35.7-2.97,29.89,19.46-6.86,26.5-28.48,84.41-40.4,109.21-6.76,14.08-22.97,21.51-32.96,6.91-7.98-11.67-16.11-48.41-22.72-64.3-.69-1.66-.18-3.99-2.56-3.47l-22.23,67.37c-8.59,11.15-24.55,9.94-31.32-2.55-11.19-36.52-29.53-72.87-40.44-109.18-2.73-9.09-6.08-13.28.3-22.37s23.29-9.33,29.08-.04l28.08,78.93Z"/>
      <path class="cls-1" d="M274.93,67.96c8.29-23.51,32.77-16.98,34.88,7.77,2.38,27.92,2.37,80.06,0,107.98-2.12,25.01-26.84,31.06-34.87,7.77-4.22-.34-6.08,4.38-9.84,6.68-32.5,19.9-73.47,8.95-91.78-24.21-28.56-51.72,2.69-129.35,68.67-119.12,13.09,2.03,21.58,9.31,32.94,13.13ZM227.53,85.77c-44.48,7.56-42.88,93.48,9.76,91.66,55.55-1.92,50.75-101.94-9.76-91.66Z"/>
      <path class="cls-1" d="M522,116.67c3.8-3.39,8.41-6.18,12.2-9.54,11.87-10.54,37.09-41.63,48.4-47.28,12.86-6.43,28.28.98,26.35,15.79-1.5,11.5-47.78,43.1-46.81,48.63.59,3.4,40.8,42.94,46.8,50.74,15.88,20.67-8.68,39.59-25.2,25.2-11.81-10.28-26.04-29.05-37.33-40.96-2.24-2.36-8.59-9.6-11.36-9.59-1.88.01-12.07,7.84-12.72,9.96-3.71,12.07,6.91,39.51-10.67,44.99-13.46,4.2-23.26-3.95-24.54-17.39-5.18-54.34,3.97-117,.19-172.22,3.52-12.31,15.81-19.24,27.61-12.15,1.85,1.11,7.09,7.11,7.09,8.57v105.25Z"/>
      <path class="cls-1" d="M662.92,142.77c3.47,27.33,27.65,36.37,52.91,32.9,12.6-1.73,29.61-19.92,41.1-6,19.66,23.84-38.67,39.46-54.77,39.27-103.89-1.21-94.59-159.48,0-154.97,35.7,1.7,70.61,37.77,67,74.12-.52,5.24-6.54,14.67-11.41,14.67h-94.82ZM734.25,114.93c-6.89-39.82-66.29-39.94-73.07,0h73.07Z"/>
      <path class="cls-1" d="M1542.96,160.51h-4.67c-8.4,8.85-25.07,38.13-34.42,42.92-14.31,7.34-30.57-4.75-24.05-20.57l39.08-49.62-41-52.99c-5.93-16.08,12.57-28.95,26.28-21.07,7.86,4.52,35.22,45.3,38.18,45.3,10.14-8.17,25.6-39.62,34.98-45.01,10.91-6.27,27.62.75,26.72,14.49-.72,10.92-34.74,42.75-41.52,54.28l40.63,52.9c5.06,14.2-4.32,26.06-19.1,24.39-11.9-1.34-32.8-35.18-41.11-45Z"/>
      <path class="cls-1" d="M396.32,54.49c19.12-2.44,75.96,3.27,63.47,33.91-8.53,20.92-30.39-1.98-45.04-2.87-49.3-2.99-60.61,64.97-23.83,86.56,7.77,4.56,23.76,4.84,32.64,3.59,10.44-1.48,26.26-19.05,36.58-3.23,12.82,19.64-19.25,31.67-33.39,34.26-112.46,20.58-121.8-140.56-30.43-152.21Z"/>
      <path class="cls-1" d="M809.06,90.58c-37.19,5.87-37.52-36.78,0-31.31-7.8-44.91,43.87-47.13,34.78,0,13.28-.16,34.67-3.25,36.18,15.19.45,5.45-5.91,16.11-10.94,16.11h-25.23v75.68c0,1.96,3.3,7.17,5.61,8.31,9.14,4.54,22.92-9.37,28.03,6.77,9,28.43-50.92,32.71-63.56,7.88-1.65-3.24-4.87-16.4-4.87-19.48v-79.16Z"/>
      <path class="cls-2" d="M1332.72,92.32c-1.15.36-1.24.85-1.74,1.74-6.3,1.3-10.7-4.9-16.66-5.11-4.42-.16-7.74,2.52-13.39,1.31-4.5-.97-20.67-12.52-27.93-15.63-13.56-5.81-30.88-10.43-45.56-11.85-6.27-.61-23.03,1.5-26.94-.9-.68-.42-10.44-11.36-10.5-12.16l3.84-31.9c46.57-18.5,99.49-.97,127.42,39.87,4.92,7.19,16.91,26.78,11.47,34.64Z"/>
      <path class="cls-2" d="M1332.72,92.32c.78-.25,5.02-.19,5.21,0,1.28,1.32,2.86,35.09,1.75,36.55-1.15.02-2.32.02-3.47-.01,7.83,20.77-21.36,60.25-37.45,73.03-13.27,10.54-53.13,27.29-69.22,22.32-5.97-1.84-25.91-41.08-27.84-48.69-5.26-20.79,10.82-14,23.81-15.56,21.55-2.59,40.89-9.94,59.67-20.35,3.5-1.94,16.14-11.83,17.31-12.05,2.47-.47,8.91,1.89,13.74,1.39,4.17-.43,7.96-3.59,10.4-3.5s4.67,3.29,9.57,3.42c-4.17-11.05-5.58-16.71-6.37-29.04-.09-1.4.52-4.62,1.15-5.76,1-.21,1.25-1.03,1.74-1.74Z"/>
      <path class="cls-1" d="M1401.75,61.55c2.84,3.14,2.9,8.14,4.9,11.62,9.84-14.79,46.77-27.94,59.3-12.31,6.06,7.55,3.58,23.15-5.71,25.87-13.1,3.84-23.68-7.19-37.69.6-28.96,16.1-11.09,79.54-17.12,106.39-3.74,16.64-31.42,15.68-34.32-3.22,2.84-36.88-4.2-80.38-.11-116.45,1.84-16.28,21.16-23.11,30.76-12.5Z"/>
      <path class="cls-2" d="M1294.23,119.88c-.61,1.03-18.29,9.73-21.23,11.02-13.36,5.86-29.83,10.99-44.28,13.14-2.94.44-17.1,2.45-18.36,2.06-2.81-.88-4.53-7.54-7.17-10.37-3.51-3.76-11.5-5.49-12.8-9.81-.76-2.51-2.53-33.76-1.79-35.92.32-.93,13.52-13.16,14.49-13.34,16.62-3.14,52.58,6.49,68.7,13.09,3.66,1.5,21.9,10.15,22.37,12.3.36,1.62-1.65,5.47-1.56,8.47.09,2.84,2.73,7.49,1.62,9.37Z"/>
      <path class="cls-2" d="M1186.13,169.31c1.32,1.07,12.49,24.24,16.4,29.7,5.33,7.45,12.82,13.61,17.98,20.29,1.35,1.75,3.37,2.21,2.59,5.22-46.12-5.26-86.21-37.22-95.67-83.49l40.54,14.25c3.69,9.01,13.94,10.59,18.16,14.03Z"/>
      <path class="cls-2" d="M1168.03,84.78c1.74,1.77,5.27,2.11,6.06,5.24-.98,10.88,1.79,22.36,2.13,32.68.24,7.06-2.69,21.93-11.29,21.91-11.68-.03-27.12-5.93-39.06-7.23.68-10.11-2.83-45.09,3.69-51.64,1.52-1.52,28.97-7.39,31.94-7.2,4.43.28,4.27,3.94,6.53,6.24Z"/>
      <path class="cls-1" d="M1473.64,320.22v-32.19c0-4.32,7.79-9.42,12.04-3.33,2.78,3.98,2.67,44.67,1.88,52.08-.86,8.05-6.49,12.94-13.41,7.26-9.49-7.78-19.05-29.47-30.08-37.73v35.66c0,3.84-12.18,4.27-12.18,2.61v-60.02c0-3.62,8.09-2.89,11.41-.96,8.56,4.99,20.62,30.15,30.35,36.62Z"/>
      <path class="cls-2" d="M1013.89,280.63c36.76-6.18,53.2,40.3,25.68,60.46-12.03,8.81-32.8,7.4-42.64-4.31-15.03-17.88-7.45-52.04,16.97-56.15ZM1015.59,292.75c-19.77,4.45-18.4,47.86,11.45,41.02,20.13-4.62,16.11-47.22-11.45-41.02Z"/>
      <path class="cls-1" d="M1156.55,280.62c43.95-7.03,50.68,57.99,14.85,65.3-48.22,9.84-54.13-59.02-14.85-65.3ZM1158.31,292.75c-17.47,3.32-19.6,33.93-4.33,40.07,33.61,13.52,37.06-46.29,4.33-40.07Z"/>
      <path class="cls-1" d="M1546.5,293.92c-6.59,3.63-12.63-1.98-19.6-1.46-26.99,2.01-23.99,47.56,6.77,41.68,5.11-.98,5.74-8.84,4.28-10.37-.93-.98-19.51.24-13.03-10.54,2.78-4.63,19.87-4.52,24.11-1.84,3.82,2.42,4.06,24.7,2.05,28-3.72,6.1-21.31,7.67-27.95,7.02-34.98-3.45-40.26-54.43-5.21-64.54,10.36-2.99,31.75-3.36,28.58,12.06Z"/>
      <path class="cls-1" d="M1241.38,281.95c5.68,1.22,12.09,11.39,12.72,16.99,1.04,9.11-6.56,13.61-6.54,18.67.02,4.61,5.99,15.79,7.75,20.11,3.14,7.75-5.33,10.92-12.21,5.12-7.12-6-2.51-9.98-5.18-15.68-2.78-5.93-16.29-2.71-21.77-3.47.15,6.45,1.76,25.12-9.19,22.36-1.23-.31-4.71-3.55-4.71-4.08v-57.41c0-.18,2.43-2.61,2.61-2.61,9.34,0,28.81-1.67,36.53,0ZM1238.36,294.54c-3.94-3.94-18.24-1.47-23.95-2.16v20.89c9.22-.26,24.74,3.06,26.08-9.74.26-2.52-.38-7.23-2.14-8.99Z"/>
      <path class="cls-1" d="M1357.08,308.04h26.1c-.19-7.39-2.46-31.75,10.45-25.26,3.56,1.79,3.24,5.34,3.56,8.63.7,7.07.66,48.25-1.7,52-1.99,3.15-8.69,3.22-10.73,0-3.49-5.51-.73-18.22-1.6-24.93h-26.1c-.87,6.71,1.89,19.42-1.6,24.93-2.03,3.22-8.74,3.15-10.73,0-2.36-3.74-2.4-44.93-1.7-52,.33-3.29,0-6.85,3.56-8.63,15.26-7.66,8.79,25.26,10.45,25.26Z"/>
      <path class="cls-1" d="M1571.3,294.35c-.86,1.38-.46,5.53.11,7.25,3.14,9.51,34.28,3.41,34.52,24.68.32,29.19-53.07,22.22-50.25,7.24,2.27-12.01,23.36,6.97,33.81-.96,13.42-10.19-16.51-14.39-20.66-16.17-20.44-8.76-13.47-34.35,8.34-36.19,7.61-.64,33.47,5.1,25.37,14.94-5.68,6.91-25.91-9.36-31.24-.78Z"/>
      <path class="cls-2" d="M878.65,281.95c6.21,17.05-17.39,11.14-27.84,12.17v12.2c7,.35,15.37-1.13,21.99,1.47,2.25.89,2.2-.53,2.51,2.82,1.23,13.13-15.53,6.32-24.5,7.87v15.67h25.24c2.9,0,8.55,9.36-2.13,11.79-5.26,1.2-37.02,2.08-37.02-3.96v-57.41c0-.18,2.43-2.61,2.61-2.61h39.14Z"/>
      <path class="cls-2" d="M984.29,342.38c-4.58,4.79-21.47,4.84-27.83,3.55-29.6-6.01-32-53.99-1.63-63.48,8-2.5,36.31-2.66,30.43,9.44-3.91,8.03-18.22-1.34-28.97,4.2-10.88,5.61-11.33,27.34-1.99,34.6,10.56,8.2,19.83-.2,27.46,1.99,4.6,1.32,5.76,6.31,2.52,9.7Z"/>
      <path class="cls-1" d="M1125.69,281.95c6.21,17.05-17.39,11.14-27.84,12.17v13.94c34.36-4.71,31.98,15.83,0,12.16-.98.98,1.13,17.41-.27,21.47-1.43,4.15-8.55,5.51-11.47,2.47-3.01-3.13-3.02-45.69-2.2-52.67.27-2.34,2.25-9.53,4.38-9.53h37.4Z"/>
      <path class="cls-2" d="M1191.79,19.26c-2.86,5.94-6.3,25.77-9.55,29.58-1.89,2.22-8.56,1.94-13.14,6-5.05,4.47-5.79,13.11-8.05,15-1.25,1.04-28.98,13.19-30.13,12.04,9.7-27.27,32.47-54.62,60.87-62.61Z"/>
      <path class="cls-2" d="M827.33,281.95c3.1.93,3.87,7.05.87,9.58-4.3,3.62-16.77,1.98-17.41,2.59-1.87,1.8,3.06,44.63-2.15,50.04-2.36,2.45-7.86,2.07-10.04-.4-4.59-5.21.16-47.83-1.7-49.63-.64-.62-13.11,1.03-17.41-2.59-3.42-2.88-1.41-9.58.87-9.58,9.47,0,40.65-1.9,46.97,0Z"/>
      <path class="cls-1" d="M1333.59,281.95c3.01.91,3.93,7.6.95,9.65-3.36,2.32-16.47-.25-17.49.77-1.92,1.93,2.92,43.91-1.59,51.04-3.02,4.78-12.32,1.69-12.32-3.18v-47.84c0-.87-14.39,1.35-17.48-.78-3.41-2.35-1.31-9.65.95-9.65,9.47,0,40.65-1.9,46.97,0Z"/>
      <path class="cls-2" d="M887.35,286.3c1.21-7.18,13.92-5.84,13.92,0v47.84h25.23c1.71,0,6.95,10.1-2.13,11.71-5.53.98-37.02,2.43-37.02-3.88,0-15.35-2.31-41.98,0-55.67Z"/>
      <path class="cls-1" d="M1419.28,344.15c-2.68,2.78-9.04,1.8-10.91-1.3-1.9-3.16-1.49-55.59.73-58.45,5.59-7.18,11.51-.45,12.37,7.08.8,6.98.83,49.53-2.2,52.67Z"/>
    </g>
  </g>
</svg>