<?xml version="1.0" encoding="UTF-8"?>
<svg id="Layer_2" data-name="Layer 2" xmlns="http://www.w3.org/2000/svg" viewBox="0 0 1240.05 268.87">
  <defs>
    <style>
      .cls-1 {
        fill: #727781;
      }
    </style>
  </defs>
  <g id="Layer_1-2" data-name="Layer 1">
    <g>
      <path class="cls-1" d="M202.29,0c33.08,3.91,63.27,31.11,68.46,64.26l64.01.64,50.66,128.59V64.5h81.39l26.33,69.27v-69.27h57.45v203.04h-73.01l-32.32-71.66v71.66h-100.54l-11.7-34.42-63.33-1.03-17.14,35.45h-65.83l35.88-93.16c-33.07,11.23-68.62,6-102.91,7.17v85.99H0V0h202.29ZM124.48,136.16c7.75-.61,28.04,2.53,32.35-4.75,2.14-3.61,2.21-77.25.09-83.75-4.02-12.33-22.18-5.38-32.44-7.05v95.55ZM320.78,188.71l-16.78-52.55c-11.12,13.68-16.07,35.48-21.52,52.55h38.3Z"/>
      <path class="cls-1" d="M709.8,62.11c20.36,3.36,26.19,18.71,27.62,36.94,2.75,35.28,3.36,103.7-.39,138.33-.66,6.06-2.74,16.69-6.78,21.24-1.72,1.94-16.63,8.92-18.05,8.92h-135.26V62.11h132.86ZM648.75,217.37c14.85-.61,24.71,4.91,26.47-13,2.85-29.08-2.06-63.26-.53-92.91-2.71-8.03-19.15-6.43-25.94-6.36v112.27Z"/>
      <path class="cls-1" d="M823.51,64.5v149.3c0,10.91,29.93,13.42,30.59-.53l-1.86-148.76h55.06v173.18c0,11-14.74,26.4-26.2,28.8-15.12,3.17-66.37,2.84-82.74,1.08-15.42-1.66-32.92-11.06-38.38-26.2-.53-1.47-3.5-14.82-3.5-15.62V64.5h67.03Z"/>
      <polygon class="cls-1" points="1158.65 62.11 1158.65 105.1 1113.17 105.1 1113.17 267.54 1050.93 267.54 1050.93 105.1 1005.44 105.1 1005.44 65.69 1009.03 62.11 1158.65 62.11"/>
      <rect class="cls-1" x="928.84" y="64.5" width="64.64" height="203.04"/>
      <path class="cls-1" d="M1206.53,66.88l7.39,1.42,7,24.85c10.27-5.58,4.21-28.25,19.13-26.27v35.83c-10.39,2.45-1.28-26.27-5.98-26.3l-8.41,26.29-6.63-4.1-7.68-19.77c-2.02,5.77,4.88,25.32-4.81,23.88v-35.83Z"/>
      <path class="cls-1" d="M1201.73,66.9c1.86,8.14-7.07,3.9-11.97,4.75-.98.97.65,22.63.02,27.52-.45,3.48-1.83,7.41-4.78,3.53v-31.05c-1.78-1.75-14.59,4.09-11.97-4.75h28.7Z"/>
    </g>
  </g>
</svg>