<?xml version="1.0" encoding="UTF-8"?>
<svg id="Layer_2" data-name="Layer 2" xmlns="http://www.w3.org/2000/svg" viewBox="0 0 1580.13 374.33">
  <defs>
    <style>
      .cls-1 {
        fill: #727781;
      }

      .cls-2 {
        fill: #a3a6ae;
      }
    </style>
  </defs>
  <g id="Layer_1-2" data-name="Layer 1">
    <g>
      <path class="cls-2" d="M344.18,324.49c-8.09-16.12-15.32-32.81-20.84-49.97-25.49-79.23-15.99-159.97,23.63-232.99,3.02-5.57,21.71-29.66,18.15-33.21-20.81,6.95-38.46,22.01-59.39,30.99-85.21,36.57-185.17,32.39-265.72-13.89C26.26,17.52,14.74,5.73.09,0c-1.89,1.89,25.4,39.94,28.33,45.27,44.1,80.24,47.47,177.11,10.27,260.75L2.88,368.79c23.74-11.2,43.34-29.05,67.76-39.31,52.91-22.22,124.28-27.86,180.24-16.14,20.56,4.3,42.65,14.99,62.3,22.58l63.08,38.41-32.09-49.84ZM171.71,241c-58.47-8.11-63.33-105.05-2.37-115.55,94.67-16.31,100.65,129.18,2.37,115.55Z"/>
      <g>
        <path class="cls-1" d="M1529.95,142.82c-29.74-10.38-105.1-9.43-134.5,2-49.62,19.29-52.42,99.61-9.68,127.61,41.09,26.92,150.54,27.51,181.92-14.45,17.43-23.3-1.2-26.84-22.38-25.02-21.48,1.85-42.16,15.75-62.05,18.65-20.1,2.93-66.22,1.75-61.97-27.01h129.58c9.72,0,24.36-7.7,29.26-16.64v-8.32c-9.95-22.19-25.67-48.27-50.18-56.83ZM1509.07,194.1c-16.5,0-72.72,3.28-83.6,0-6.7-2.02-4.83-11.82-.13-16.78,17.63-18.59,59.65-16.08,79.36-1.06,5.7,4.34,13.83,17.84,4.37,17.84Z"/>
        <path class="cls-1" d="M758.18,89.99c-15.69-4.27-44.56-5.99-61.43-6.81-45.09-2.21-92.17,1.25-137.48.46-10.5,3.52-7.19,29.08-7.43,38.37-1.13,45-3.84,104.65-.11,148.48.41,4.81.46,12.65,4.76,15.35,5.19,3.26,45.9,4.15,52.03,2.1,16.66-5.58-1.32-55.8,10.15-64.77,14.59-11.41,112.83,4.13,149.72-14.63,45.55-23.16,44.09-103.78-10.2-118.54ZM711.42,174.03c-12.79,2.29-73.11,2.69-85.12.05-18.92-4.16-17.35-41.5,2.78-45.94,13.99-3.08,77.43-1.82,90.62,2.91,24.58,8.82,13.96,38.99-8.28,42.97Z"/>
        <path class="cls-1" d="M992.12,142.82c-31.46-10.94-115.24-10.64-144.07,6.33-42.3,24.89-39.66,99.24,1.03,124.92,39.94,25.2,156.86,26.1,183.22-19.19,17.33-29.77-23.21-22.2-40.72-18.36-16.11,3.53-32.54,13.57-48.51,15.51-19.11,2.32-63.43-.19-59.6-27.42h129.58c7.49,0,24.62-6.13,26.42-15.32,4.72-24.11-25.61-58.9-47.35-66.46ZM968.45,194.1c-16.31,0-69.82,3.25-80.81,0-7.46-2.2-3.28-13.46,1.54-17.88,20.24-18.54,76.54-16.69,86.38,13.43-.26,1.52-6.69,4.46-7.11,4.46Z"/>
        <path class="cls-1" d="M1224.41,147.37c-7.82-5.71-26.1-11.7-35.81-11.7-20.09,0-37.89,17.25-53.07,17.03-8.76-.13-16.07-12.03-27.92-13.87-17.74-2.77-37.82-2.95-40.28,17.79-1.54,12.92-1.81,120.82,1.41,126.26,4.69,7.91,52.29,8.11,57.43,1.62,14.02-17.69-18.88-108.34,31.88-109.92,32.04-1,25.36,26.58,32.61,32.75,4.58,3.9,32.78,4.38,39.9,3.57,24.44-2.79,9.75-51.92-6.15-63.52Z"/>
        <path class="cls-1" d="M1328.11,91.25c-3.41-13.52-57.4-9.97-60.08-1.14v194.11c0,.29,3.88,4.16,4.18,4.16h50.16c4.34,0,6.75-16.89,7.07-20.69,4.72-55.98-2.73-119.73-1.33-176.44Z"/>
      </g>
    </g>
  </g>
</svg>