<?xml version="1.0" encoding="UTF-8"?>
<svg id="Layer_2" data-name="Layer 2" xmlns="http://www.w3.org/2000/svg" viewBox="0 0 1268.56 522.96">
  <defs>
    <style>
      .cls-1 {
        fill: #727781;
      }
    </style>
  </defs>
  <g id="Layer_1-2" data-name="Layer 1">
    <g>
      <path class="cls-1" d="M101.33,43.63c28.03,13.92,56.4,28.36,84.06,41.22,6.24,2.9,12.02,6.88,18.45,9.32,2.13-2.41-11.86-31.53-13.85-36.58-3.36-8.52-6.95-17.43-10.19-26.09-4-10.71-12.65-32.18,7.61-31.49,7.09.24,9.97,3.87,14.93,6.71,50.6,29.05,98.11,60.48,146.39,91.98,64.16,41.86,135.26,79.54,162.77,155.6,41.39,114.46-32.05,246.86-151.98,265.66-83.06,13.02-147.46-17.07-197.6-80.42-45.35-57.3-88.78-122.43-127.54-185.14-2.58-4.18-8.97-10.62-9.73-15.83-1.22-8.36,4.79-14.96,13-15.29,5.17-.21,19.56,3.73,25.6,5.11,7.61,1.74,15.08,3.89,22.69,5.67,4.52,1.06,9.83,3.47,14.18,3.98,1.82.21,1.82.2,1.66-1.67-8.25-11.38-11.28-25-16.81-37.61C59.81,141.44,32.41,85.3,7.33,28.16,5.14,23.17-1.12,15.29.17,9.16c4.29-20.45,33.37,1.65,42.54,6.31,19.31,9.81,39.24,18.55,58.61,28.16ZM455.21,246.5c-9.61-6.96-15.63-6.26-25.93-8.67-58.96-13.78-118.26-26.05-177.35-39.28-33.37-1.64-56.72,25.02-52.54,58.15,3.32,26.35,14.25,59.65,20.05,86.49,6.87,31.76,11.98,69.37,21.21,100.07,6.21,20.68,30.66,30.8,50.95,29.27,62.09-4.71,150.29-94.74,173.39-149.75,9.94-23.67,13.76-59.23-9.79-76.28Z"/>
      <path class="cls-1" d="M563.45,197.31l143.55-.05c47.48,3.03,95.92,20.35,100.2,74.42,1.96,24.79-4.3,48.3-24.94,63.19l-18.01,9.75c29.44,7.31,36.9,38.64,39.68,65.19,1.22,11.63-.09,25.09,1.27,36.12.9,7.26,5.82,13.71,5.55,21.09h-88.48c-7.76-28.1.09-58.87-14.95-84.79l-23.05-5.87h-34.6v90.66h-86.21V197.31ZM700.14,268.7c-15.26-2.04-34.75,1.52-50.48,0v44.2c15.32-.91,31.95,1.21,47.12.04,10.74-.83,20.19-3.86,21.79-15.64,2.06-15.24-1.76-26.37-18.43-28.6Z"/>
      <path class="cls-1" d="M887.88,391.09c2.67,5.52,6.04,12.44,10.54,16.67,8.59,8.08,28.37,9.31,39.08,4.08,3.36-1.64,6.43-9.25,11.14-9.36l74.22.48c-10.03,44.06-48.15,64.48-90.31,69.57-67.59,8.17-122.78-35.63-123.02-104.67-.38-109.75,146.89-139.67,199.75-52.16,7.36,12.19,15.31,34.73,16.88,48.86.98,8.76-.92,17.83,1.25,26.51h-139.53ZM889.01,343.5h57.85c-5.12-10.1-7.61-17.13-19.32-20.93-17.51-5.69-32.87,4.38-38.54,20.93Z"/>
      <polygon class="cls-1" points="1073.92 199.57 1108.52 258.51 1110.22 199.57 1153.33 199.57 1153.33 334.43 1109.65 334.43 1072.78 274.37 1072.78 334.43 1030.81 334.43 1030.81 199.57 1073.92 199.57"/>
      <path class="cls-1" d="M1156.73,247.17c-.19-17.67,7.59-36.34,23.94-44.65,23.21-11.79,75.56-7.67,82.17,23.08,2.91,13.56.44,23.94-9.63,33.54l-.05,1.61c19.41,7.42,18.3,39.48,8.62,53.97-19.4,29.04-83.92,31.8-101.01-.76-1.16-2.22-6.31-14.82-6.31-16.36v-17.57h39.7c.44,9.95,3.68,20.14,14.71,22.21,8.68,1.63,20.91-7.91,14.78-17.12-5.16-7.77-12.14-6.25-20.36-6.29l-.7-28.34c1.84-2.62,21,1.06,22.21-9.59.54-4.77-4.83-10.09-9.04-11.36-9.97-2.99-19.41,8.54-20.47,17.62h-38.57Z"/>
      <path class="cls-1" d="M446.6,294.77c1.01.86-6.92,22.36-8.24,25.19-18.69,40.24-95.19,119.13-139.89,125.43-1.66.23-3.35.11-5,.09,2.67-4.87,2.59-10.88,4.27-15.55,15.54-43,96.29-125.44,141.98-134.67,2.29-.46,4.55-.68,6.87-.49Z"/>
    </g>
  </g>
</svg>