<svg xmlns="http://www.w3.org/2000/svg" xmlns:xlink="http://www.w3.org/1999/xlink" viewBox="0 0 258 46.2" width="258" height="46.2">
<defs>
<style>
.cls-1{fill:none;}
.cls-2{clip-path:url(#clip-path);}
.cls-3{fill:#727781;}
.cls-4{clip-path:url(#clip-path-2);}
.cls-5{fill:#727781;}
.cls-6{clip-path:url(#clip-path-3);}
.cls-7{fill:#727781;}
.cls-8{clip-path:url(#clip-path-4);}
.cls-9{fill:#727781;}
.cls-10{clip-path:url(#clip-path-5);}
.cls-11{fill:#727781;}
.cls-12{clip-path:url(#clip-path-6);}
.cls-13{fill:#727781;}
.cls-14{clip-path:url(#clip-path-7);}
.cls-15{fill:#727781;}
.cls-16{clip-path:url(#clip-path-8);}
.cls-17{fill:#727781;}
.cls-18{clip-path:url(#clip-path-9);}
.cls-19{fill:#727781;}
.cls-20{clip-path:url(#clip-path-10);}
.cls-21{fill:#727781;}
.cls-22{clip-path:url(#clip-path-11);}
.cls-23{fill:#727781;}
</style>
<clipPath id="clip-path" transform="translate(0 0)"><path class="cls-1" d="M87.3,5.7l-1.4,6.7,2.8-.8C95.3,8.3,110.1,2.5,134.3,0h-2.1C118.8,0,102,1.6,87.3,5.7"/></clipPath>
<clipPath id="clip-path-2" transform="translate(0 0)"><path class="cls-1" d="M134.2,0C110.1,2.5,95.3,8.3,88.7,11.6c23.4-7.1,45.6-9.2,56.3-9.9l6.6-.2L148.8,1a121.2,121.2,0,0,0-13.7-1Z"/></clipPath>
<clipPath id="clip-path-3" transform="translate(0 0)"><path class="cls-1" d="M14,1.5c8.9.4,21.5,2,23.9,7.5a2.3,2.3,0,0,1,.4,1.4c0,5.8-19.2,10.8-19.2,10.8l12.1,12H44.9a85.2,85.2,0,0,0-13.3-12C41,20.9,49,16.5,49,9.8a7.3,7.3,0,0,0-.6-3C47,3.4,43.2,1.6,38.2,1.5Z"/></clipPath>
<clipPath id="clip-path-4" transform="translate(0 0)"><path class="cls-1" d="M5,1.5l-2.1,5H31.2s5.3-.1,6.7,2.5C35.5,3.5,22.9,1.9,14,1.5Z"/></clipPath>
<clipPath id="clip-path-5" transform="translate(0 0)"><polygon class="cls-1" points="8.5 9.8 0 33.2 11.1 33.2 19.6 9.8 8.5 9.8"/></clipPath>
<clipPath id="clip-path-6" transform="translate(0 0)"><path class="cls-1" d="M123.7,9.4h-.5l-8.3,1-5.3,22.8h8.5l5.6-23.8Z"/></clipPath>
<clipPath id="clip-path-7" transform="translate(0 0)"><path class="cls-1" d="M100.2,12.5c-2,8.8-3.8,15.9-5.4,21.2a11,11,0,0,1-2.7,5.1c-1.2,1.2-3.2,2.1-5.9,2.8h-.1L85,46.2h0c2.7-.2,9.8-1.2,14.2-5.4a19.9,19.9,0,0,0,4.6-8.4l5.3-21.2-8.9,1.3"/></clipPath>
<clipPath id="clip-path-8" transform="translate(0 0)"><path class="cls-1" d="M85.4,15.1,81.1,33.2h8.5l4.7-19.7-8.9,1.6"/></clipPath>
<clipPath id="clip-path-9" transform="translate(0 0)"><path class="cls-1" d="M72.3,8.7s-1.7,9.6-3.3,15a10.7,10.7,0,0,1-.7,1.9h-.1c0,.2-.1.3-.3.5s-2.2,2.1-5.1,2.3-5.4-.6-4.9-3.1L62,8.7H52.9l-4.4,19c-.4,2.3.7,4,3,4.8a11.8,11.8,0,0,0,4.5.7c14,0,18.9-.3,20.8-6.1,1-3,4.3-18,4.4-18.4Z"/></clipPath>
<clipPath id="clip-path-10" transform="translate(0 0)"><path class="cls-1" d="M123.9,21.4a11,11,0,0,0-.2,1.8c-.3,3,1.4,8,8.8,9.6s15.1-1.5,17.2-2.4l1.5-5.9h0a31.9,31.9,0,0,1-11.9,5.2c-7.5,1.4-16-.7-15.4-8.3Z"/></clipPath>
<clipPath id="clip-path-11" transform="translate(0 0)"><path class="cls-1" d="M142.7,13.6c5.2-1.5,5.3,6-2,7.5l-7.6,1.4s1.4-6.6,9.6-8.9m.2-5.1c-5.5.3-9.3,1.6-12.9,4.3a15.2,15.2,0,0,0-6.1,8.6c-.6,7.6,7.9,9.7,15.4,8.4a32.9,32.9,0,0,0,11.9-5.3c-2,1-16.9,8.5-18.1.1l13.8-2.5c2.3-.4,7.2-2,7.6-6.2a6,6,0,0,0-1.2-4.1c-1.6-2-4.7-3.4-9-3.4h-1.4"/></clipPath>
</defs>
<!-- Ruijie wordmark (clip-masked rects, now solid grey) -->
<g class="cls-2"><rect class="cls-3" x="85.9" width="48.3" height="12.42"/></g>
<g class="cls-4"><rect class="cls-5" x="88.7" width="63" height="11.56"/></g>
<g class="cls-6"><rect class="cls-7" x="14" y="1.5" width="34.9" height="31.75"/></g>
<g class="cls-8"><rect class="cls-9" x="2.9" y="1.5" width="35" height="7.52"/></g>
<g class="cls-10"><rect class="cls-11" y="9.8" width="19.6" height="23.41"/></g>
<g class="cls-12"><rect class="cls-13" x="109.6" y="9.4" width="14.2" height="23.83"/></g>
<g class="cls-14"><rect class="cls-15" x="85" y="11.2" width="24.1" height="35.04"/></g>
<g class="cls-16"><rect class="cls-17" x="81.1" y="13.5" width="13.2" height="19.71"/></g>
<g class="cls-18"><rect class="cls-19" x="48.1" y="8.7" width="33" height="24.56"/></g>
<g class="cls-20"><rect class="cls-21" x="123.3" y="21.4" width="28" height="12.83"/></g>
<g class="cls-22"><rect class="cls-23" x="123.3" y="8.4" width="31.4" height="24.63"/></g>
<!-- Separator -->
<line x1="159" y1="7" x2="159" y2="39" stroke="#c8cace" stroke-width="1"/>
<!-- Reyee wordmark (all fills converted to grey) -->
<g transform="translate(164, 0) scale(2.009)">
<path d="M18.804 11.7646H14.7531V13.0453H18.804V11.7646Z" fill="#a3a6ae"/>
<path d="M34.675 11.7646H30.624V13.0453H34.675V11.7646Z" fill="#a3a6ae"/>
<path d="M42.8512 11.7646H38.8003V13.0453H42.8512V11.7646Z" fill="#a3a6ae"/>
<path d="M13.789 10.7089C14.2417 10.2522 14.8552 9.98661 15.501 9.96766H18.9486V8.65987H15.501C15.0036 8.6503 14.5092 8.74005 14.0475 8.92376C13.5842 9.10973 13.1623 9.38397 12.8056 9.73094C12.4462 10.0778 12.1622 10.4938 11.9711 10.9533C11.7747 11.4118 11.6735 11.9047 11.6735 12.4028C11.6735 12.9008 11.7747 13.3938 11.9711 13.8522C12.2592 14.5404 12.7494 15.1271 13.3781 15.536C14.0068 15.945 14.745 16.1574 15.4971 16.1457H18.9447V14.8379H15.4971C15.0168 14.8273 14.55 14.6782 14.154 14.4086C13.758 14.1391 13.4501 13.7609 13.2679 13.3206C13.0275 12.7332 13.0275 12.0762 13.2679 11.4889C13.3889 11.1979 13.5659 10.933 13.789 10.7089Z" fill="#727781"/>
<path d="M29.6562 10.7088C30.1103 10.2519 30.7251 9.98636 31.3721 9.9676H34.8197V8.65982H31.3721C30.8747 8.65067 30.3805 8.7404 29.9186 8.9237C29.4558 9.11056 29.034 9.38469 28.6767 9.73088C28.3212 10.0801 28.0389 10.4956 27.8462 10.9533C27.6523 11.4124 27.5525 11.9051 27.5525 12.4027C27.5525 12.9004 27.6523 13.393 27.8462 13.8521C28.0401 14.3102 28.3237 14.7257 28.6806 15.0746C29.0344 15.4219 29.4548 15.6956 29.9171 15.8796C30.3793 16.0635 30.8741 16.154 31.3721 16.1456H34.8197V14.8378H31.3721C30.8918 14.8273 30.425 14.6781 30.029 14.4086C29.633 14.139 29.3251 13.7609 29.1429 13.3205C28.9025 12.7332 28.9025 12.0762 29.1429 11.4888C29.2616 11.1985 29.4359 10.9336 29.6562 10.7088Z" fill="#727781"/>
<path d="M37.8364 10.7089C38.2887 10.2515 38.9024 9.98581 39.5485 9.96766H42.9961V8.65987H39.5485C39.051 8.6503 38.5567 8.74005 38.095 8.92376C37.6338 9.11149 37.2134 9.38555 36.857 9.73094C36.5 10.079 36.2175 10.4947 36.0264 10.9533C35.83 11.4118 35.7288 11.9047 35.7288 12.4028C35.7288 12.9008 35.83 13.3938 36.0264 13.8522C36.3145 14.5404 36.8046 15.1271 37.4334 15.536C38.0621 15.945 38.8003 16.1574 39.5524 16.1457H43V14.8379H39.5524C38.9073 14.8192 38.2942 14.5551 37.8403 14.1006C37.6209 13.8751 37.4444 13.6121 37.3193 13.3244C37.0841 12.7361 37.0841 12.0811 37.3193 11.4928C37.4404 11.2016 37.6159 10.9357 37.8364 10.7089Z" fill="#727781"/>
<path d="M27.7132 8.65967H26.2088L23.6819 14.4147L21.0766 8.65967H19.5251L22.9179 16.1455L21.6251 19.0909H23.1295L27.7132 8.65967Z" fill="#727781"/>
<path d="M9.77377 16.1455H11.4662L8.91579 12.7888C9.77569 12.4299 10.4593 11.7514 10.8198 10.8989C11.0013 10.4686 11.0947 10.007 11.0947 9.54065C11.0947 9.07435 11.0013 8.61268 10.8198 8.18242C10.6393 7.74662 10.373 7.35083 10.0363 7.01822C9.69948 6.68588 9.30017 6.42219 8.86094 6.24208C8.41988 6.06961 7.94804 5.98775 7.47406 6.00148H3V16.1455H4.42214V13.041H7.43096L9.77377 16.1455ZM4.42214 7.31703H7.47406C8.06495 7.33276 8.62668 7.5748 9.04116 7.99226C9.24351 8.20273 9.4043 8.44887 9.5152 8.71795C9.72937 9.25127 9.72937 9.84555 9.5152 10.3789C9.34579 10.7787 9.06261 11.1211 8.70019 11.3643C8.33778 11.6076 7.91176 11.7411 7.47406 11.7488H4.40647L4.42214 7.31703Z" fill="#727781"/>
</g>
</svg>
