<?xml version="1.0" encoding="UTF-8"?>
<svg id="Layer_2" data-name="Layer 2" xmlns="http://www.w3.org/2000/svg" viewBox="0 0 2490.29 621.16">
  <defs>
    <style>
      .cls-1 {
        fill: #727781;
      }

      .cls-2 {
        fill: #a3a6ae;
      }
    </style>
  </defs>
  <g id="Layer_1-2" data-name="Layer 1">
    <g>
      <path class="cls-2" d="M508.21,0v518.54H.08V0h508.13ZM473.3,32.89H34.99v300.87c0,.21,2.7,2.9,2.91,2.9h435.4V32.89ZM81.03,366.15c-19.67,3.32-34.21,20.26-32.01,40.59,3.62,33.44,52.34,27.74,55.74,45.1,3.7,18.9-13.79,23.39-29.1,19.35-5.5-1.45-10.2-7.81-12.95-8.55-3.92-1.05-20.64,11.21-13.21,19.18,19.08,20.45,73.82,14.49,78.4-18.59,5.41-39.1-18.97-37.13-44.87-49.7-23.49-11.39-6.58-33.07,16.1-27.65,4.57,1.09,11.27,7.16,14.12,6.62,2.05-.39,12.95-11.67,12.96-14.23.07-13-36.78-13.53-45.19-12.11ZM463.32,386.71c5.32-9.28-24.62-20.26-31.71-21.04-96-10.56-96.76,133.75-3.81,127.77,9.14-.59,37.81-10.25,37.8-20.38,0-3.05-12.98-14.01-14.89-14.35-2.92-.52-11.13,11.74-21.22,13.2-64.17,9.26-61.3-94.71-1.94-86.71,8,1.08,19.35,11.45,21.14,11.18.87-.13,14.2-8.92,14.63-9.68ZM162.99,489.52c4.58,2.64,23.27,3.38,23.27-2.9v-116.09c0-4.3-23.27-4.3-23.27,0v118.99ZM223.11,489.52h61.09c3.93,0,17.33-7.04,21.38-9.63,46.91-30,28.25-112.27-27.2-112.27h-52.36c-.21,0-2.91,2.7-2.91,2.9v118.99Z"/>
      <g>
        <path class="cls-1" d="M1239.39,359.87l19.14-58.84,9.66-.86,17.82,93.64c-4.04,1.37-11.85,2.27-14.66-1.01-4.46-5.19-5.86-38.04-9.68-46.48-2.68-.08-14.4,42.85-17.43,46.48-2.25,2.68-5.64,2.11-8.65,1.83l-16.58-48.31c-2.7,0-7.59,43.07-10.44,47.28-1.84,2.72-12.11.42-15.75,1.12,2.35-11.4,13.93-91.54,17.63-94.63,1.5-1.25,8.69-.45,10.53,1.72,6.18,7.3,12.05,47.05,18.42,58.06Z"/>
        <path class="cls-1" d="M2355.96,298.44c61.2-10.19,64.03,89.32,14.9,96.1-62.77,8.67-61.38-88.36-14.9-96.1ZM2349.32,317.92c-11.93,10.78-12.92,53.09,3.78,59.84,38.4,15.53,45.23-57.82,15.54-63.87-6.04-1.23-14.65-.18-19.31,4.04Z"/>
        <path class="cls-1" d="M1050.73,298.44c61.2-10.19,64.03,89.32,14.9,96.1-62.77,8.67-61.38-88.36-14.9-96.1ZM1044.09,317.92c-11.93,10.78-12.92,53.09,3.78,59.84,38.4,15.53,45.23-57.82,15.54-63.87-6.04-1.23-14.65-.18-19.31,4.04Z"/>
        <path class="cls-1" d="M1712.07,298.44c61.2-10.19,64.03,89.32,14.9,96.1-62.77,8.67-61.38-88.36-14.9-96.1ZM1705.43,317.92c-11.93,10.78-12.92,53.09,3.78,59.84,38.4,15.53,45.23-57.82,15.54-63.87-6.04-1.23-14.65-.18-19.31,4.04Z"/>
        <path class="cls-1" d="M1973.89,298.44c61.2-10.19,64.03,89.32,14.9,96.1-62.77,8.67-61.38-88.36-14.9-96.1ZM1967.25,317.92c-11.93,10.78-12.92,53.09,3.78,59.84,38.4,15.53,45.23-57.82,15.54-63.87-6.04-1.23-14.65-.18-19.31,4.04Z"/>
        <path class="cls-1" d="M612.94,392.77v-92.87h37.82c.86,0,11.57,5.01,13.27,6.11,25.85,16.75,24.4,65.31-2,80.58-2.1,1.22-12.01,6.18-13.2,6.18h-35.88ZM630.39,377.29c27.73,3.72,35.48-15.49,33.07-39.76-1.92-19.33-15.3-23.86-33.07-22.15v61.92Z"/>
        <path class="cls-1" d="M1520.58,247.66v-92.87h37.82c.86,0,11.57,5.01,13.27,6.11,25.85,16.75,24.4,65.31-2,80.58-2.1,1.22-12.01,6.18-13.2,6.18h-35.88ZM1538.04,232.18c27.73,3.72,35.48-15.49,33.07-39.76-1.92-19.33-15.3-23.86-33.07-22.15v61.92Z"/>
        <path class="cls-1" d="M1899.74,154.79c.7.14,11.47,6.05,12.46,6.92,13.95,12.19,7.27,38.69-9.53,44.34,1.75,5.55,27.66,39.35,25.18,41.61-4.64-.91-15.68,1.54-19-.39-3.37-1.97-17.06-31.69-22.7-36.34-3.43-2.83-6.69-2.05-10.65-1.95v38.7h-17.45v-92.87c12.2,1.7,30.36-2.31,41.7,0ZM1875.49,195.43c34.2,5.85,36.16-32.12,0-25.17v25.17Z"/>
        <path class="cls-1" d="M2083.99,299.9c.7.14,11.47,6.05,12.46,6.92,13.95,12.19,7.27,38.69-9.53,44.34,1.75,5.55,27.66,39.35,25.18,41.61-4.64-.91-15.68,1.54-19-.39-3.37-1.97-17.06-31.69-22.7-36.34-3.43-2.83-6.69-2.05-10.65-1.95v38.7h-17.45v-92.87c12.2,1.7,30.36-2.31,41.7,0ZM2059.73,340.54c34.2,5.85,36.16-32.12,0-25.17v25.17Z"/>
        <path class="cls-1" d="M1822.16,299.9c.7.14,11.47,6.05,12.46,6.92,13.95,12.19,7.27,38.69-9.53,44.34,1.75,5.55,27.66,39.35,25.18,41.61-4.64-.91-15.68,1.54-19-.39s-17.06-31.69-22.7-36.34c-3.43-2.83-6.69-2.05-10.65-1.95v38.7h-17.45v-92.87c12.2,1.7,30.36-2.31,41.7,0ZM1797.91,340.54c34.2,5.85,36.16-32.12,0-25.17v25.17Z"/>
        <path class="cls-1" d="M984.33,154.79c.7.14,11.47,6.05,12.46,6.92,13.95,12.19,7.27,38.69-9.53,44.34,1.75,5.55,27.66,39.35,25.18,41.61-4.64-.91-15.68,1.54-19-.39s-17.06-31.69-22.7-36.34c-3.43-2.83-6.69-2.05-10.65-1.95v38.7h-17.45v-92.87c12.2,1.7,30.36-2.31,41.7,0ZM960.08,195.43c34.2,5.85,36.16-32.12,0-25.17v25.17Z"/>
        <path class="cls-1" d="M2474.78,354.08v-54.18h15.52v94.81l-8.86-1.81-43.51-56.24v56.11h-15.52v-92.87c4.46-.68,6.39.23,9.82,2.78,9.88,7.33,26.77,35.32,36.78,46.51,1.6,1.78,3.38,4.31,5.76,4.89Z"/>
        <path class="cls-1" d="M1433.31,354.08v-54.18h15.52v94.81l-8.86-1.81-43.51-56.24v56.11h-15.52v-92.87c4.46-.68,6.39.23,9.82,2.78,9.88,7.33,26.77,35.32,36.78,46.51,1.6,1.78,3.38,4.31,5.76,4.89Z"/>
        <path class="cls-1" d="M1481.8,208.96v-54.18h15.52v94.81l-8.86-1.81-43.51-56.24v56.11h-15.52v-92.87c4.46-.68,6.39.23,9.82,2.78,9.88,7.33,26.77,35.32,36.78,46.51,1.6,1.78,3.38,4.31,5.76,4.89Z"/>
        <path class="cls-1" d="M1627.25,154.79v68.69c0,1.51,5.08,7.39,7,8.49,10.33,5.89,27.91-.04,27.91-12.36v-64.82h17.45v70.62c0,.8-3.94,9.03-4.93,10.56-11.53,17.73-46.21,19.25-59.07,2.98-1.08-1.36-5.82-9.11-5.82-9.67v-74.49h17.45Z"/>
        <path class="cls-1" d="M867,154.79v68.69c0,1.51,5.08,7.39,7,8.49,10.33,5.89,27.91-.04,27.91-12.36v-64.82h17.45v70.62c0,.8-3.94,9.03-4.93,10.56-11.53,17.73-46.21,19.25-59.07,2.98-1.08-1.36-5.82-9.11-5.82-9.67v-74.49h17.45Z"/>
        <path class="cls-1" d="M762.27,299.9v15.48h-42.67v21.28h31.03c.17,3.13.83,15.48-2.91,15.48h-28.12v25.15h39.76c3.74,0,3.08,12.35,2.91,15.48h-60.12v-92.87h60.12Z"/>
        <path class="cls-1" d="M927.12,299.9v15.48h-42.67v21.28h31.03c.17,3.13.83,15.48-2.91,15.48h-28.12v25.15h39.76c3.74,0,3.08,12.35,2.91,15.48h-60.12v-92.87h60.12Z"/>
        <path class="cls-1" d="M744.82,154.79v15.48h-42.67v21.28h31.03c.17,3.13.83,15.48-2.91,15.48h-28.12v25.15h39.76c3.74,0,3.08,12.35,2.91,15.48h-60.12v-92.87h60.12Z"/>
        <path class="cls-1" d="M1252.94,154.79v15.48h-42.67v21.28h31.03c.17,3.13.83,15.48-2.91,15.48h-28.12v25.15h39.76c3.74,0,3.08,12.35,2.91,15.48h-60.12v-92.87h60.12Z"/>
        <path class="cls-1" d="M1363.49,299.9v15.48h-42.67v21.28h31.03c.17,3.13.83,15.48-2.91,15.48h-28.12v25.15h39.76c3.74,0,3.08,12.35,2.91,15.48h-60.12v-92.87h60.12Z"/>
        <path class="cls-1" d="M1883.26,359.88v32.89h-17.45v-92.87h37.82c4.43,0,18.61,9.17,21.17,13.71,15.18,26.89-14.56,52.63-41.54,46.27ZM1883.26,344.4c35.92,5.27,36.49-34.75,0-29.02v29.02Z"/>
        <path class="cls-1" d="M1136.58,359.88v32.89h-17.45v-92.87h37.82c4.43,0,18.61,9.17,21.17,13.71,15.18,26.89-14.56,52.63-41.54,46.27ZM1136.58,344.4c35.92,5.27,36.49-34.75,0-29.02v29.02Z"/>
        <path class="cls-1" d="M2197.43,392.76c-3.68-.72-17.64,1.16-19.19-.19-.73-.63-3.54-16.38-4.26-17.02-1.25-1.09-31.91-.59-32.99.95-7.12,10.11,2.13,20.1-23.06,16.26l35.09-94.61c3.59-.81,7.54-.57,9.36,2.89l35.07,91.72ZM2168.35,361.8l-11.61-32.86-9.71,32.87h21.33Z"/>
        <path class="cls-1" d="M791.09,300.17c2.65,1.7,16.59,52.26,19.69,59.71,2.74-.22,3.05-2.84,3.93-4.76,3.48-7.61,17.13-53.38,19.59-54.95,2.51-1.6,13.19.53,17.19-.26l-36.13,94.58c-2.31.44-5.03.76-7.25,0-4.75-1.62-29.14-81.48-36.07-91.76-.58-3.87.12-2.49,2.8-2.83s15.06-.49,16.26.27Z"/>
        <path class="cls-1" d="M661.42,158.68c-1.18,2.27-3.47,12.94-3.99,13.41-2.86,2.55-32.29-13.43-31.11,6.89.92,15.73,37.56,15.25,39.06,42.63,1.27,23.28-22.51,30.41-41.61,27.82-16.16-2.2-16.48-7.31-10.81-21.11,8.83,4.33,36.38,12.84,34.83-4.71-1.53-17.3-35.84-17.8-38.81-38.73-4.6-32.33,29.09-37.95,52.44-26.19Z"/>
        <path class="cls-1" d="M1320.82,158.68c-1.18,2.27-3.47,12.94-3.99,13.41-2.86,2.55-32.29-13.43-31.11,6.89.92,15.73,37.56,15.25,39.06,42.63,1.27,23.28-22.51,30.41-41.61,27.82-16.16-2.2-16.48-7.31-10.81-21.11,8.83,4.33,36.38,12.84,34.83-4.71-1.53-17.3-35.84-17.8-38.81-38.73-4.6-32.33,29.09-37.95,52.44-26.19Z"/>
        <path class="cls-1" d="M1751.38,158.68c-1.18,2.27-3.47,12.94-3.99,13.41-2.86,2.55-32.29-13.43-31.11,6.89.92,15.73,37.56,15.25,39.06,42.63,1.27,23.28-22.51,30.41-41.61,27.82-16.16-2.2-16.48-7.31-10.81-21.11,8.83,4.33,36.38,12.84,34.83-4.71-1.53-17.3-35.84-17.8-38.81-38.73-4.6-32.33,29.09-37.95,52.44-26.19Z"/>
        <path class="cls-1" d="M828.21,158.69c-4.85,22.03-11.77,9.17-24.17,9.55-35.38,1.07-37.51,71.78,3.67,65.76,10.25-1.5,15.77-15.37,21,.73,3.01,9.27-13.27,14.05-20.85,14.86-77.8,8.36-55.54-128.68,20.35-90.9Z"/>
        <path class="cls-1" d="M1664.1,303.81c-4.85,22.03-11.77,9.17-24.17,9.55-35.38,1.07-37.51,71.78,3.67,65.76,10.25-1.5,15.77-15.37,21,.73,3.01,9.27-13.27,14.05-20.85,14.86-77.8,8.36-55.54-128.68,20.35-90.9Z"/>
        <path class="cls-1" d="M2271.14,299.9v15.48h-31.03v77.39h-17.45v-77.39h-28.12c-4.06,0-4.06-15.48,0-15.48h76.61Z"/>
        <path class="cls-1" d="M1136.58,154.79v15.48h-31.03v77.39h-17.45v-77.39h-28.12c-4.06,0-4.06-15.48,0-15.48h76.61Z"/>
        <path class="cls-1" d="M1541.92,299.9v15.48h-31.03v77.39h-17.45v-77.39h-28.12c-4.06,0-4.06-15.48,0-15.48h76.61Z"/>
        <path class="cls-1" d="M1844.47,154.79v15.48h-31.03v77.39h-17.45v-77.39h-28.12c-4.06,0-4.06-15.48,0-15.48h76.61Z"/>
        <path class="cls-1" d="M1955.01,208c-2.41-9.09-22.61-34.35-27.57-46.02-1.03-2.41-2.04-4.44-1.51-7.18,4.08.82,14.44-1.39,17.14.3,1.83,1.15,16.94,33.42,19.72,38.38,14.89-13.93,13.67-45.48,40.69-38.68,2.38,2.08-31.02,51.3-31.02,55.13v37.73h-17.45c-1.85-10.75,2.51-30.19,0-39.66Z"/>
        <polygon class="cls-1" points="963.97 299.9 963.97 377.29 1004.7 377.29 1004.7 392.77 946.52 392.77 946.52 299.9 963.97 299.9"/>
        <rect class="cls-1" x="2284.72" y="299.9" width="17.45" height="92.87"/>
        <rect class="cls-1" x="1388.7" y="154.79" width="17.45" height="92.87"/>
        <rect class="cls-1" x="1152.09" y="154.79" width="17.45" height="92.87"/>
        <rect class="cls-1" x="1026.03" y="154.79" width="17.45" height="92.87"/>
      </g>
      <g>
        <path class="cls-1" d="M7.62,574.87c4.35,3.6,1.51,37.6,13.82-.22,5.04-.92,2.99.74,4.02,2.74,2.11,4.09,4.17,10.17,5.67,14.66,3.06,2.35,7.43-17.11,8.92-17.52,19.24-5.39,14.94,14.11,18.23,17.53,4.42,4.6,6.49-14.46,7.89-15.36,7.66-4.9,7.07,13.32,14.38,13.44,1.55.02,3.38-14.13,5.05-15.33,1.02-.73,13.81,1.37,14.91,2.17,1.73,1.26,4.08,12.06,4.32,15.08,7.14-1.6,4.95-17.99,12.59-15.51,1.8.58,6.23,15.54,7.75,15.53,5.6-6.23,3.47-22.24,14.57-16.44-3.23,4.54-9.39,31.13-12.66,31.89-6.25,1.46-6.59-16.19-12.56-17.4-12.66,44.74-15.11-8.09-20.41-9.69-3.69-1.12-2.83,1.8-3.87,3.79-2.25,4.29-7.17,22.7-9.71,23.3-6.24,1.46-6.59-16.19-12.56-17.4-.93,4.6-5.66,22.29-11.61,17.39-1.2-.98-6.61-25.73-10.71-29.03-3.27,8.93-5.68,18.45-9.8,27.09-1,2.09.15,4.94-3.75,3.9-2.51-.67-6.08-16.85-6.83-17.42-6.19-4.68-7.12,20.61-15.35,15.35-1.33-.85-9.44-27.22-9.87-29.87-.74-4.66,6.58-3.49,7.57-2.67Z"/>
        <path class="cls-1" d="M428.69,577.55l3.14-2.5,37.62.54c6.34,3.17,7.8,27.5,4.88,32.02-1.69,2.61-4.25,2.61-5.94,0-3.64-5.63,4.3-31.81-9.39-26.92-7.52,2.68,1.7,30.82-7.97,28.79-7.16-1.5,2.22-29.15-7.78-29.1-11.44.06-4.2,21.83-7.7,27.23-2.46,3.8-6.85.31-6.85-1.03v-29.02Z"/>
        <path class="cls-1" d="M354.99,574.65c7.74.42,16.63,1.35,24.24,1.57,5.3.15,10.71-3.86,17.14.22,6.49,4.12,4.06,43.2-3.62,31.16-3.63-5.69,4.16-29.86-7.4-26.89-11.33,2.91,1.58,27.87-10.96,28.75-1.06-6.59,3.78-31.49-6.75-29.07-10.22,2.35-1.52,20.59-5.8,27.2-2.46,3.8-6.85.31-6.85-1.03v-31.92Z"/>
        <path class="cls-1" d="M228.93,563.04v44.5c-7.77-.65-13.22,3.78-20.84.48-14.09-6.1-8.84-30.73,4.4-33.34,10.53-2.07,11.7,5.2,10.63-11.66h5.81ZM212.84,580.8c-9.25,2.73-7.87,27.64,7.1,22.66,4.38-1.46,8.41-27.24-7.1-22.66Z"/>
        <path class="cls-1" d="M484.61,574.99c1.21.7,6.87,17.75,8.11,20.93,2.66.58,2.08-2.01,2.85-3.86,1.43-3.43,4.4-16.62,5.09-17.19.97-.8,8.08-2.05,7.51,2.61-.37,2.97-12.33,36.44-13.77,38.54-3.09,4.49-8.17,5.46-13.34,5.06-2.76-8.3,6.06-5.77,7.48-7.99,4.78-7.47-13.87-36.29-11.36-38.42,2.3.25,5.56-.75,7.42.33Z"/>
        <path class="cls-1" d="M329.23,575.07c28.05-6.39,25.88,38.99,1.98,34.07-16.21-3.33-16.49-30.76-1.98-34.07ZM331.15,580.8c-9.34,2.77-7.73,27.77,7.09,22.67,6.75-2.32,8.74-27.36-7.09-22.67Z"/>
        <path class="cls-1" d="M261.89,576.6c1.07,1.5-1.01,5.06-3.09,5.48-5.47,1.1-15.47-7.65-16.42,9.05-1.1,19.56,18.34,9.35,19.5,10.61,6.31,6.86-17.79,13.46-24.98.74-5.36-9.49-1.85-26.05,10.6-27.77,2.76-.38,13.43.55,14.38,1.89Z"/>
        <path class="cls-1" d="M176.55,582.38c-.7.77-8.19-2.9-10.63-1.95-4.84,8.27,8.64,7.12,11.57,13.59,8.05,17.79-17.61,17.48-20.16,13.34-.43-.7-.34-5.41-.15-5.61,1.06-1.16,20.66,7.52,12.62-5.84-1.84-3.06-10.63-3.51-12.31-9.08-5.64-18.62,26.7-12.91,19.06-4.45Z"/>
        <path class="cls-1" d="M316.2,576.6c1.07,1.51-1.02,5.07-3.09,5.48-5.79,1.15-15.86-7.72-16.48,8.97-.79,21.1,17.86,8.82,19.57,10.69,5.02,5.5-8.25,8.04-12.57,7.86-19.91-.84-19.28-31.03-3.48-34.55,3.18-.71,14.81-.19,16.05,1.55Z"/>
        <path class="cls-1" d="M194.02,574.65v34.83c-13.46,1.44-5.75-18.72-7.79-27.72-.24-1.05-7.48-2.94-2.78-7.13l10.57.03Z"/>
        <path class="cls-1" d="M279.34,599.81c3.21,12.77-12.36,11.72-9.67,2.91.98-3.22,6.81-3.25,9.67-2.91Z"/>
        <path class="cls-1" d="M412.22,599.82c8.92-2.5,8.92,12.13,0,9.64-3.9-1.09-3.9-8.54,0-9.64Z"/>
        <path class="cls-1" d="M147.46,599.81c1.18,1.13-.03,10.84-4.8,9.65-10.32-2.57-.35-14.56,4.8-9.65Z"/>
      </g>
      <path class="cls-2" d="M225.05,191.55c13.52,7.65,32.14,9.28,37.47,27.42,3.48,11.83-.86,21.2-6.83,31.21-6.14,10.29-30.62,36.57-40.43,42.85-11.98,7.68-31.43-8.87-40.67-17.28-29.08-26.51-35.06-48.17-36.82-86.13,25.75,13.39,63.1,22.97,87.27,1.93Z"/>
      <path class="cls-1" d="M153.29,123.83c5.06-1.06,3.93,2.5,5.27,5.29,9.7,20.24,20.75,24.74,43.22,19.86-1.7,7.82-2.31,13.6,0,21.28l-1.91.98,1.91.95c2.95,6.52,16.83,15.71,23.27,19.35-24.17,21.04-61.52,11.45-87.27-1.93-1.44-30.91-.08-39.11,15.52-65.78Z"/>
      <path class="cls-1" d="M190.14,85.13c-1.07,4.81,2.53,3.94,5.13,5.43,4.17,2.38,9.86,4.84,13.28,8.13,4.06,3.91,4.82,11.41,10.69,11.59-4.79,7.44-15.62,30.25-17.45,38.7-22.47,4.87-33.51.37-43.22-19.86-1.34-2.79-.21-6.35-5.27-5.29,11.83-20.23,16.84-26.17,36.85-38.7Z"/>
      <path class="cls-2" d="M329.78,189.61h41.7c1.2,0,2.47,2.54,2.53,4.36.38,11.78-15.37,60.43-24.85,66.35-2.7,1.69-28.15-7.42-28.92-10.01,4.09-20.03,10.72-39.98,9.54-60.7Z"/>
      <path class="cls-2" d="M329.78,181.88c1.29-21.12-5.87-41.37-9.65-61.83,7.63.81,24.12-11.94,29.03-8.88,9.48,5.92,25.23,54.57,24.85,66.35-.06,1.82-1.33,4.36-2.53,4.36h-41.7Z"/>
      <path class="cls-2" d="M282.26,181.88c-5.02-1.55-2.63-31.12-2.82-37.81-.12-4.11-2.86-10.26-1.9-13.21,1.67-5.1,27.69-4.99,33.66-9.01,4.25.44,13.37,52.86,10.81,60.03-10.11-1.93-31.27,2.61-39.76,0Z"/>
      <path class="cls-2" d="M269.66,129.63l3.98,47.35c-1.86,12.18-29.55-3.14-36.62-5.1-1.21-14.16-.12-28.24,1.61-42.25h31.03Z"/>
      <path class="cls-2" d="M322.02,189.61c2.56,7.16-6.56,59.58-10.81,60.03-3.22.34-11.74-4.84-16.35-3.92,5.47-21.75,6.25-40.1-11.63-56.1h38.79Z"/>
      <path class="cls-1" d="M190.14,85.13c21-13.15,38.79-19.25,63.99-21.28.56,2.96-.29,4.5-1.83,6.86-7.9,12.11-25.01,27.08-33.07,39.57-5.87-.18-6.63-7.68-10.69-11.59-3.42-3.29-9.11-5.75-13.28-8.13-2.6-1.49-6.2-.62-5.13-5.43Z"/>
      <path class="cls-2" d="M308.45,116.07c-6.4.23-28.22,7.76-32.13,2.08-.73-1.05-2.63-20.43-3.73-25.3-1.78-7.94-4.92-15.33-6.8-23.19,21.2,6.34,36.16,26.07,42.66,46.41Z"/>
      <path class="cls-2" d="M257.05,71.63c3.79-.03,13.25,43.49,12.37,47.22-1,4.23-30.13,5.95-30.4-1.31-.56-15.05,6.42-35.67,18.03-45.91Z"/>
      <path class="cls-2" d="M341.41,267.04c2.78,3.79-22.56,22.45-26.53,24.78-8.67,5.08-19.63,9.56-29.71,10,2.19-4.56,7.11-5.96,10.53-9.79,4.96-5.55,18.88-30.86,20.48-31.87,6.32-3.96,18.47,5.98,25.22,6.88Z"/>
      <path class="cls-2" d="M341.41,104.45c-5.89.78-20.54,9.88-25.21,6.92-1.2-.76-11.41-19.95-14.7-24.14-4.92-6.27-11.94-10.82-16.32-17.56,11.45,1,23.09,6.79,32.81,12.71,3.84,2.34,26.33,18.06,23.42,22.07Z"/>
      <path class="cls-2" d="M308.44,255.41c-6.19,18.22-20.27,41-40.71,44.48l23.18-45.6,17.53,1.12Z"/>
      <path class="cls-2" d="M230.86,127.69c-2.14,10.99-.53,23-1.93,33.9-.34,2.7-1,5.55-3.85,2.86-2.04-1.92-5.62-17.65-5.41-21.65.39-7.4,2.15-18.33,11.19-15.11Z"/>
      <path class="cls-2" d="M201.78,172.2l-1.91-.95,1.91-.98c.19.63-.22,1.44,0,1.93Z"/>
      <path class="cls-2" d="M246.38,470.17v-81.26h32c9.72,0,23.8,11.82,27.63,20.81,17.88,42.02-20.74,67.33-59.63,60.45Z"/>
    </g>
  </g>
</svg>