<?xml version="1.0" encoding="UTF-8"?>
<svg id="Layer_2" data-name="Layer 2" xmlns="http://www.w3.org/2000/svg" viewBox="0 0 1307.98 646">
  <defs>
    <style>
      .cls-1 {
        fill: #727781;
      }
    </style>
  </defs>
  <g id="Layer_1-2" data-name="Layer 1">
    <g>
      <path class="cls-1" d="M3.45,504.74c134.98-135.76,302.86-239.51,477.97-316.06C737.98,76.52,1016.63,20.08,1295.9,0l12.07,1.19c-66.91,5.7-133.66,16.03-199.52,28.96C757.39,99.04,412.57,250.92,157.5,504.74H3.45Z"/>
      <polygon class="cls-1" points="597.88 504.74 444.97 504.74 310.42 405.75 387.5 349.28 597.88 504.74"/>
      <path class="cls-1" d="M165.51,184.3c37.1,25.53,72.96,53.17,110.52,77.84l-83.21,53.57L13.76,184.3h151.76Z"/>
      <path class="cls-1" d="M454.71,574.55l13.19,1.13,24.61,41.21v-40.63c3.33-3.36,9.33-1.12,13.74-1.72v69.81l-13.16-1.16-24.64-41.19v42.34h-13.74v-69.81Z"/>
      <path class="cls-1" d="M269.74,574.55c22.03,2.73,26.17,29.68,7.71,40.61l14.62,30.34-14.91-.54-12.76-27.87-11.27-.19v27.47h-12.6v-69.81c9.23.82,20.21-1.11,29.21,0ZM253.13,604.3c7.97-.9,20.16,4.4,22.46-6.82.76-3.69-2.12-11.49-5.85-11.49h-16.61v18.31Z"/>
      <path class="cls-1" d="M557.79,574.55v30.9l22.91-30.9h16.03l-21.35,28.03,23.64,41.77-14.88-.57-17.76-30.3c-10.23,9.18-8.53,17.12-9.09,29.81l-13.24,1.07v-69.81h13.74Z"/>
      <path class="cls-1" d="M46.98,594l-12.55-.06c.69-12.27-20.73-12.37-20.73-.52,0,14.4,31.29,5.83,34.35,25.25,5.45,34.6-48.78,36.79-48.03,3.93l12.49.11c-.36,17.51,32.15,11.33,22.37-3.48-5.26-7.98-30.26-1.48-33.43-20.36-5.18-30.8,45.08-35.26,45.54-4.88Z"/>
      <path class="cls-1" d="M208.46,644.35l-13.79-.51-3.93-12.09-23.93-.97-5.25,13.06-13.79.51,25.18-69.25,10.92.57,24.61,68.67ZM169.53,620.32c2.96-.43,16.87,1.31,17.12-1.69l-7.98-24.61c-1.57-.34-1.23,1.19-1.68,2.28-3.2,7.66-4.56,16.24-7.46,24.03Z"/>
      <polygon class="cls-1" points="127.14 574.55 127.14 585.99 109.96 585.99 109.96 644.36 96.22 644.36 96.22 585.99 79.04 585.99 79.04 574.55 127.14 574.55"/>
      <polygon class="cls-1" points="337.89 574.55 337.89 632.91 368.81 632.91 368.81 644.36 325.29 644.36 325.29 574.55 337.89 574.55"/>
      <path class="cls-1" d="M416.91,644.36h-13.74v-68.09l1.9-1.54c1.04-.33,2.14-.15,3.2-.24,2.84-.25,6.88-.56,8.65,1.77v68.09Z"/>
    </g>
  </g>
</svg>