<?xml version="1.0" encoding="UTF-8"?>
<svg id="Layer_2" data-name="Layer 2" xmlns="http://www.w3.org/2000/svg" viewBox="0 0 1873.24 365.64">
  <defs>
    <style>
      .cls-1 {
        fill: #727781;
      }
    </style>
  </defs>
  <g id="Layer_1-2" data-name="Layer 1">
    <g>
      <path class="cls-1" d="M176.77,0l54.34,51.23L279.54,2.81l53.1,49.85L385.16,1.42l52.28,50.82-50.65,53.13-44.34-41.23-116.44,118.12,117.87,119.08,44.13-42.73,52.36,52.05-52.36,52.05-52.52-49.8-53.11,52.74-52.91-52.81-50.05,49.96L0,182.07,176.77,0ZM133.88,62.91L18.59,182.07l117.95,117.92,40.65-40.57-74.23-74.49,75.66-79.81c-6.02-5.35-40.07-43-44.74-42.19ZM236.83,65.72l-115.36,119.2,117.83,117.77,43.78-43.47-75.74-75.73,74.31-75.73-44.82-42.05Z"/>
      <path class="cls-1" d="M1624.43,109.91l-16.43,54.31,74.34-54.31h62.2l-82.79,60.95,35.62,97.64,113.67-158.59h53.62l8.58,165.74h-51.48v-21.43h-62.2l-14.54,21.49-43.93.03c-1.78-.51-1.28-12.53-9.04-.07l-56.75.06-25.87-65.83c-1.42.23-20.64,11.93-21.41,12.94-5.84,7.66-10.77,38.41-16.41,49.33-.65,1.25-.92,2.65-2.24,3.47h-50.76l52.91-165.74h52.91ZM1823.19,219.93l-1.44-58.58-40.03,58.58h41.47Z"/>
      <path class="cls-1" d="M1234.04,275.65l53.05-165.59c7.38.77,47.85-2.1,50.64,1.26l28.59,100.03,30.74-100.01h50.05l-54.28,163.65-49.91.46c-10.11-33.03-22.22-65.71-28.08-99.83l-30.74,100.03h-50.05Z"/>
      <path class="cls-1" d="M1172.31,105.97c96.1-1.43,74.51,99.53,24.58,144.7-51.62,46.69-164.5,45.16-141.16-49.6,13.07-53.07,61.35-94.27,116.59-95.09ZM1152.16,147.4c-27.06,4.25-48.24,49.88-45.01,74.3,3,22.73,30.37,21.9,46.15,12.56,27.15-16.06,56.35-95.89-1.13-86.86Z"/>
      <polygon class="cls-1" points="755 109.91 742.22 147.86 658.67 148.68 650.61 172.78 720.68 172.78 709.1 209.78 638.65 210.12 629.16 237.07 716.39 237.07 702.81 275.65 563.38 275.65 618.44 109.91 755 109.91"/>
      <polygon class="cls-1" points="1072.46 109.91 1058.22 152.12 1004.51 154.18 965.21 275.65 912.3 275.65 950.91 152.78 896.57 152.78 910.87 109.91 1072.46 109.91"/>
      <polygon class="cls-1" points="596.27 109.91 583.26 152.63 529.26 152.97 489.03 275.65 436.12 275.65 476.16 152.78 421.82 152.78 434.69 109.91 596.27 109.91"/>
      <polygon class="cls-1" points="837.94 109.91 799.33 232.79 876.55 232.79 861.53 275.65 732.12 275.65 787.18 109.91 837.94 109.91"/>
      <polygon class="cls-1" points="1537.2 109.91 1482.86 275.65 1428.52 275.65 1482.86 109.91 1537.2 109.91"/>
    </g>
  </g>
</svg>