<?xml version="1.0" encoding="UTF-8"?>
<svg id="Layer_2" data-name="Layer 2" xmlns="http://www.w3.org/2000/svg" viewBox="0 0 1776.45 362.87">
  <defs>
    <style>
      .cls-1 {
        fill: #727781;
      }

      .cls-2 {
        fill: #a3a6ae;
      }
    </style>
  </defs>
  <g id="Layer_1-2" data-name="Layer 1">
    <g>
      <path class="cls-2" d="M200.11,268.75v-75.3h34.92c17.2,0,39.21-17.87,45.83-33.37,25.2-58.98-38.19-107.86-88.17-70.98-8.71,6.43-22.78,26.91-22.78,37.52v36.71h-75.51v-48c0-34.98,39.04-81.08,68.58-97.27,119.62-65.55,246.96,59.46,184.12,179.83-15.7,30.07-63.7,70.86-98.84,70.86h-48.14Z"/>
      <path class="cls-2" d="M171.79,191.57v171.3h-65.13c-3.68,0-12.68-8.02-13.76-12.64-5.52-23.64-.53-53.35-2.28-77.73l-77.96-2.27c-6.11-1.08-12.67-10.07-12.67-15.6v-63.06h171.79Z"/>
      <path class="cls-1" d="M1391.33,266.87h-20.77v-66.83c0-11.84-19.52-19.52-30.34-17.07-5.45,1.23-16.86,9.95-16.86,15.19v68.71h-22.65v-68.71c0-7-16.09-16.14-23.6-16.14s-23.6,9.14-23.6,16.14v68.71h-22.65v-64.94c0-6.44,6.88-19.32,11.28-24.52,18.38-21.71,49.99-21.12,69.2-1.02,18.57-16.88,44.32-21.47,64.92-4.63,4.23,3.46,15.06,17.83,15.06,22.63v72.47Z"/>
      <path class="cls-1" d="M1648.08,125.69v141.18c-5.5-1-15.05,1.36-19.74.13-2.56-.67,1.05-7.39-3.83-5.76-2.12.71-7.05,5.42-11.78,7.09-46.27,16.34-90.64-26.17-72.58-72.37,13.63-34.89,57.59-45.03,87.16-23.21v-47.06h20.77ZM1585.28,182.62c-51.59,8.75-23.34,90.94,24.49,63.94,34.13-19.26,15.41-70.71-24.49-63.94Z"/>
      <path class="cls-1" d="M517.26,251.8c26.92,3.69,49.47-8.69,45.15-38.42-3.73-25.65-38.44-32.12-53.59-12.35l-1.25,106.05c-1.41,4.29-15.8,4.04-19.32,2.84-3.78-1.29-4.69-11.8-5.03-15.69-2.81-32.38,1.42-69.8,1.05-102.63,10.94-12.83,28.43-23.05,45.53-24.29,68.78-5.01,81.5,100.94,3.6,105.26-20.15,1.12-16.1-2.51-16.13-20.78Z"/>
      <path class="cls-1" d="M1776.45,266.87c-8-1.62-21.62,4.76-21.73-5.67-30.67,22.25-75.97,8.8-87.87-27.17-20.26-61.28,63.21-100.73,99.83-48.71,2.44,3.46,9.77,17.3,9.77,20.38v61.18ZM1713.65,182.62c-42.11,7.05-34.33,71.22,8.74,69.08,46.62-2.33,42.58-77.67-8.74-69.08Z"/>
      <path class="cls-1" d="M1519.71,266.87c-8-1.62-21.62,4.76-21.73-5.67-49,34.86-113.5-19.4-82.46-72.81,20.56-35.39,72.94-36.27,95.52-2.29,1.69,2.55,8.67,15.96,8.67,17.71v63.06ZM1456.91,182.62c-51.59,8.75-23.34,90.94,24.49,63.94,34.13-19.26,15.41-70.71-24.49-63.94Z"/>
      <path class="cls-1" d="M894.83,210.4c3.16-1.65,6.12-4.87,8.52-7.5,4.68-5.13,24.22-31.46,27.33-32.99,6.02-2.95,19.34.21,26.44-.91l-39.51,49.63,45.15,51.07c.09,4.47-23.73,2.84-27.89,2.42-12.58-16.03-24.93-33.01-40.03-46.65v44.24c0,2.46-21.7,8.82-24.01-6.09-5.77-37.23,3.29-85.48-.64-123.9-.94-5.7,16.73-14.12,20.8-15.09,2.07-.49,3.85,1.35,3.85,2.02v83.77Z"/>
      <path class="cls-1" d="M1145.42,163.78c63.4-10.66,96.18,62.95,46.74,99.32-36.74,27.03-91.64-2.45-89.69-47.91.92-21.54,21.1-47.73,42.95-51.4ZM1151.06,184.47c-36.23,7.47-33.31,63.15,1.42,67.37,59.5,7.23,52.66-78.53-1.42-67.37Z"/>
      <path class="cls-2" d="M1451.37,39.66c43.19-3.06,91.76,15.37,115.41,52.83l-17.8,18.11c-42.79-59.71-132.76-59.2-175.57,0l-17.8-18.11c20.07-31.69,58.79-50.21,95.77-52.83Z"/>
      <path class="cls-1" d="M849.53,272.52c-5.13-.94-20.51,2.65-22.39-3.09-3.39-10.33,1.24-42.31-.26-56.22-2.06-19.16-14.83-25.82-33.1-23.57-3.44.42-15.99,6.35-15.99,8.51v71.53c0,4.09-18.25,3.58-21.55,1.16-3.9-2.86-3.85-63.7-2.77-72.48,3.62-29.52,49.22-38.63,72.53-25.69,8.24,4.57,23.53,21.9,23.53,31.12v68.71Z"/>
      <path class="cls-1" d="M434.2,168.98c21.22.63,32.07-6.73,28.32,20.71h-28.32v55.53c0,9.91,32,4.64,35.99,7.41,3.4,2.36,2.47,19.89-1.06,19.89h-30.21c-6.94,0-19.62-6.02-23.61-12.22-12.97-20.15-2.12-83.41-5.35-108.9.73-2.12,17.84-11.13,20.39-11.73,2.07-.49,3.85,1.35,3.85,2.02v27.3Z"/>
      <path class="cls-2" d="M1451.32,99.85c30.38-3.34,60.12,9.41,79.68,32.42l-19.53,17.75c-23.01-23.33-50.04-32.12-80.52-15.9-8.66,4.61-13.54,10.86-21.42,15.9l-18.16-17.75c15.25-17.74,36.47-29.84,59.96-32.42Z"/>
      <path class="cls-1" d="M664.52,270.63v-137.42c4.45.58,18.11-9.49,19.84-9.37.21.02,2.82,2.58,2.82,2.78v143.06c0,4.71-18.93,2.84-22.65.94Z"/>
      <path class="cls-1" d="M730.32,272.25c-3.61.75-19.74.93-20.58-2.86l.08-100.42c5.13.94,20.52-2.63,22.4,3.1l-1.9,100.18Z"/>
      <path class="cls-1" d="M1028.87,274.4v-108.24c0-.57,3.09-3.52,4.69-2.81,4.47,2.91,4.39,5.54,4.86,10.23,3.02,30.17-2.48,65.38-.11,96.12-.42,5.35-4.91,5-9.44,4.7Z"/>
      <path class="cls-1" d="M643.75,208.51c-1.63,9.25,5.05,23.14-6.52,24.56-22.75,2.8-30.07-2.11-33.13-24.56h39.64Z"/>
      <path class="cls-1" d="M714.96,122.32c19.45-4.41,27.36,17.36,17.54,23.15-3.19,1.88-23.13,1.88-25.51-.94-5.78-6.81-.51-20.29,7.97-22.21Z"/>
    </g>
  </g>
</svg>