<?xml version="1.0" encoding="UTF-8"?>
<svg id="Layer_2" data-name="Layer 2" xmlns="http://www.w3.org/2000/svg" viewBox="0 0 1697.98 414.66">
  <defs>
    <style>
      .cls-1 {
        fill: #727781;
      }
    </style>
  </defs>
  <g id="Layer_1-2" data-name="Layer 1">
    <g>
      <path class="cls-1" d="M416.99,120.19c54.16,106.54,11.12,239.59-94.49,294.46l-5.43-.81-98.85-97.34-100.16,98.16C12.92,360.19-31.7,225.69,24.36,120.22l194.97,194.54,197.66-194.57Z"/>
      <path class="cls-1" d="M415.48,118.65c-37.65.03-75.29-.68-112.82,2.32l-81.81,84.29c-31.62-25.99-58.5-57.03-88.54-84.75l-107.19-1.85C75,20.68,191.96-24.52,296.2,13.31c50.67,18.39,95.21,57.23,119.29,105.34Z"/>
      <path class="cls-1" d="M1161.13,319.44h-51.08l-47.16-67.03c-3.29-2.36-17.29-2.76-20.69.87v66.16h-43.46l-2.29-2.28V118.67c26.16,1.73,52.51-2.94,78.6-1.59,46.63,2.41,83.02,25.49,78.43,76.86-2.38,26.64-19.91,42.19-42.64,53.26l50.29,72.25ZM1042.2,212.97h46.51c.44,0,6.49-3.72,7.62-4.57,10.28-7.72,14.42-23.6,7.57-34.92-2.18-3.61-12.71-12.23-16.72-12.23h-44.98v51.71Z"/>
      <polygon class="cls-1" points="944.61 118.67 944.61 161.26 845.49 161.26 845.49 196.24 926.31 196.24 926.31 235.78 845.49 235.78 845.49 276.85 944.61 276.85 944.61 319.44 799.75 319.44 799.75 118.67 944.61 118.67"/>
      <path class="cls-1" d="M1518.71,118.67l48.78,132.33,48.05-132.33h48.79l-73.32,198.36c-1.1,2.35-2.93,2.25-5.12,2.5-12.31,1.41-27.16-1.3-39.79.02l-76.94-200.87h49.56Z"/>
      <path class="cls-1" d="M614.48,118.67l49.54,132.32,49.58-132.32h46.51l-73.32,198.36c-.76,1.68-1.98,2.1-3.68,2.41-6.02,1.1-31.62.88-38.21.09-1.68-.2-3.34-.03-4.5-1.59l-75.46-199.27h49.56Z"/>
      <polygon class="cls-1" points="1350.21 118.67 1350.21 161.26 1289.22 161.26 1289.22 319.44 1240.43 319.44 1240.43 161.26 1179.43 161.26 1179.43 118.67 1350.21 118.67"/>
      <rect class="cls-1" x="1385.29" y="118.67" width="45.75" height="200.77"/>
      <path class="cls-1" d="M1670.43,287.5c6.04-6.27,11.28,20.37,12.22,21.29,2.55,2.5,2.56-.77,3.17-2.13,2.47-5.49,4.56-13.08,6.12-18.99l5.93-.16c.58,1.65-1.52,3.32-1.52,3.79v29.66c-3.57.2-2.7.52-3.05-2.25-.64-4.97.47-10.88-.01-15.99-4.32,1.79-4.7,19.5-9.87,18.24-3.32-.81-6.02-18.94-9.93-21.29v21.29h-3.05v-33.46Z"/>
      <polygon class="cls-1" points="1667.38 287.5 1667.39 292.05 1655.18 292.06 1655.18 320.96 1650.61 320.96 1650.61 292.06 1641.45 292.05 1641.46 287.5 1667.38 287.5"/>
    </g>
  </g>
</svg>