<?xml version="1.0" encoding="UTF-8"?>
<svg id="Layer_2" data-name="Layer 2" xmlns="http://www.w3.org/2000/svg" viewBox="0 0 1555.84 456.04">
  <defs>
    <style>
      .cls-1 {
        fill: #727781;
      }

      .cls-2 {
        fill: #a3a6ae;
      }
    </style>
  </defs>
  <g id="Layer_1-2" data-name="Layer 1">
    <g>
      <path class="cls-2" d="M200.74,21.74c177.16-12.94,296.67,179.51,202.9,331.18-85.4,138.13-287.65,137.28-372.03-1.33C-52.33,213.7,40.05,33.48,200.74,21.74ZM199.42,40.32C56.86,51.43-27.15,210.38,40.78,335.82c73.82,136.3,270.96,140.6,350.09,7.01C474.99,200.84,362.99,27.57,199.42,40.32Z"/>
      <path class="cls-1" d="M596.88.47c49.1-6.61,73.17,58.29,28.27,85.25-40.07,24.06-88.88,42.19-130.02,65.28-49.13,15.62-83.18-45.18-44.19-78.59,43.35-20.52,89.56-50.6,133.82-68.12,3.76-1.49,8.12-3.29,12.12-3.83Z"/>
      <path class="cls-2" d="M1071.83,311.91c-11.75,2.6-23.38,6.33-35.4,7.79-56.67,6.88-114.91-15.52-117.54-80.04-3.31-81.26,80.85-110.39,147.63-86.95l-5.34,18.56c-38.61-15.09-97.21-9.03-112.27,35.87-5.24,15.62-5.01,38.16.58,53.7,14.43,40.1,61.33,48.34,98.41,37.79v-51.74h-37.23v-18.57h61.16v83.58Z"/>
      <path class="cls-2" d="M1554.43,138.11v177.12c0,.41,1.82,1.89,1.33,3.32h-22.6l-1.34-18.57c-14.59,17.41-32.21,25.05-55,21.07-63.31-11.06-62.62-113.12-.87-126.59,22.4-4.89,38.86.16,54.56,16.63v-72.97h23.93ZM1486.31,211.42c-40.28,5.9-44.46,78.97-5.29,90.83,25.97,7.86,47.26-8.65,49.46-34.81,2.62-31.1-6.37-61.55-44.17-56.02Z"/>
      <path class="cls-2" d="M811.25,138.11v76.95c20.74-29.88,71.48-31.06,85.73,5.33,1.31,3.35,4.67,14.96,4.67,17.89v80.27h-25.26v-81.59c0-1.84-4.19-10.97-5.54-13.05-13.41-20.56-45.17-13.97-55.43,6.6-.99,1.99-4.18,8.88-4.18,10.42v77.61h-23.93v-180.44h23.93Z"/>
      <path class="cls-2" d="M559.98,318.54h-20.61c-3.73-3.62-.93-10.18-3.98-14.59-20.05,25.95-75.45,25.21-81.17-11.88-6.6-42.84,47.42-52.5,79.17-51.81,2.97-30.62-25.06-34.75-48.9-28.24-4.17,1.14-14.51,7.42-16.91,4.36-1.14-1.45-3.74-10.62-3.19-12.38,2.17-6.85,37.24-11.72,44.47-11.57,71.63,1.46,43.24,80.25,51.12,126.1ZM534.72,256.19h-19.28c-3.7,0-15.32,3.12-19.26,4.66-9,3.52-16.47,9.71-17.36,19.81-2.9,32.93,40.4,30.63,52.49,8.62.71-1.29,3.4-6.51,3.4-7.22v-25.87Z"/>
      <path class="cls-2" d="M1336.39,318.54h-21.27c.07-3.77-.71-7.56-1.38-11.25-.33-1.86,1.27-3.91-1.93-3.33-12.84,15.77-33.13,21.12-52.6,16.64-11.28-2.59-24.89-12.83-27.26-24.54-9.46-46.79,44.56-56.23,79.19-55.79,1.07-31.68-26.3-34.44-51.12-27.79-2.76.74-14.13,6.34-15.35,5.23.59-4.39-6.43-11.87-2.72-15.28,5.31-4.89,32.81-9.86,40.53-9.99,66.87-1.12,51.12,60.16,52.52,105.6.2,6.45,2.58,13.59,1.38,20.51ZM1311.13,256.19h-19.28c-2.67,0-17.16,3.79-20.21,5.04-10.77,4.42-17.28,13.01-16.43,24.87,1.63,22.82,30.56,23.61,45.31,11.92,2.78-2.21,10.61-11.48,10.61-14.62v-27.2Z"/>
      <path class="cls-2" d="M1121.02,195.16v80.27c0,2.02,3.21,10.51,4.38,12.88,10.98,22.35,44.07,17.69,55.19-2.52,1.08-1.96,4.25-8.74,4.25-10.36v-80.27h23.93l1.33,123.39h-21.27l-1.34-19.9c-22.07,31.85-77.69,32.91-88.38-9.3-4.65-18.36-5.66-70.42-3.4-89.61.16-1.34.61-4.58,2.06-4.58h23.27Z"/>
      <path class="cls-2" d="M618.47,167.29v27.86h32.57c3.25,0,1.67,14.26,1.99,17.25h-34.57v77.61c0,.72,3.08,7.03,3.94,8.01,5.88,6.65,20.09,5.11,27.96,3.27,0,5.83-.53,11.63,1.35,17.23-18.25,4.81-43.75,6.1-53.43-13.68-.91-1.86-5.08-13.69-5.08-14.83v-76.29h-19.94v-17.25h19.94v-23.88c8.61-.99,16.45-6.01,25.26-5.31Z"/>
      <path class="cls-2" d="M766.05,199.15c-1.16,3.2-3.54,14.94-6.18,15.8-23.34-6-48.16-8.56-64.97,12.03-18.13,22.22-11.54,60.11,15.31,72.32,17.51,7.96,34.21,2.33,51.81-.63l2.59,17.12c-6.99,1.46-13.77,3.95-20.86,5.04-38.39,5.9-79.08-10.43-82.78-53.32-5.32-61.82,52.65-87.97,105.08-68.36Z"/>
      <path class="cls-2" d="M1429.46,215.06c-12.95-3.39-28.5,2.78-35.68,14.15-1.33,2.11-5.53,12.59-5.53,14.38v74.96h-23.93l-1.33-123.39h19.28c.14,0,1.99,1.85,1.99,1.99v21.89c5.65-7.28,9.46-15.01,17.69-20.16,3.72-2.33,27.51-10.83,27.51-4.39v20.56Z"/>
      <path class="cls-1" d="M271.26,122.41c21.75,52.95,38.24,108.59,45.43,165.62,2.79-.79,2.85-4.09,3.59-6.35,5.35-16.25,8.66-37.37,11.93-54.43,6.4-33.4,11.7-67.23,15.05-101.09,1.85-.1,2.54-.39,4.04.91,7.74,6.68,21.99,32.42,26.35,42.4,20.43,46.86,13.44,70.2-1.11,116.59-7.55,24.06-16.82,47.63-26.83,70.74l-68.31.27-38.51-171.21c-2.86-.96-1.89,2.59-2.34,4.24-15.07,54.99-27.94,110.73-37.45,167l-68.6-.69c-24.72-55.07-41.3-114.68-51.38-174.28-1.24-7.34-8.57-51.73-6.48-54.73,1.64-2.35,16.12-1,20.01-1.25,5.34-.34,37.44-3.25,39.38-.54,7.54,54.07,14.94,108.55,29.76,161.1,10.13-56.11,23.73-111.77,46.08-164.31h59.39Z"/>
    </g>
  </g>
</svg>