<?xml version="1.0" encoding="UTF-8"?>
<svg id="Layer_2" data-name="Layer 2" xmlns="http://www.w3.org/2000/svg" viewBox="0 0 1052.62 522.16">
  <defs>
    <style>
      .cls-1 {
        fill: #727781;
      }
    </style>
  </defs>
  <g id="Layer_1-2" data-name="Layer 1">
    <g>
      <polygon class="cls-1" points="318.7 406.81 265.7 522.16 0 386.49 198.58 0 463.82 127.28 358.55 127.28 316.92 195.09 280.65 127.86 193.81 128.47 262.67 309.89 211.65 406.81 318.7 406.81"/>
      <path class="cls-1" d="M628.66,144.46c28.32,27.03,16.23,82.7-.49,113.27-23.01,42.06-65.61,68.39-113.75,70.62-138.68,6.44-87.54-157.51.57-193.32,31.2-12.68,87.85-15.21,113.68,9.43ZM543.25,177.57c-57.2,6.93-87.25,105.34-12.25,98.38,57.79-5.36,89.67-107.75,12.25-98.38Z"/>
      <path class="cls-1" d="M982.44,201.02c2.96-34.35-43.3-32.43-64.62-21.2-45.77,24.1-62.5,107.36,10.19,98.22,9.82-1.23,21.34-6.6,29.34-12.29,1.54-1.1,6.18-6.44,6.65-6.44h55.31c-21.41,50.26-74.09,72.26-126.67,68.98-116.88-7.3-70.79-143.74-2.88-184.85,48.55-29.39,154.95-35.3,151.01,45.15-.18,3.62-.91,9.82-3.02,12.44h-55.31Z"/>
      <polygon class="cls-1" points="857.54 129.65 842.67 178.42 651.76 178.42 666.03 129.65 857.54 129.65"/>
      <rect class="cls-1" x="362.71" y="348.52" width="689.91" height="11.89"/>
      <polygon class="cls-1" points="771.9 184.37 728.48 327.11 676.74 327.11 719.56 184.37 771.9 184.37"/>
    </g>
  </g>
</svg>