<?xml version="1.0" encoding="UTF-8"?>
<svg id="Layer_2" data-name="Layer 2" xmlns="http://www.w3.org/2000/svg" viewBox="0 0 1210.18 271.47">
  <defs>
    <style>
      .cls-1 {
        fill: #727781;
      }
    </style>
  </defs>
  <g id="Layer_1-2" data-name="Layer 1">
    <g>
      <path class="cls-1" d="M833.41.2l14.76,2.96c10.89,2.97,21.01,7.92,29.44,15.44,11.44-7.43,24.09-13.02,37.5-15.9l17.11-2.51h14.18l18.64,3.34c15.93,4,32.41,12.46,44.71,23.31,1.58,1.39,9.15,9.69,10.16,9.7,2.4-1.98,4.47-4.67,6.85-6.87,15.57-14.38,35.2-24.26,56.16-27.92l11.92-1.55h13.24l.75.44c54.42,2.76,99.07,48.97,101.38,103.09l-.02,167.72c-12.84-.1-24.92-.42-35.8-7.92-15.5-10.68-17.99-25.55-18.59-43.25-1.3-37.93,2.88-79.19-.93-116.54-3.8-37.28-40.57-59.87-75.48-44.67-24.31,10.59-32.72,33.03-32.32,58.32l.02,154.04-14.41-.48c-28.5-3.72-38.99-21.84-39.97-48.8-1.22-33.39,1.12-67.56.04-100.99-.7-21.81-2.28-40.6-20.6-54.92-33.6-26.29-82.52-6.48-87.2,36.08-4.01,36.5.32,77.89-.93,115.12-.58,17.3-1.67,33.56-16.61,44.75-11,8.24-24.38,9.62-37.79,8.97V.2h3.79Z"/>
      <path class="cls-1" d="M207.52.2l13.88,1c14.32,2.03,26.89,10.65,32.66,24.01,4.07,9.42,3.94,19.62,3.79,29.7L95.49,217.2h124.11c16.33.65,30.47,2.46,41.59,15.57,9.19,10.83,10.8,25,10.36,38.7H59.31c-16.05-.77-30-5.75-38.7-19.86-6.53-10.59-7.27-22.68-6.65-34.86,54-54.25,108.86-107.61,162.37-162.28H49.38C25.44,55.38,4.56,41.94,1.01,17.36L0,4.92V.2h207.52Z"/>
      <path class="cls-1" d="M687.81.2c94.29,5.23,155.15,104.74,116.22,191.22-44.37,98.58-181.47,108.2-239.33,16.77C509.61,121.14,569.47,5.96,671.74.2c4.86-.27,11.21-.27,16.07,0ZM675.42,54.59c-63.77,3.62-99.18,75.86-62.21,128.32,34.79,49.37,110.29,44.61,138.67-8.63,29.78-55.88-13.27-123.28-76.45-119.69Z"/>
      <path class="cls-1" d="M402.29.2c94.36,5.23,155,104.69,116.22,191.22-44.15,98.52-181.67,108.18-239.33,16.77C224.21,121.05,283.76,5.97,386.21.2c4.86-.27,11.21-.27,16.07,0ZM389.42,54.59c-63.59,4.04-98.6,76.01-61.74,128.32,33.68,47.8,106.11,45.12,136.44-4.72,34.07-55.99-9.43-127.75-74.7-123.6Z"/>
    </g>
  </g>
</svg>