<?xml version="1.0" encoding="UTF-8"?>
<svg id="Layer_2" data-name="Layer 2" xmlns="http://www.w3.org/2000/svg" viewBox="0 0 632.4 305.83">
  <defs>
    <style>
      .cls-1 {
        fill: #727781;
      }
    </style>
  </defs>
  <g id="Layer_1-2" data-name="Layer 1">
    <g>
      <path class="cls-1" d="M632.36,19.53v3.45c-.36,1.01-.35,2.13-.62,3.21-1.75,7.18-8.61,14.56-16.11,15.73-5.3.83-14.2-.02-19.96.05-20.78.23-41.69.19-62.47.51-11.47.18-20.92-2.08-28.78,8.26-4.33,5.7-3.72,9.08-3.95,15.8-.5,14.77-1.11,32.24,0,46.88.75,9.94,10.3,17.56,19.88,18.14,20.39,1.23,41.98-.91,62.49,0,11.35.82,21.65-1.97,29.49,8.29,9.69,12.66,2.66,29.8-12.27,33.62l-82.19.3c-8.73,1.91-16.49,9.01-17.41,18.14-.1.96.06,2,0,2.97-.85,14.39-.84,31.7-.27,46.15.45,11.34,5.35,18.82,16.49,22.02,28.98,1.04,58.13-.34,87.14.29,11.17.24,21.4.78,26.58,12.43.98,2.21,1.43,4.48,1.93,6.83-.09,1.27.13,2.7,0,3.95-.99,9.46-8.55,17.03-17.68,18.98-45.53-.74-91.32,1.17-136.8-.24-4.17-.13-6.97.4-11.06-1.04-5.04-1.77-8.56-4.95-11.25-9.49-3.62-6.1-1.6-12.94-2.53-19.68V17.42c1.73-7.36,6.41-13.1,13.53-15.85,5.7-2.2,12.25-.32,18.21-1.3,41.12.81,82.7-1.16,123.74.27,1.93.07,4.03-.17,5.93,0,9.36.79,17.11,9.95,17.91,19Z"/>
      <path class="cls-1" d="M.09,286.79c-.12-1.19-.12-3.49,0-4.69.18-1.81.98-3.96,1.61-5.67,41.37-67.01,85.09-132.56,126.68-199.43,5.5-8.84,15.21-19.39,6.57-29.48-4.63-5.41-8.99-5.11-15.68-5.31-29.34-.88-59.46,1.29-88.69-.22-18.92-.98-27.14-23.37-13.33-36.29C23.98-.6,30.02.75,38.5.53c53.45-1.34,107.06.46,160.53-.01,12.86,2.98,20.05,16.37,15.23,28.8-42.74,68.94-87.72,136.53-130.55,205.42-1.72,2.76-5.31,7.65-5.96,10.58-1.51,6.87,1.66,13.43,7.87,16.59,2.98,1.52,3.84,1.02,6.97,1.18,33.52,1.67,67.93-1.02,101.49.76,5.77.31,7.96.17,12.81,3.73,12.11,8.89,11.15,27.55-1.89,35.04-6.57,3.78-12.37,2.26-19.54,2.93-51.52-.42-103.13.64-154.61-.27-5.64-.1-12.01.78-17.3-1.22-7.05-2.67-12.69-9.7-13.45-17.28Z"/>
      <path class="cls-1" d="M285.79.35c39.94-.23,80.05-.45,119.95.18,9.25.15,17.54-1.57,24.84,5.53,12.29,11.95,5.18,34.73-12.24,35.91-13.53.92-27.67-.37-41.24.5-6.81.44-12.83,4.63-16.22,10.44-2.11,3.62-2.27,5.75-2.44,9.9-.47,11.83.09,24.15.02,36.05-.26,42.8-.33,85.75-.51,128.55-.08,17.73.45,35.62-.25,53.31-.21,5.23.19,7.31-2.42,12.14-10.68,19.78-39.35,14.87-44.23-6.48l-.26-210.74c-.69-4.84.07-9.94-.26-14.79-.66-9.7-9.8-18.07-19.38-18.64-13.13-.79-27.05.54-40.28-.23-23.69-1.38-25.59-36.47-2.46-41.47,12.45.14,24.94-.1,37.37-.17Z"/>
    </g>
  </g>
</svg>